<?xml version="1.0" encoding="UTF-8"?>
<!DOCTYPE svg PUBLIC "-//W3C//DTD SVG 1.1//EN" "http://www.w3.org/Graphics/SVG/1.1/DTD/svg11.dtd">
<svg xmlns="http://www.w3.org/2000/svg" version="1.1" width="96px" height="96px" style="shape-rendering:geometricPrecision; text-rendering:geometricPrecision; image-rendering:optimizeQuality; fill-rule:evenodd; clip-rule:evenodd" xmlns:xlink="http://www.w3.org/1999/xlink">
<g><path style="opacity:0.008" fill="#ecbefe" d="M 24.5,9.5 C 39.6611,8.3388 54.9945,8.17213 70.5,9C 55.1703,9.49992 39.837,9.66659 24.5,9.5 Z"/></g>
<g><path style="opacity:0.008" fill="#f362f9" d="M 71.5,10.5 C 71.8966,9.47498 72.5632,9.30831 73.5,10C 72.9056,10.4643 72.2389,10.631 71.5,10.5 Z"/></g>
<g><path style="opacity:0.298" fill="#d1e2fe" d="M 35.5,10.5 C 34.791,11.404 33.791,11.7373 32.5,11.5C 28.4659,11.5045 24.4659,11.8379 20.5,12.5C 21.2625,11.7321 22.2625,11.2321 23.5,11C 27.4862,10.5012 31.4862,10.3345 35.5,10.5 Z"/></g>
<g><path style="opacity:0.992" fill="#94bbfe" d="M 32.5,11.5 C 31.5,12.1667 30.5,12.8333 29.5,13.5C 26.0977,13.3424 22.7644,13.6758 19.5,14.5C 19.8333,13.8333 20.1667,13.1667 20.5,12.5C 24.4659,11.8379 28.4659,11.5045 32.5,11.5 Z"/></g>
<g><path style="opacity:0.992" fill="#d0b4fd" d="M 35.5,10.5 C 47.5,10.5 59.5,10.5 71.5,10.5C 71.5,10.8333 71.5,11.1667 71.5,11.5C 69.8333,11.5 68.1667,11.5 66.5,11.5C 63.8333,11.5 61.1667,11.5 58.5,11.5C 55.5,11.5 52.5,11.5 49.5,11.5C 45.9878,10.9455 42.9878,11.6122 40.5,13.5C 39.1667,13.5 37.8333,13.5 36.5,13.5C 34.8333,13.5 33.1667,13.5 31.5,13.5C 30.8333,13.5 30.1667,13.5 29.5,13.5C 30.5,12.8333 31.5,12.1667 32.5,11.5C 33.791,11.7373 34.791,11.404 35.5,10.5 Z"/></g>
<g><path style="opacity:0.992" fill="#d090fd" d="M 49.5,11.5 C 49.5,12.1667 49.5,12.8333 49.5,13.5C 49.1667,13.5 48.8333,13.5 48.5,13.5C 45.8333,13.5 43.1667,13.5 40.5,13.5C 42.9878,11.6122 45.9878,10.9455 49.5,11.5 Z"/></g>
<g><path style="opacity:0.992" fill="#df7bfd" d="M 49.5,11.5 C 52.5,11.5 55.5,11.5 58.5,11.5C 58.1667,12.1667 57.8333,12.8333 57.5,13.5C 57.1667,13.5 56.8333,13.5 56.5,13.5C 54.1667,13.5 51.8333,13.5 49.5,13.5C 49.5,12.8333 49.5,12.1667 49.5,11.5 Z"/></g>
<g><path style="opacity:0.992" fill="#e964fa" d="M 58.5,11.5 C 61.1667,11.5 63.8333,11.5 66.5,11.5C 67.1667,12.1667 67.8333,12.8333 68.5,13.5C 67.5,13.5 66.5,13.5 65.5,13.5C 62.8333,13.5 60.1667,13.5 57.5,13.5C 57.8333,12.8333 58.1667,12.1667 58.5,11.5 Z"/></g>
<g><path style="opacity:1" fill="#f06af5" d="M 66.5,11.5 C 68.1667,11.5 69.8333,11.5 71.5,11.5C 74.3263,11.9977 76.6597,13.3311 78.5,15.5C 76.965,14.6457 75.6316,14.6457 74.5,15.5C 72.8828,14.962 71.2161,14.6287 69.5,14.5C 69.5,13.8333 69.1667,13.5 68.5,13.5C 67.8333,12.8333 67.1667,12.1667 66.5,11.5 Z"/></g>
<g><path style="opacity:0.997" fill="#d53eef" d="M 56.5,13.5 C 56.8333,13.5 57.1667,13.5 57.5,13.5C 60.1667,13.5 62.8333,13.5 65.5,13.5C 64.4324,14.4345 63.099,14.7678 61.5,14.5C 61.7733,16.451 61.1066,17.951 59.5,19C 60.1667,19.3333 60.8333,19.6667 61.5,20C 61.2716,20.3988 60.9382,20.5654 60.5,20.5C 57.8333,20.5 55.1667,20.5 52.5,20.5C 55.7337,19.9114 57.067,17.9114 56.5,14.5C 56.5,14.1667 56.5,13.8333 56.5,13.5 Z"/></g>
<g><path style="opacity:0.998" fill="#da36e9" d="M 65.5,13.5 C 66.5,13.5 67.5,13.5 68.5,13.5C 69.1667,13.5 69.5,13.8333 69.5,14.5C 68.5084,14.3284 67.8417,14.6618 67.5,15.5C 65.2621,16.8527 63.9287,18.8527 63.5,21.5C 62.8333,21.5 62.1667,21.5 61.5,21.5C 61.1667,21.5 60.8333,21.5 60.5,21.5C 60.5,21.1667 60.5,20.8333 60.5,20.5C 60.9382,20.5654 61.2716,20.3988 61.5,20C 60.8333,19.6667 60.1667,19.3333 59.5,19C 61.1066,17.951 61.7733,16.451 61.5,14.5C 63.099,14.7678 64.4324,14.4345 65.5,13.5 Z"/></g>
<g><path style="opacity:0.998" fill="#de28e1" d="M 67.5,15.5 C 67.8417,14.6618 68.5084,14.3284 69.5,14.5C 71.2161,14.6287 72.8828,14.962 74.5,15.5C 74.5,15.8333 74.5,16.1667 74.5,16.5C 72.8564,16.8102 71.8564,17.8102 71.5,19.5C 69.8868,19.9443 68.7202,20.9443 68,22.5C 67.6012,22.2716 67.4346,21.9382 67.5,21.5C 67.9539,19.2589 67.9539,17.2589 67.5,15.5 Z"/></g>
<g><path style="opacity:1" fill="#dadafd" d="M 20.5,12.5 C 20.1667,13.1667 19.8333,13.8333 19.5,14.5C 17.1667,16.1667 15.1667,18.1667 13.5,20.5C 12.8902,21.391 12.5569,22.391 12.5,23.5C 12.1667,23.5 11.8333,23.5 11.5,23.5C 12.662,18.3373 15.662,14.6706 20.5,12.5 Z"/></g>
<g><path style="opacity:0.998" fill="#7c8dfd" d="M 29.5,13.5 C 30.1667,13.5 30.8333,13.5 31.5,13.5C 27.4691,15.7172 23.1358,17.0505 18.5,17.5C 17.5,17.8333 16.8333,18.5 16.5,19.5C 15.8333,19.5 15.5,19.8333 15.5,20.5C 14.8333,20.5 14.1667,20.5 13.5,20.5C 15.1667,18.1667 17.1667,16.1667 19.5,14.5C 22.7644,13.6758 26.0977,13.3424 29.5,13.5 Z"/></g>
<g><path style="opacity:0.997" fill="#c657f6" d="M 48.5,13.5 C 48.8333,13.5 49.1667,13.5 49.5,13.5C 51.8333,13.5 54.1667,13.5 56.5,13.5C 56.5,13.8333 56.5,14.1667 56.5,14.5C 54.4727,14.3379 52.4727,14.5045 50.5,15C 50.9574,15.414 51.2907,15.914 51.5,16.5C 50.2723,18.321 48.6056,19.321 46.5,19.5C 47.1667,17.8333 47.8333,16.1667 48.5,14.5C 48.5,14.1667 48.5,13.8333 48.5,13.5 Z"/></g>
<g><path style="opacity:0.998" fill="#cd49f3" d="M 56.5,14.5 C 57.067,17.9114 55.7337,19.9114 52.5,20.5C 50.5,20.5 48.5,20.5 46.5,20.5C 46.5,20.1667 46.5,19.8333 46.5,19.5C 48.6056,19.321 50.2723,18.321 51.5,16.5C 51.2907,15.914 50.9574,15.414 50.5,15C 52.4727,14.5045 54.4727,14.3379 56.5,14.5 Z"/></g>
<g><path style="opacity:0.997" fill="#dd2de5" d="M 67.5,15.5 C 67.9539,17.2589 67.9539,19.2589 67.5,21.5C 66.1667,21.5 64.8333,21.5 63.5,21.5C 63.9287,18.8527 65.2621,16.8527 67.5,15.5 Z"/></g>
<g><path style="opacity:0.997" fill="#797ffd" d="M 31.5,13.5 C 33.1667,13.5 34.8333,13.5 36.5,13.5C 36.5,14.1667 36.1667,14.5 35.5,14.5C 30.2435,17.1977 24.5769,18.1977 18.5,17.5C 23.1358,17.0505 27.4691,15.7172 31.5,13.5 Z"/></g>
<g><path style="opacity:0.998" fill="#9876fd" d="M 36.5,13.5 C 37.8333,13.5 39.1667,13.5 40.5,13.5C 40.5,13.8333 40.5,14.1667 40.5,14.5C 38.1274,15.203 36.1274,16.5363 34.5,18.5C 33.8333,18.5 33.1667,18.5 32.5,18.5C 33.7888,17.3634 34.7888,16.0301 35.5,14.5C 36.1667,14.5 36.5,14.1667 36.5,13.5 Z"/></g>
<g><path style="opacity:0.996" fill="#b06bfb" d="M 40.5,13.5 C 43.1667,13.5 45.8333,13.5 48.5,13.5C 48.5,13.8333 48.5,14.1667 48.5,14.5C 46.4727,14.3379 44.4727,14.5045 42.5,15C 43.6441,18.3194 42.3107,19.8194 38.5,19.5C 39.1667,17.8333 39.8333,16.1667 40.5,14.5C 40.5,14.1667 40.5,13.8333 40.5,13.5 Z"/></g>
<g><path style="opacity:0.996" fill="#ba5cf8" d="M 48.5,14.5 C 47.8333,16.1667 47.1667,17.8333 46.5,19.5C 46.5,19.8333 46.5,20.1667 46.5,20.5C 41.5456,21.0574 38.8789,20.7241 38.5,19.5C 42.3107,19.8194 43.6441,18.3194 42.5,15C 44.4727,14.5045 46.4727,14.3379 48.5,14.5 Z"/></g>
<g><path style="opacity:0.998" fill="#e323dc" d="M 74.5,16.5 C 76.0269,16.427 77.0269,17.0937 77.5,18.5C 74.8295,19.7241 72.4962,21.3908 70.5,23.5C 70.8333,22.1667 71.1667,20.8333 71.5,19.5C 71.8564,17.8102 72.8564,16.8102 74.5,16.5 Z"/></g>
<g><path style="opacity:0.998" fill="#8379fd" d="M 35.5,14.5 C 34.7888,16.0301 33.7888,17.3634 32.5,18.5C 27.213,19.3424 21.8797,19.6757 16.5,19.5C 16.8333,18.5 17.5,17.8333 18.5,17.5C 24.5769,18.1977 30.2435,17.1977 35.5,14.5 Z"/></g>
<g><path style="opacity:0.996" fill="#b97bfb" d="M 40.5,14.5 C 39.8333,16.1667 39.1667,17.8333 38.5,19.5C 38.8789,20.7241 41.5456,21.0574 46.5,20.5C 48.5,20.5 50.5,20.5 52.5,20.5C 55.1667,20.5 57.8333,20.5 60.5,20.5C 60.5,20.8333 60.5,21.1667 60.5,21.5C 50.8333,21.5 41.1667,21.5 31.5,21.5C 31.5,21.1667 31.5,20.8333 31.5,20.5C 32.5,19.8333 33.5,19.1667 34.5,18.5C 36.1274,16.5363 38.1274,15.203 40.5,14.5 Z"/></g>
<g><path style="opacity:0.98" fill="#e952e2" d="M 78.5,15.5 C 79.4584,15.9528 80.2917,16.6195 81,17.5C 81.3333,17.1667 81.6667,16.8333 82,16.5C 82.4696,17.5768 82.3029,18.5768 81.5,19.5C 81.5,20.8333 81.5,22.1667 81.5,23.5C 80.8333,23.5 80.5,23.1667 80.5,22.5C 79.5,21.1667 78.5,19.8333 77.5,18.5C 77.0269,17.0937 76.0269,16.427 74.5,16.5C 74.5,16.1667 74.5,15.8333 74.5,15.5C 75.6316,14.6457 76.965,14.6457 78.5,15.5 Z"/></g>
<g><path style="opacity:0.996" fill="#9475fc" d="M 32.5,18.5 C 33.1667,18.5 33.8333,18.5 34.5,18.5C 33.5,19.1667 32.5,19.8333 31.5,20.5C 29.5,20.5 27.5,20.5 25.5,20.5C 22.1667,20.5 18.8333,20.5 15.5,20.5C 15.5,19.8333 15.8333,19.5 16.5,19.5C 21.8797,19.6757 27.213,19.3424 32.5,18.5 Z"/></g>
<g><path style="opacity:0.998" fill="#e336e0" d="M 71.5,19.5 C 71.1667,20.8333 70.8333,22.1667 70.5,23.5C 70.1667,24.1667 69.8333,24.8333 69.5,25.5C 68.078,24.075 66.4113,23.075 64.5,22.5C 63.8333,22.5 63.5,22.1667 63.5,21.5C 64.8333,21.5 66.1667,21.5 67.5,21.5C 67.4346,21.9382 67.6012,22.2716 68,22.5C 68.7202,20.9443 69.8868,19.9443 71.5,19.5 Z"/></g>
<g><path style="opacity:0.998" fill="#e624d8" d="M 77.5,18.5 C 78.5,19.8333 79.5,21.1667 80.5,22.5C 77.8544,23.4866 75.1878,24.4866 72.5,25.5C 71.7025,25.9569 71.3691,26.6236 71.5,27.5C 70.5,27.1667 69.8333,26.5 69.5,25.5C 69.8333,24.8333 70.1667,24.1667 70.5,23.5C 72.4962,21.3908 74.8295,19.7241 77.5,18.5 Z"/></g>
<g><path style="opacity:0.998" fill="#9870fa" d="M 13.5,20.5 C 14.1667,20.5 14.8333,20.5 15.5,20.5C 18.8333,20.5 22.1667,20.5 25.5,20.5C 22.1667,21.1667 18.8333,21.8333 15.5,22.5C 14.5084,22.3284 13.8417,22.6618 13.5,23.5C 13.1667,23.5 12.8333,23.5 12.5,23.5C 12.5569,22.391 12.8902,21.391 13.5,20.5 Z"/></g>
<g><path style="opacity:0.016" fill="#e48ae2" d="M 83.5,21.5 C 83.369,20.7611 83.5357,20.0944 84,19.5C 84.6917,20.4368 84.525,21.1034 83.5,21.5 Z"/></g>
<g><path style="opacity:0.012" fill="#c592fd" d="M 10.5,23.5 C 9.42654,22.7494 9.25988,21.7494 10,20.5C 10.4828,21.448 10.6495,22.448 10.5,23.5 Z"/></g>
<g><path style="opacity:0.996" fill="#9b6dfa" d="M 25.5,20.5 C 27.5,20.5 29.5,20.5 31.5,20.5C 31.5,20.8333 31.5,21.1667 31.5,21.5C 30.5084,21.3284 29.8417,21.6618 29.5,22.5C 28.8333,22.5 28.1667,22.5 27.5,22.5C 23.5,22.5 19.5,22.5 15.5,22.5C 18.8333,21.8333 22.1667,21.1667 25.5,20.5 Z"/></g>
<g><path style="opacity:0.997" fill="#a468f7" d="M 13.5,23.5 C 13.8417,22.6618 14.5084,22.3284 15.5,22.5C 19.5,22.5 23.5,22.5 27.5,22.5C 26.8333,23.8333 25.8333,24.8333 24.5,25.5C 21.1552,23.783 17.4885,23.1164 13.5,23.5 Z"/></g>
<g><path style="opacity:0.995" fill="#ebe3f1" d="M 51.5,22.5 C 54.5,23.1667 57.5,23.8333 60.5,24.5C 55.5,24.5 50.5,24.5 45.5,24.5C 44.7375,23.7321 43.7375,23.2321 42.5,23C 45.4816,22.502 48.4816,22.3354 51.5,22.5 Z"/></g>
<g><path style="opacity:0.995" fill="#e9dfed" d="M 61.5,21.5 C 62.1667,21.5 62.8333,21.5 63.5,21.5C 63.5,22.1667 63.8333,22.5 64.5,22.5C 64.1436,24.1898 63.1436,25.1898 61.5,25.5C 61.1667,25.5 60.8333,25.5 60.5,25.5C 60.5,25.1667 60.5,24.8333 60.5,24.5C 57.5,23.8333 54.5,23.1667 51.5,22.5C 55.0419,22.8128 58.3752,22.4794 61.5,21.5 Z"/></g>
<g><path style="opacity:0.998" fill="#ea1dd1" d="M 80.5,22.5 C 80.5,23.1667 80.8333,23.5 81.5,23.5C 81.5,23.8333 81.5,24.1667 81.5,24.5C 80.8386,25.7175 80.1719,27.0508 79.5,28.5C 77.3569,27.2463 75.3569,27.2463 73.5,28.5C 72.8333,28.5 72.1667,28.5 71.5,28.5C 71.5,28.1667 71.5,27.8333 71.5,27.5C 71.3691,26.6236 71.7025,25.9569 72.5,25.5C 75.1878,24.4866 77.8544,23.4866 80.5,22.5 Z"/></g>
<g><path style="opacity:0.996" fill="#f1ecf6" d="M 27.5,22.5 C 28.1667,22.5 28.8333,22.5 29.5,22.5C 30.2389,22.369 30.9056,22.5357 31.5,23C 30.5842,23.2784 29.9175,23.7784 29.5,24.5C 29.5,25.5 29.5,26.5 29.5,27.5C 26.2624,25.7032 24.2624,26.7032 23.5,30.5C 22.794,31.5573 22.4607,31.2239 22.5,29.5C 22.5,29.1667 22.5,28.8333 22.5,28.5C 23.3382,28.1583 23.6716,27.4916 23.5,26.5C 24.1667,26.5 24.5,26.1667 24.5,25.5C 25.8333,24.8333 26.8333,23.8333 27.5,22.5 Z"/></g>
<g><path style="opacity:0.997" fill="#f0eef6" d="M 29.5,22.5 C 29.8417,21.6618 30.5084,21.3284 31.5,21.5C 41.1667,21.5 50.8333,21.5 60.5,21.5C 60.8333,21.5 61.1667,21.5 61.5,21.5C 58.3752,22.4794 55.0419,22.8128 51.5,22.5C 48.4816,22.3354 45.4816,22.502 42.5,23C 43.7375,23.2321 44.7375,23.7321 45.5,24.5C 40.1667,24.5 34.8333,24.5 29.5,24.5C 29.9175,23.7784 30.5842,23.2784 31.5,23C 30.9056,22.5357 30.2389,22.369 29.5,22.5 Z"/></g>
<g><path style="opacity:0.997" fill="#ac62ed" d="M 10.5,23.5 C 10.8333,23.5 11.1667,23.5 11.5,23.5C 11.8333,23.5 12.1667,23.5 12.5,23.5C 12.8333,23.5 13.1667,23.5 13.5,23.5C 17.4885,23.1164 21.1552,23.783 24.5,25.5C 24.5,26.1667 24.1667,26.5 23.5,26.5C 20.6743,25.6575 17.6743,24.9908 14.5,24.5C 13.5836,24.5427 12.9169,24.8761 12.5,25.5C 11.596,26.209 11.2627,27.209 11.5,28.5C 11.5,28.8333 11.5,29.1667 11.5,29.5C 11.1667,29.5 10.8333,29.5 10.5,29.5C 10.5,27.5 10.5,25.5 10.5,23.5 Z"/></g>
<g><path style="opacity:0.991" fill="#dbd0e2" d="M 29.5,24.5 C 34.8333,24.5 40.1667,24.5 45.5,24.5C 50.5,24.5 55.5,24.5 60.5,24.5C 60.5,24.8333 60.5,25.1667 60.5,25.5C 50.985,25.1731 41.6517,25.5064 32.5,26.5C 31.391,26.5569 30.391,26.8902 29.5,27.5C 29.5,26.5 29.5,25.5 29.5,24.5 Z"/></g>
<g><path style="opacity:0.998" fill="#b45df1" d="M 12.5,25.5 C 12.9169,24.8761 13.5836,24.5427 14.5,24.5C 17.6743,24.9908 20.6743,25.6575 23.5,26.5C 23.6716,27.4916 23.3382,28.1583 22.5,28.5C 19.1995,27.7158 15.8661,26.7158 12.5,25.5 Z"/></g>
<g><path style="opacity:0.996" fill="#e4d4e6" d="M 64.5,22.5 C 66.4113,23.075 68.078,24.075 69.5,25.5C 69.8333,26.5 70.5,27.1667 71.5,27.5C 71.5,27.8333 71.5,28.1667 71.5,28.5C 69.9826,28.4894 68.8159,27.8228 68,26.5C 67.3292,27.2524 66.4959,27.5858 65.5,27.5C 63.847,27.3404 62.5137,26.6737 61.5,25.5C 63.1436,25.1898 64.1436,24.1898 64.5,22.5 Z"/></g>
<g><path style="opacity:0.995" fill="#e0d5e7" d="M 29.5,27.5 C 29.1667,28.1667 28.8333,28.8333 28.5,29.5C 27.8333,29.5 27.5,29.8333 27.5,30.5C 26.6618,30.8417 26.3284,31.5084 26.5,32.5C 26.1667,32.5 25.8333,32.5 25.5,32.5C 25.5,31.8333 25.1667,31.5 24.5,31.5C 24.5,30.8333 24.1667,30.5 23.5,30.5C 24.2624,26.7032 26.2624,25.7032 29.5,27.5 Z"/></g>
<g><path style="opacity:0.998" fill="#ba54ed" d="M 12.5,25.5 C 15.8661,26.7158 19.1995,27.7158 22.5,28.5C 18.6839,28.2126 15.0173,28.2126 11.5,28.5C 11.2627,27.209 11.596,26.209 12.5,25.5 Z"/></g>
<g><path style="opacity:0.995" fill="#7826a1" d="M 32.5,26.5 C 36.5,26.5 40.5,26.5 44.5,26.5C 43.791,27.404 42.791,27.7373 41.5,27.5C 37.127,27.9817 32.7936,28.6484 28.5,29.5C 28.8333,28.8333 29.1667,28.1667 29.5,27.5C 30.391,26.8902 31.391,26.5569 32.5,26.5 Z"/></g>
<g><path style="opacity:0.997" fill="#ea1cca" d="M 81.5,24.5 C 81.8134,27.2469 81.48,29.9135 80.5,32.5C 77.9409,31.3924 75.6076,30.0591 73.5,28.5C 75.3569,27.2463 77.3569,27.2463 79.5,28.5C 80.1719,27.0508 80.8386,25.7175 81.5,24.5 Z"/></g>
<g><path style="opacity:0.998" fill="#c250e9" d="M 22.5,28.5 C 22.5,28.8333 22.5,29.1667 22.5,29.5C 22.1667,29.5 21.8333,29.5 21.5,29.5C 18.272,30.4137 14.9387,30.7471 11.5,30.5C 11.5,30.1667 11.5,29.8333 11.5,29.5C 11.5,29.1667 11.5,28.8333 11.5,28.5C 15.0173,28.2126 18.6839,28.2126 22.5,28.5 Z"/></g>
<g><path style="opacity:1" fill="#8d2195" d="M 44.5,26.5 C 47.8499,26.335 51.1832,26.5017 54.5,27C 52.5087,27.3736 50.842,28.207 49.5,29.5C 48.5,29.5 47.5,29.5 46.5,29.5C 44.5,29.5 42.5,29.5 40.5,29.5C 40.1667,29.5 39.8333,29.5 39.5,29.5C 40.1667,28.8333 40.8333,28.1667 41.5,27.5C 42.791,27.7373 43.791,27.404 44.5,26.5 Z"/></g>
<g><path style="opacity:1" fill="#a13493" d="M 32.5,26.5 C 41.6517,25.5064 50.985,25.1731 60.5,25.5C 60.8333,25.5 61.1667,25.5 61.5,25.5C 62.5137,26.6737 63.847,27.3404 65.5,27.5C 65.8333,28.1667 66.1667,28.8333 66.5,29.5C 65.8333,29.5 65.5,29.8333 65.5,30.5C 63.9582,29.6993 62.2915,29.366 60.5,29.5C 58.5,29.5 56.5,29.5 54.5,29.5C 52.8333,29.5 51.1667,29.5 49.5,29.5C 50.842,28.207 52.5087,27.3736 54.5,27C 51.1832,26.5017 47.8499,26.335 44.5,26.5C 40.5,26.5 36.5,26.5 32.5,26.5 Z"/></g>
<g><path style="opacity:0.994" fill="#e2d0dd" d="M 71.5,28.5 C 72.1098,29.391 72.4431,30.391 72.5,31.5C 72.5,41.5 72.5,51.5 72.5,61.5C 72.5,61.8333 72.5,62.1667 72.5,62.5C 72.1667,62.5 71.8333,62.5 71.5,62.5C 70.6864,57.8809 70.3531,53.2142 70.5,48.5C 70.6659,43.4889 70.4993,38.4889 70,33.5C 69.8413,31.6573 69.3413,30.9907 68.5,31.5C 67.5,31.1667 66.8333,30.5 66.5,29.5C 66.1667,28.8333 65.8333,28.1667 65.5,27.5C 66.4959,27.5858 67.3292,27.2524 68,26.5C 68.8159,27.8228 69.9826,28.4894 71.5,28.5 Z"/></g>
<g><path style="opacity:1" fill="#8328a2" d="M 41.5,27.5 C 40.8333,28.1667 40.1667,28.8333 39.5,29.5C 35.3258,29.3336 31.3258,30.0003 27.5,31.5C 27.5,31.1667 27.5,30.8333 27.5,30.5C 27.5,29.8333 27.8333,29.5 28.5,29.5C 32.7936,28.6484 37.127,27.9817 41.5,27.5 Z"/></g>
<g><path style="opacity:0.997" fill="#ca4ae2" d="M 21.5,29.5 C 21.5,30.5 21.5,31.5 21.5,32.5C 21.1667,32.5 20.8333,32.5 20.5,32.5C 17.5,32.5 14.5,32.5 11.5,32.5C 11.5,31.8333 11.5,31.1667 11.5,30.5C 14.9387,30.7471 18.272,30.4137 21.5,29.5 Z"/></g>
<g><path style="opacity:0.997" fill="#9429a3" d="M 39.5,29.5 C 39.8333,29.5 40.1667,29.5 40.5,29.5C 37.1027,31.0232 33.4361,32.0232 29.5,32.5C 28.5836,32.4573 27.9169,32.1239 27.5,31.5C 31.3258,30.0003 35.3258,29.3336 39.5,29.5 Z"/></g>
<g><path style="opacity:0.998" fill="#e41dbe" d="M 81.5,23.5 C 82.4834,27.2984 82.8168,31.2984 82.5,35.5C 82.1667,35.5 81.8333,35.5 81.5,35.5C 79.5786,34.6373 77.5786,33.9707 75.5,33.5C 74.8333,33.1667 74.1667,32.8333 73.5,32.5C 73.5,31.8333 73.1667,31.5 72.5,31.5C 72.4431,30.391 72.1098,29.391 71.5,28.5C 72.1667,28.5 72.8333,28.5 73.5,28.5C 75.6076,30.0591 77.9409,31.3924 80.5,32.5C 81.48,29.9135 81.8134,27.2469 81.5,24.5C 81.5,24.1667 81.5,23.8333 81.5,23.5 Z"/></g>
<g><path style="opacity:0.996" fill="#a12aa2" d="M 40.5,29.5 C 42.5,29.5 44.5,29.5 46.5,29.5C 45.3285,30.3446 43.9952,31.0113 42.5,31.5C 37.196,32.3839 31.8626,33.0506 26.5,33.5C 26.5,33.1667 26.5,32.8333 26.5,32.5C 26.3284,31.5084 26.6618,30.8417 27.5,30.5C 27.5,30.8333 27.5,31.1667 27.5,31.5C 27.9169,32.1239 28.5836,32.4573 29.5,32.5C 33.4361,32.0232 37.1027,31.0232 40.5,29.5 Z"/></g>
<g><path style="opacity:0.996" fill="#bf3d9e" d="M 54.5,29.5 C 56.5,29.5 58.5,29.5 60.5,29.5C 60.1667,30.1667 59.8333,30.8333 59.5,31.5C 56.4467,31.1107 53.78,31.7773 51.5,33.5C 51.1667,33.5 50.8333,33.5 50.5,33.5C 48.1667,33.5 45.8333,33.5 43.5,33.5C 47.3238,32.6264 50.9905,31.293 54.5,29.5 Z"/></g>
<g><path style="opacity:0.994" fill="#e0c9d9" d="M 60.5,29.5 C 62.2915,29.366 63.9582,29.6993 65.5,30.5C 65.5674,31.9587 65.2341,33.2921 64.5,34.5C 63.1667,34.5 61.8333,34.5 60.5,34.5C 60.1667,33.8333 59.8333,33.1667 59.5,32.5C 59.5,32.1667 59.5,31.8333 59.5,31.5C 59.8333,30.8333 60.1667,30.1667 60.5,29.5 Z"/></g>
<g><path style="opacity:0.995" fill="#e9ddec" d="M 21.5,29.5 C 21.8333,29.5 22.1667,29.5 22.5,29.5C 22.4607,31.2239 22.794,31.5573 23.5,30.5C 24.1667,30.5 24.5,30.8333 24.5,31.5C 24.7989,33.604 24.4656,35.604 23.5,37.5C 22.8281,36.0508 22.1614,34.7175 21.5,33.5C 21.5,33.1667 21.5,32.8333 21.5,32.5C 21.5,31.5 21.5,30.5 21.5,29.5 Z"/></g>
<g><path style="opacity:0.996" fill="#ae2299" d="M 46.5,29.5 C 47.5,29.5 48.5,29.5 49.5,29.5C 51.1667,29.5 52.8333,29.5 54.5,29.5C 50.9905,31.293 47.3238,32.6264 43.5,33.5C 42.8333,33.5 42.1667,33.5 41.5,33.5C 41.1667,33.5 40.8333,33.5 40.5,33.5C 41.1667,32.8333 41.8333,32.1667 42.5,31.5C 43.9952,31.0113 45.3285,30.3446 46.5,29.5 Z"/></g>
<g><path style="opacity:0.996" fill="#c3238f" d="M 59.5,31.5 C 59.5,31.8333 59.5,32.1667 59.5,32.5C 58.1283,33.5116 56.795,34.5116 55.5,35.5C 54.609,34.8902 53.609,34.5569 52.5,34.5C 52.5,33.8333 52.1667,33.5 51.5,33.5C 53.78,31.7773 56.4467,31.1107 59.5,31.5 Z"/></g>
<g><path style="opacity:0.998" fill="#d442d7" d="M 11.5,32.5 C 14.5,32.5 17.5,32.5 20.5,32.5C 20.5,33.5 20.5,34.5 20.5,35.5C 17.612,34.9221 14.612,34.9221 11.5,35.5C 11.5,34.5 11.5,33.5 11.5,32.5 Z"/></g>
<g><path style="opacity:0.998" fill="#ad2aa1" d="M 42.5,31.5 C 41.8333,32.1667 41.1667,32.8333 40.5,33.5C 35.8592,34.1266 31.1925,34.4599 26.5,34.5C 26.5,34.1667 26.5,33.8333 26.5,33.5C 31.8626,33.0506 37.196,32.3839 42.5,31.5 Z"/></g>
<g><path style="opacity:0.996" fill="#c01f74" d="M 66.5,29.5 C 66.8333,30.5 67.5,31.1667 68.5,31.5C 68.5,32.5 68.5,33.5 68.5,34.5C 68.5,34.8333 68.5,35.1667 68.5,35.5C 67.2921,34.7659 65.9587,34.4326 64.5,34.5C 65.2341,33.2921 65.5674,31.9587 65.5,30.5C 65.5,29.8333 65.8333,29.5 66.5,29.5 Z"/></g>
<g><path style="opacity:0.997" fill="#ba2c9c" d="M 40.5,33.5 C 40.8333,33.5 41.1667,33.5 41.5,33.5C 40.7095,34.4013 39.7095,35.0679 38.5,35.5C 35.843,35.8297 33.1764,36.163 30.5,36.5C 28.6672,36.4146 27.3339,35.7479 26.5,34.5C 31.1925,34.4599 35.8592,34.1266 40.5,33.5 Z"/></g>
<g><path style="opacity:0.996" fill="#c81e6a" d="M 60.5,34.5 C 61.8333,34.5 63.1667,34.5 64.5,34.5C 65.9587,34.4326 67.2921,34.7659 68.5,35.5C 68.5,36.1667 68.5,36.8333 68.5,37.5C 66.9668,36.5691 65.3002,35.9024 63.5,35.5C 62.2867,35.7472 61.62,36.4138 61.5,37.5C 60.5,37.8333 59.8333,38.5 59.5,39.5C 58.8333,39.5 58.5,39.1667 58.5,38.5C 59.6005,37.3951 60.2671,36.0618 60.5,34.5 Z"/></g>
<g><path style="opacity:0.999" fill="#e71cb8" d="M 75.5,33.5 C 77.5786,33.9707 79.5786,34.6373 81.5,35.5C 81.6567,36.8734 81.49,38.2068 81,39.5C 79.871,37.8588 78.371,36.8588 76.5,36.5C 76.4431,35.391 76.1098,34.391 75.5,33.5 Z"/></g>
<g><path style="opacity:0.996" fill="#e7e1e7" d="M 43.5,33.5 C 45.8333,33.5 48.1667,33.5 50.5,33.5C 48.7078,34.3091 46.7078,34.8091 44.5,35C 52.4728,35.8263 52.4728,36.3263 44.5,36.5C 43.7611,36.631 43.0944,36.4643 42.5,36C 43.2524,35.3292 43.5858,34.4959 43.5,33.5 Z"/></g>
<g><path style="opacity:0.992" fill="#dcbecc" d="M 50.5,33.5 C 50.8333,33.5 51.1667,33.5 51.5,33.5C 52.1667,33.5 52.5,33.8333 52.5,34.5C 52.4361,35.3652 52.1027,36.3652 51.5,37.5C 49.1667,37.5 46.8333,37.5 44.5,37.5C 44.5,37.1667 44.5,36.8333 44.5,36.5C 52.4728,36.3263 52.4728,35.8263 44.5,35C 46.7078,34.8091 48.7078,34.3091 50.5,33.5 Z"/></g>
<g><path style="opacity:0.996" fill="#cd2a7d" d="M 59.5,32.5 C 59.8333,33.1667 60.1667,33.8333 60.5,34.5C 60.2671,36.0618 59.6005,37.3951 58.5,38.5C 58.1667,38.5 57.8333,38.5 57.5,38.5C 56.8333,37.5 56.1667,36.5 55.5,35.5C 56.795,34.5116 58.1283,33.5116 59.5,32.5 Z"/></g>
<g><path style="opacity:0.998" fill="#d53fc7" d="M 10.5,29.5 C 10.8333,29.5 11.1667,29.5 11.5,29.5C 11.5,29.8333 11.5,30.1667 11.5,30.5C 11.5,31.1667 11.5,31.8333 11.5,32.5C 11.5,33.5 11.5,34.5 11.5,35.5C 14.612,34.9221 17.612,34.9221 20.5,35.5C 20.5,35.8333 20.5,36.1667 20.5,36.5C 17.9908,37.1131 15.4908,37.7798 13,38.5C 12.6667,37.8333 12.3333,37.1667 12,36.5C 11.6012,36.7284 11.4346,37.0618 11.5,37.5C 11.1667,37.5 10.8333,37.5 10.5,37.5C 10.5,34.8333 10.5,32.1667 10.5,29.5 Z"/></g>
<g><path style="opacity:0.999" fill="#c33e98" d="M 25.5,32.5 C 25.8333,32.5 26.1667,32.5 26.5,32.5C 26.5,32.8333 26.5,33.1667 26.5,33.5C 26.5,33.8333 26.5,34.1667 26.5,34.5C 27.3339,35.7479 28.6672,36.4146 30.5,36.5C 33.1764,36.163 35.843,35.8297 38.5,35.5C 38.1667,36.5 37.5,37.1667 36.5,37.5C 33.1667,37.5 29.8333,37.5 26.5,37.5C 26.5,38.5 26.5,39.5 26.5,40.5C 26.1667,40.5 25.8333,40.5 25.5,40.5C 25.5,37.8333 25.5,35.1667 25.5,32.5 Z"/></g>
<g><path style="opacity:0.992" fill="#e8dbe4" d="M 41.5,33.5 C 42.1667,33.5 42.8333,33.5 43.5,33.5C 43.5858,34.4959 43.2524,35.3292 42.5,36C 43.0944,36.4643 43.7611,36.631 44.5,36.5C 44.5,36.8333 44.5,37.1667 44.5,37.5C 43.391,37.5569 42.391,37.8902 41.5,38.5C 39.1939,37.2154 37.3606,37.8821 36,40.5C 35.6012,40.2716 35.4346,39.9382 35.5,39.5C 35.8333,38.8333 36.1667,38.1667 36.5,37.5C 37.5,37.1667 38.1667,36.5 38.5,35.5C 39.7095,35.0679 40.7095,34.4013 41.5,33.5 Z"/></g>
<g><path style="opacity:0.995" fill="#e1ced7" d="M 52.5,34.5 C 53.609,34.5569 54.609,34.8902 55.5,35.5C 56.1667,36.5 56.8333,37.5 57.5,38.5C 56.7659,39.7079 56.4326,41.0413 56.5,42.5C 55.8333,42.5 55.5,42.1667 55.5,41.5C 55.1667,40.5 54.5,39.8333 53.5,39.5C 52.8333,38.8333 52.1667,38.1667 51.5,37.5C 52.1027,36.3652 52.4361,35.3652 52.5,34.5 Z"/></g>
<g><path style="opacity:0.996" fill="#c91761" d="M 68.5,37.5 C 68.5,38.5 68.5,39.5 68.5,40.5C 67.0087,37.9093 64.6753,36.9093 61.5,37.5C 61.62,36.4138 62.2867,35.7472 63.5,35.5C 65.3002,35.9024 66.9668,36.5691 68.5,37.5 Z"/></g>
<g><path style="opacity:0.996" fill="#da1897" d="M 73.5,32.5 C 74.1667,32.8333 74.8333,33.1667 75.5,33.5C 76.1098,34.391 76.4431,35.391 76.5,36.5C 77.9208,39.3431 79.9208,40.6764 82.5,40.5C 82.6621,42.5273 82.4955,44.5273 82,46.5C 79.1506,43.4257 76.3172,40.4257 73.5,37.5C 73.5,35.8333 73.5,34.1667 73.5,32.5 Z"/></g>
<g><path style="opacity:0.996" fill="#df1aa7" d="M 81.5,35.5 C 81.8333,35.5 82.1667,35.5 82.5,35.5C 82.5,37.1667 82.5,38.8333 82.5,40.5C 79.9208,40.6764 77.9208,39.3431 76.5,36.5C 78.371,36.8588 79.871,37.8588 81,39.5C 81.49,38.2068 81.6567,36.8734 81.5,35.5 Z"/></g>
<g><path style="opacity:0.584" fill="#c42f9e" d="M 81.5,19.5 C 82.1667,20.1667 82.8333,20.8333 83.5,21.5C 83.5,27.8333 83.5,34.1667 83.5,40.5C 83.1667,40.5 82.8333,40.5 82.5,40.5C 82.5,38.8333 82.5,37.1667 82.5,35.5C 82.8168,31.2984 82.4834,27.2984 81.5,23.5C 81.5,22.1667 81.5,20.8333 81.5,19.5 Z"/></g>
<g><path style="opacity:0.997" fill="#e33abf" d="M 20.5,36.5 C 20.5,37.5 20.5,38.5 20.5,39.5C 18.0799,39.2924 15.7466,39.6258 13.5,40.5C 12.0815,39.9953 11.4148,38.9953 11.5,37.5C 11.4346,37.0618 11.6012,36.7284 12,36.5C 12.3333,37.1667 12.6667,37.8333 13,38.5C 15.4908,37.7798 17.9908,37.1131 20.5,36.5 Z"/></g>
<g><path style="opacity:0.998" fill="#cb2a84" d="M 36.5,37.5 C 36.1667,38.1667 35.8333,38.8333 35.5,39.5C 34.8333,39.5 34.5,39.8333 34.5,40.5C 31.8333,40.5 29.1667,40.5 26.5,40.5C 26.5,39.5 26.5,38.5 26.5,37.5C 29.8333,37.5 33.1667,37.5 36.5,37.5 Z"/></g>
<g><path style="opacity:0.996" fill="#b72049" d="M 44.5,37.5 C 46.8333,37.5 49.1667,37.5 51.5,37.5C 52.1667,38.1667 52.8333,38.8333 53.5,39.5C 53.1667,39.5 52.8333,39.5 52.5,39.5C 48.8333,39.5 45.1667,39.5 41.5,39.5C 41.5,39.1667 41.5,38.8333 41.5,38.5C 42.391,37.8902 43.391,37.5569 44.5,37.5 Z"/></g>
<g><path style="opacity:0.998" fill="#d71d64" d="M 61.5,37.5 C 64.6753,36.9093 67.0087,37.9093 68.5,40.5C 68.5,41.8333 68.5,43.1667 68.5,44.5C 67.8333,43.5 67.1667,42.5 66.5,41.5C 65.8658,40.0532 64.6991,39.3866 63,39.5C 61.9302,39.528 61.0968,39.8614 60.5,40.5C 60.5,40.8333 60.5,41.1667 60.5,41.5C 59.6618,41.1583 59.3284,40.4916 59.5,39.5C 59.8333,38.5 60.5,37.8333 61.5,37.5 Z"/></g>
<g><path style="opacity:1" fill="#c01b44" d="M 41.5,39.5 C 45.1667,39.5 48.8333,39.5 52.5,39.5C 48.3066,40.2827 43.9732,40.9494 39.5,41.5C 39.8333,40.5 40.5,39.8333 41.5,39.5 Z"/></g>
<g><path style="opacity:0.998" fill="#e21c67" d="M 60.5,40.5 C 61.0968,39.8614 61.9302,39.528 63,39.5C 64.6991,39.3866 65.8658,40.0532 66.5,41.5C 66.6495,42.552 66.4828,43.552 66,44.5C 64.2884,42.9485 62.455,41.6151 60.5,40.5 Z"/></g>
<g><path style="opacity:0.996" fill="#e745b0" d="M 20.5,32.5 C 20.8333,32.5 21.1667,32.5 21.5,32.5C 21.5,32.8333 21.5,33.1667 21.5,33.5C 21.5,36.8333 21.5,40.1667 21.5,43.5C 21.1667,43.5 20.8333,43.5 20.5,43.5C 17.6727,42.6317 14.6727,42.6317 11.5,43.5C 11.6716,42.5084 11.3382,41.8417 10.5,41.5C 10.5,40.1667 10.5,38.8333 10.5,37.5C 10.8333,37.5 11.1667,37.5 11.5,37.5C 11.4148,38.9953 12.0815,39.9953 13.5,40.5C 15.7466,39.6258 18.0799,39.2924 20.5,39.5C 20.5,38.5 20.5,37.5 20.5,36.5C 20.5,36.1667 20.5,35.8333 20.5,35.5C 20.5,34.5 20.5,33.5 20.5,32.5 Z"/></g>
<g><path style="opacity:0.994" fill="#e8dce4" d="M 24.5,31.5 C 25.1667,31.5 25.5,31.8333 25.5,32.5C 25.5,35.1667 25.5,37.8333 25.5,40.5C 25.5,41.5 25.5,42.5 25.5,43.5C 24.5,43.5 23.5,43.5 22.5,43.5C 22.5,44.8333 22.5,46.1667 22.5,47.5C 22.5,50.5 22.5,53.5 22.5,56.5C 22.7678,58.099 22.4345,59.4324 21.5,60.5C 21.5,57.8333 21.5,55.1667 21.5,52.5C 21.5,49.5 21.5,46.5 21.5,43.5C 21.5,40.1667 21.5,36.8333 21.5,33.5C 22.1614,34.7175 22.8281,36.0508 23.5,37.5C 24.4656,35.604 24.7989,33.604 24.5,31.5 Z"/></g>
<g><path style="opacity:0.998" fill="#d52a72" d="M 26.5,40.5 C 29.1667,40.5 31.8333,40.5 34.5,40.5C 34.5,40.8333 34.5,41.1667 34.5,41.5C 34.1667,41.5 33.8333,41.5 33.5,41.5C 30.6904,43.178 28.357,42.8447 26.5,40.5 Z"/></g>
<g><path style="opacity:0.994" fill="#e0c6d1" d="M 41.5,38.5 C 41.5,38.8333 41.5,39.1667 41.5,39.5C 40.5,39.8333 39.8333,40.5 39.5,41.5C 38.8333,41.5 38.5,41.8333 38.5,42.5C 38.1667,42.5 37.8333,42.5 37.5,42.5C 36.609,41.8902 35.609,41.5569 34.5,41.5C 34.5,41.1667 34.5,40.8333 34.5,40.5C 34.5,39.8333 34.8333,39.5 35.5,39.5C 35.4346,39.9382 35.6012,40.2716 36,40.5C 37.3606,37.8821 39.1939,37.2154 41.5,38.5 Z"/></g>
<g><path style="opacity:0.997" fill="#c82143" d="M 52.5,39.5 C 52.8333,39.5 53.1667,39.5 53.5,39.5C 54.5,39.8333 55.1667,40.5 55.5,41.5C 54.8333,41.8333 54.1667,42.1667 53.5,42.5C 48.6656,41.5744 43.6656,41.5744 38.5,42.5C 38.5,41.8333 38.8333,41.5 39.5,41.5C 43.9732,40.9494 48.3066,40.2827 52.5,39.5 Z"/></g>
<g><path style="opacity:0.996" fill="#e24d66" d="M 25.5,40.5 C 25.8333,40.5 26.1667,40.5 26.5,40.5C 28.357,42.8447 30.6904,43.178 33.5,41.5C 33.5,44.1667 33.5,46.8333 33.5,49.5C 32.8333,49.5 32.5,49.1667 32.5,48.5C 32.5,47.8333 32.5,47.1667 32.5,46.5C 32.5,45.5 32.5,44.5 32.5,43.5C 30.5,43.5 28.5,43.5 26.5,43.5C 26.5,44.5 26.5,45.5 26.5,46.5C 26.5,48.5 26.5,50.5 26.5,52.5C 26.5,55.1667 26.5,57.8333 26.5,60.5C 26.1667,60.5 25.8333,60.5 25.5,60.5C 25.5,54.8333 25.5,49.1667 25.5,43.5C 25.5,42.5 25.5,41.5 25.5,40.5 Z"/></g>
<g><path style="opacity:1" fill="#d3213f" d="M 53.5,42.5 C 48.1363,43.036 42.803,43.7027 37.5,44.5C 37.5,43.8333 37.5,43.1667 37.5,42.5C 37.8333,42.5 38.1667,42.5 38.5,42.5C 43.6656,41.5744 48.6656,41.5744 53.5,42.5 Z"/></g>
<g><path style="opacity:0.998" fill="#e72064" d="M 60.5,40.5 C 62.455,41.6151 64.2884,42.9485 66,44.5C 66.4828,43.552 66.6495,42.552 66.5,41.5C 67.1667,42.5 67.8333,43.5 68.5,44.5C 68.5,45.5 68.5,46.5 68.5,47.5C 67.7784,47.0825 67.2784,46.4158 67,45.5C 65.7012,45.9662 64.2012,45.9662 62.5,45.5C 62.7535,43.5992 62.4202,42.9326 61.5,43.5C 61.1667,43.5 60.8333,43.5 60.5,43.5C 60.5,42.8333 60.5,42.1667 60.5,41.5C 60.5,41.1667 60.5,40.8333 60.5,40.5 Z"/></g>
<g><path style="opacity:0.996" fill="#d61b86" d="M 73.5,37.5 C 76.3172,40.4257 79.1506,43.4257 82,46.5C 82.4955,44.5273 82.6621,42.5273 82.5,40.5C 82.8333,40.5 83.1667,40.5 83.5,40.5C 83.5,43.8333 83.5,47.1667 83.5,50.5C 83.1667,50.5 82.8333,50.5 82.5,50.5C 81.9181,49.0689 81.0848,47.7356 80,46.5C 79.3292,45.7476 78.4959,45.4142 77.5,45.5C 74.8633,43.5182 73.53,40.8515 73.5,37.5 Z"/></g>
<g><path style="opacity:0.997" fill="#f3348f" d="M 20.5,43.5 C 20.5299,44.4972 20.0299,45.1639 19,45.5C 16.5661,46.3223 14.0661,46.6556 11.5,46.5C 11.5,45.5 11.5,44.5 11.5,43.5C 14.6727,42.6317 17.6727,42.6317 20.5,43.5 Z"/></g>
<g><path style="opacity:0.996" fill="#e7d5dd" d="M 33.5,41.5 C 33.8333,41.5 34.1667,41.5 34.5,41.5C 35.609,41.5569 36.609,41.8902 37.5,42.5C 37.5,43.1667 37.5,43.8333 37.5,44.5C 36.6981,45.9516 36.1981,47.6183 36,49.5C 35.6667,47.8333 35.3333,46.1667 35,44.5C 34.8019,46.3817 34.3019,48.0484 33.5,49.5C 33.5,46.8333 33.5,44.1667 33.5,41.5 Z"/></g>
<g><path style="opacity:0.999" fill="#da1e39" d="M 55.5,41.5 C 55.5,42.1667 55.8333,42.5 56.5,42.5C 56.5,43.1667 56.5,43.8333 56.5,44.5C 55.6618,44.8417 55.3284,45.5084 55.5,46.5C 51.8131,44.6571 47.8131,43.9905 43.5,44.5C 41.6208,45.3414 39.6208,45.6747 37.5,45.5C 37.5,45.1667 37.5,44.8333 37.5,44.5C 42.803,43.7027 48.1363,43.036 53.5,42.5C 54.1667,42.1667 54.8333,41.8333 55.5,41.5 Z"/></g>
<g><path style="opacity:0.998" fill="#e41f36" d="M 43.5,44.5 C 47.8131,43.9905 51.8131,44.6571 55.5,46.5C 55.5912,48.6977 54.9245,49.0311 53.5,47.5C 50.2644,46.1347 46.9311,45.1347 43.5,44.5 Z"/></g>
<g><path style="opacity:0.995" fill="#e4d1da" d="M 57.5,38.5 C 57.8333,38.5 58.1667,38.5 58.5,38.5C 58.5,39.1667 58.8333,39.5 59.5,39.5C 59.3284,40.4916 59.6618,41.1583 60.5,41.5C 60.5,42.1667 60.5,42.8333 60.5,43.5C 60.5,45.8333 60.5,48.1667 60.5,50.5C 59.209,50.7373 58.209,50.404 57.5,49.5C 57.7845,47.5853 57.4511,45.9187 56.5,44.5C 56.5,43.8333 56.5,43.1667 56.5,42.5C 56.4326,41.0413 56.7659,39.7079 57.5,38.5 Z"/></g>
<g><path style="opacity:1" fill="#d84d86" d="M 72.5,31.5 C 73.1667,31.5 73.5,31.8333 73.5,32.5C 73.5,34.1667 73.5,35.8333 73.5,37.5C 73.53,40.8515 74.8633,43.5182 77.5,45.5C 77.8333,46.8333 78.1667,48.1667 78.5,49.5C 77.0002,48.4125 75.6669,47.0792 74.5,45.5C 73.5713,46.6888 73.238,48.0222 73.5,49.5C 73.5,51.5 73.5,53.5 73.5,55.5C 73.7947,57.7354 73.4614,59.7354 72.5,61.5C 72.5,51.5 72.5,41.5 72.5,31.5 Z"/></g>
<g><path style="opacity:0.999" fill="#e42547" d="M 32.5,46.5 C 30.5,47.8333 28.5,47.8333 26.5,46.5C 26.5,45.5 26.5,44.5 26.5,43.5C 28.5,43.5 30.5,43.5 32.5,43.5C 32.5,44.5 32.5,45.5 32.5,46.5 Z"/></g>
<g><path style="opacity:0.995" fill="#e6c2c9" d="M 37.5,44.5 C 37.5,44.8333 37.5,45.1667 37.5,45.5C 37.5,45.8333 37.5,46.1667 37.5,46.5C 37.5,47.8333 37.5,49.1667 37.5,50.5C 36.7777,51.5511 35.7777,52.2178 34.5,52.5C 34.5,51.8333 34.1667,51.5 33.5,51.5C 33.5,50.8333 33.5,50.1667 33.5,49.5C 34.3019,48.0484 34.8019,46.3817 35,44.5C 35.3333,46.1667 35.6667,47.8333 36,49.5C 36.1981,47.6183 36.6981,45.9516 37.5,44.5 Z"/></g>
<g><path style="opacity:1" fill="#e62132" d="M 43.5,44.5 C 46.9311,45.1347 50.2644,46.1347 53.5,47.5C 51.5,47.5 49.5,47.5 47.5,47.5C 45.8333,46.1667 44.1667,46.1667 42.5,47.5C 40.7085,47.634 39.0418,47.3007 37.5,46.5C 37.5,46.1667 37.5,45.8333 37.5,45.5C 39.6208,45.6747 41.6208,45.3414 43.5,44.5 Z"/></g>
<g><path style="opacity:0.998" fill="#f54277" d="M 10.5,41.5 C 11.3382,41.8417 11.6716,42.5084 11.5,43.5C 11.5,44.5 11.5,45.5 11.5,46.5C 14.0661,46.6556 16.5661,46.3223 19,45.5C 20.0299,45.1639 20.5299,44.4972 20.5,43.5C 20.8333,43.5 21.1667,43.5 21.5,43.5C 21.5,46.5 21.5,49.5 21.5,52.5C 21.1667,52.5 20.8333,52.5 20.5,52.5C 20.5,51.8333 20.5,51.1667 20.5,50.5C 20.5,49.8333 20.5,49.1667 20.5,48.5C 20.631,47.7611 20.4643,47.0944 20,46.5C 17.3788,47.9915 14.5455,48.6582 11.5,48.5C 11.5,47.8333 11.1667,47.5 10.5,47.5C 10.5,45.5 10.5,43.5 10.5,41.5 Z"/></g>
<g><path style="opacity:0.996" fill="#eb1f50" d="M 62.5,45.5 C 63.4006,47.7271 65.0672,48.7271 67.5,48.5C 67.5,49.8333 67.5,51.1667 67.5,52.5C 65.5441,50.8861 63.5441,49.2194 61.5,47.5C 61.5,46.1667 61.5,44.8333 61.5,43.5C 62.4202,42.9326 62.7535,43.5992 62.5,45.5 Z"/></g>
<g><path style="opacity:1" fill="#ec245e" d="M 62.5,45.5 C 64.2012,45.9662 65.7012,45.9662 67,45.5C 67.2784,46.4158 67.7784,47.0825 68.5,47.5C 68.5,49.1667 68.5,50.8333 68.5,52.5C 68.1667,52.5 67.8333,52.5 67.5,52.5C 67.5,51.1667 67.5,49.8333 67.5,48.5C 65.0672,48.7271 63.4006,47.7271 62.5,45.5 Z"/></g>
<g><path style="opacity:0.996" fill="#e3d6df" d="M 70.5,48.5 C 69.8333,43.8333 69.1667,39.1667 68.5,34.5C 68.5,33.5 68.5,32.5 68.5,31.5C 69.3413,30.9907 69.8413,31.6573 70,33.5C 70.4993,38.4889 70.6659,43.4889 70.5,48.5 Z"/></g>
<g><path style="opacity:0.999" fill="#f02a2f" d="M 42.5,47.5 C 44.1667,46.1667 45.8333,46.1667 47.5,47.5C 50.145,49.3104 53.145,50.3104 56.5,50.5C 56.5,50.8333 56.5,51.1667 56.5,51.5C 55.5275,53.1392 54.1942,54.4726 52.5,55.5C 52.0679,54.2905 51.4013,53.2905 50.5,52.5C 48.2063,50.347 45.5396,48.6803 42.5,47.5 Z"/></g>
<g><path style="opacity:0.998" fill="#e83039" d="M 56.5,44.5 C 57.4511,45.9187 57.7845,47.5853 57.5,49.5C 56.8333,49.5 56.5,49.8333 56.5,50.5C 53.145,50.3104 50.145,49.3104 47.5,47.5C 49.5,47.5 51.5,47.5 53.5,47.5C 54.9245,49.0311 55.5912,48.6977 55.5,46.5C 55.3284,45.5084 55.6618,44.8417 56.5,44.5 Z"/></g>
<g><path style="opacity:0.998" fill="#dd1c6b" d="M 78.5,49.5 C 79.1667,52.8333 79.8333,56.1667 80.5,59.5C 78.6701,57.1737 77.3367,54.507 76.5,51.5C 76.0431,50.7025 75.3764,50.3691 74.5,50.5C 74.5,49.8333 74.1667,49.5 73.5,49.5C 73.238,48.0222 73.5713,46.6888 74.5,45.5C 75.6669,47.0792 77.0002,48.4125 78.5,49.5 Z"/></g>
<g><path style="opacity:0.996" fill="#fc3161" d="M 20.5,48.5 C 19.609,49.1098 18.609,49.4431 17.5,49.5C 15.9397,49.5191 14.4397,49.8524 13,50.5C 11.9701,50.1639 11.4701,49.4972 11.5,48.5C 14.5455,48.6582 17.3788,47.9915 20,46.5C 20.4643,47.0944 20.631,47.7611 20.5,48.5 Z"/></g>
<g><path style="opacity:0.993" fill="#ebd4d9" d="M 22.5,47.5 C 23.2216,47.9175 23.7216,48.5842 24,49.5C 24.4974,52.146 24.6641,54.8127 24.5,57.5C 23.8333,57.1667 23.1667,56.8333 22.5,56.5C 22.5,53.5 22.5,50.5 22.5,47.5 Z"/></g>
<g><path style="opacity:0.999" fill="#ef2a29" d="M 37.5,46.5 C 39.0418,47.3007 40.7085,47.634 42.5,47.5C 45.5396,48.6803 48.2063,50.347 50.5,52.5C 48.5,52.5 46.5,52.5 44.5,52.5C 41.6566,49.4234 40.3232,50.0901 40.5,54.5C 39.5116,53.205 38.5116,51.8717 37.5,50.5C 37.5,49.1667 37.5,47.8333 37.5,46.5 Z"/></g>
<g><path style="opacity:0.996" fill="#ead1d9" d="M 68.5,34.5 C 69.1667,39.1667 69.8333,43.8333 70.5,48.5C 70.3531,53.2142 70.6864,57.8809 71.5,62.5C 69.3175,63.2997 67.6508,64.7997 66.5,67C 67.2524,67.6708 67.5858,68.5041 67.5,69.5C 67.5,70.1667 67.1667,70.5 66.5,70.5C 65.791,69.596 64.791,69.2627 63.5,69.5C 63.1583,68.6618 62.4916,68.3284 61.5,68.5C 61.5,68.1667 61.5,67.8333 61.5,67.5C 62.609,67.4431 63.609,67.1098 64.5,66.5C 65.1667,66.5 65.5,66.1667 65.5,65.5C 66.9063,65.0269 67.573,64.0269 67.5,62.5C 67.5,62.1667 67.5,61.8333 67.5,61.5C 68.4767,58.7131 68.81,55.7131 68.5,52.5C 68.5,50.8333 68.5,49.1667 68.5,47.5C 68.5,46.5 68.5,45.5 68.5,44.5C 68.5,43.1667 68.5,41.8333 68.5,40.5C 68.5,39.5 68.5,38.5 68.5,37.5C 68.5,36.8333 68.5,36.1667 68.5,35.5C 68.5,35.1667 68.5,34.8333 68.5,34.5 Z"/></g>
<g><path style="opacity:0.998" fill="#ef242a" d="M 26.5,46.5 C 28.5,47.8333 30.5,47.8333 32.5,46.5C 32.5,47.1667 32.5,47.8333 32.5,48.5C 30.5201,49.4839 28.8534,50.8173 27.5,52.5C 27.1667,52.5 26.8333,52.5 26.5,52.5C 26.5,50.5 26.5,48.5 26.5,46.5 Z"/></g>
<g><path style="opacity:1" fill="#de1c82" d="M 77.5,45.5 C 78.4959,45.4142 79.3292,45.7476 80,46.5C 81.0848,47.7356 81.9181,49.0689 82.5,50.5C 82.719,51.675 82.3857,52.675 81.5,53.5C 80.4793,52.0986 79.4793,50.7653 78.5,49.5C 78.1667,48.1667 77.8333,46.8333 77.5,45.5 Z"/></g>
<g><path style="opacity:0.992" fill="#f93556" d="M 10.5,47.5 C 11.1667,47.5 11.5,47.8333 11.5,48.5C 11.4701,49.4972 11.9701,50.1639 13,50.5C 14.4397,49.8524 15.9397,49.5191 17.5,49.5C 16.3662,52.0338 14.3662,53.3671 11.5,53.5C 11.5,52.8333 11.1667,52.5 10.5,52.5C 10.5,50.8333 10.5,49.1667 10.5,47.5 Z"/></g>
<g><path style="opacity:0.989" fill="#e7d6dd" d="M 25.5,43.5 C 25.5,49.1667 25.5,54.8333 25.5,60.5C 25.5,61.1667 25.5,61.8333 25.5,62.5C 24.5489,61.0813 24.2155,59.4147 24.5,57.5C 24.6641,54.8127 24.4974,52.146 24,49.5C 23.7216,48.5842 23.2216,47.9175 22.5,47.5C 22.5,46.1667 22.5,44.8333 22.5,43.5C 23.5,43.5 24.5,43.5 25.5,43.5 Z"/></g>
<g><path style="opacity:0.997" fill="#f52d23" d="M 44.5,52.5 C 43.9569,52.56 43.6236,52.8933 43.5,53.5C 45.4233,54.3078 47.4233,54.8078 49.5,55C 47.6183,55.1981 45.9516,55.6981 44.5,56.5C 43.391,56.4431 42.391,56.1098 41.5,55.5C 41.5,54.8333 41.1667,54.5 40.5,54.5C 40.3232,50.0901 41.6566,49.4234 44.5,52.5 Z"/></g>
<g><path style="opacity:0.998" fill="#ea2540" d="M 61.5,47.5 C 63.5441,49.2194 65.5441,50.8861 67.5,52.5C 67.8333,52.5 68.1667,52.5 68.5,52.5C 68.81,55.7131 68.4767,58.7131 67.5,61.5C 67.5,60.5 67.5,59.5 67.5,58.5C 64.6704,56.0127 62.6704,53.0127 61.5,49.5C 61.5,48.8333 61.5,48.1667 61.5,47.5 Z"/></g>
<g><path style="opacity:0.996" fill="#fd334a" d="M 20.5,48.5 C 20.5,49.1667 20.5,49.8333 20.5,50.5C 18.234,52.4347 15.734,54.1014 13,55.5C 11.9701,55.1639 11.4701,54.4972 11.5,53.5C 14.3662,53.3671 16.3662,52.0338 17.5,49.5C 18.609,49.4431 19.609,49.1098 20.5,48.5 Z"/></g>
<g><path style="opacity:0.997" fill="#f62c25" d="M 32.5,48.5 C 32.5,49.1667 32.8333,49.5 33.5,49.5C 33.5,50.1667 33.5,50.8333 33.5,51.5C 32.7767,53.2133 31.4433,54.2133 29.5,54.5C 28.2867,54.2528 27.62,53.5862 27.5,52.5C 28.8534,50.8173 30.5201,49.4839 32.5,48.5 Z"/></g>
<g><path style="opacity:0.997" fill="#f72b22" d="M 44.5,52.5 C 46.5,52.5 48.5,52.5 50.5,52.5C 51.4013,53.2905 52.0679,54.2905 52.5,55.5C 49.9455,56.388 47.2788,56.7214 44.5,56.5C 45.9516,55.6981 47.6183,55.1981 49.5,55C 47.4233,54.8078 45.4233,54.3078 43.5,53.5C 43.6236,52.8933 43.9569,52.56 44.5,52.5 Z"/></g>
<g><path style="opacity:0.996" fill="#e5b8c1" d="M 60.5,43.5 C 60.8333,43.5 61.1667,43.5 61.5,43.5C 61.5,44.8333 61.5,46.1667 61.5,47.5C 61.5,48.1667 61.5,48.8333 61.5,49.5C 61.2671,51.0618 60.6005,52.3951 59.5,53.5C 58.8333,53.5 58.1667,53.5 57.5,53.5C 57.6716,52.5084 57.3382,51.8417 56.5,51.5C 56.5,51.1667 56.5,50.8333 56.5,50.5C 56.5,49.8333 56.8333,49.5 57.5,49.5C 58.209,50.404 59.209,50.7373 60.5,50.5C 60.5,48.1667 60.5,45.8333 60.5,43.5 Z"/></g>
<g><path style="opacity:0.997" fill="#ea2434" d="M 61.5,49.5 C 62.6704,53.0127 64.6704,56.0127 67.5,58.5C 65.1667,57.1667 62.8333,55.8333 60.5,54.5C 60.1667,54.5 59.8333,54.5 59.5,54.5C 59.5,54.1667 59.5,53.8333 59.5,53.5C 60.6005,52.3951 61.2671,51.0618 61.5,49.5 Z"/></g>
<g><path style="opacity:0.988" fill="#dd2674" d="M 78.5,49.5 C 79.4793,50.7653 80.4793,52.0986 81.5,53.5C 82.3857,52.675 82.719,51.675 82.5,50.5C 82.8333,50.5 83.1667,50.5 83.5,50.5C 83.5,56.8333 83.5,63.1667 83.5,69.5C 82.8333,69.5 82.5,69.1667 82.5,68.5C 82.6641,65.8127 82.4974,63.146 82,60.5C 81.6174,59.944 81.1174,59.6107 80.5,59.5C 79.8333,56.1667 79.1667,52.8333 78.5,49.5 Z"/></g>
<g><path style="opacity:0.004" fill="#e4128a" d="M 84.5,72.5 C 84.3334,55.83 84.5001,39.1633 85,22.5C 85.8283,39.3384 85.6616,56.0051 84.5,72.5 Z"/></g>
<g><path style="opacity:0.996" fill="#f93f41" d="M 20.5,50.5 C 20.5,51.1667 20.5,51.8333 20.5,52.5C 19.6618,52.8417 19.3284,53.5084 19.5,54.5C 15.0678,55.0187 12.4011,57.3521 11.5,61.5C 11.5,62.5 11.5,63.5 11.5,64.5C 11.5,65.5 11.5,66.5 11.5,67.5C 11.5,68.5 11.5,69.5 11.5,70.5C 10.5104,64.69 10.1771,58.69 10.5,52.5C 11.1667,52.5 11.5,52.8333 11.5,53.5C 11.4701,54.4972 11.9701,55.1639 13,55.5C 15.734,54.1014 18.234,52.4347 20.5,50.5 Z"/></g>
<g><path style="opacity:0.997" fill="#fd3737" d="M 19.5,54.5 C 19.5,55.1667 19.5,55.8333 19.5,56.5C 16.8508,58.14 14.1841,59.8067 11.5,61.5C 12.4011,57.3521 15.0678,55.0187 19.5,54.5 Z"/></g>
<g><path style="opacity:0.999" fill="#f52c1a" d="M 33.5,51.5 C 33.5,52.8333 33.5,54.1667 33.5,55.5C 29.4399,54.8482 27.4399,56.5149 27.5,60.5C 27.5,61.1667 27.1667,61.5 26.5,61.5C 26.5,61.1667 26.5,60.8333 26.5,60.5C 26.5,57.8333 26.5,55.1667 26.5,52.5C 26.8333,52.5 27.1667,52.5 27.5,52.5C 27.62,53.5862 28.2867,54.2528 29.5,54.5C 31.4433,54.2133 32.7767,53.2133 33.5,51.5 Z"/></g>
<g><path style="opacity:0.996" fill="#ecd7db" d="M 41.5,55.5 C 42.391,56.1098 43.391,56.4431 44.5,56.5C 46.2646,57.4614 48.2646,57.7947 50.5,57.5C 48.2209,58.6515 45.8876,59.6515 43.5,60.5C 40.3257,59.9898 37.9923,58.3231 36.5,55.5C 37.9354,54.9035 39.602,54.9035 41.5,55.5 Z"/></g>
<g><path style="opacity:0.992" fill="#eeced2" d="M 37.5,50.5 C 38.5116,51.8717 39.5116,53.205 40.5,54.5C 41.1667,54.5 41.5,54.8333 41.5,55.5C 39.602,54.9035 37.9354,54.9035 36.5,55.5C 35.0937,55.0269 34.427,54.0269 34.5,52.5C 35.7777,52.2178 36.7777,51.5511 37.5,50.5 Z"/></g>
<g><path style="opacity:0.998" fill="#eb232d" d="M 60.5,54.5 C 62.8333,55.8333 65.1667,57.1667 67.5,58.5C 67.5,59.5 67.5,60.5 67.5,61.5C 67.5,61.8333 67.5,62.1667 67.5,62.5C 64.7052,60.2486 62.3719,57.5819 60.5,54.5 Z"/></g>
<g><path style="opacity:0.996" fill="#e11e56" d="M 73.5,49.5 C 74.1667,49.5 74.5,49.8333 74.5,50.5C 74.2627,51.791 74.596,52.791 75.5,53.5C 75.4013,56.2372 75.7347,58.9039 76.5,61.5C 75.8333,61.1667 75.1667,60.8333 74.5,60.5C 74.7845,58.5853 74.4511,56.9187 73.5,55.5C 73.5,53.5 73.5,51.5 73.5,49.5 Z"/></g>
<g><path style="opacity:0.997" fill="#e5225f" d="M 75.5,53.5 C 77.7372,57.5344 79.4039,61.8677 80.5,66.5C 79.8333,65.8333 79.1667,65.1667 78.5,64.5C 78.573,62.9731 77.9063,61.9731 76.5,61.5C 75.7347,58.9039 75.4013,56.2372 75.5,53.5 Z"/></g>
<g><path style="opacity:0.996" fill="#e32167" d="M 74.5,50.5 C 75.3764,50.3691 76.0431,50.7025 76.5,51.5C 77.3367,54.507 78.6701,57.1737 80.5,59.5C 81.1174,59.6107 81.6174,59.944 82,60.5C 82.4974,63.146 82.6641,65.8127 82.5,68.5C 81.5,68.1667 80.8333,67.5 80.5,66.5C 79.4039,61.8677 77.7372,57.5344 75.5,53.5C 74.596,52.791 74.2627,51.791 74.5,50.5 Z"/></g>
<g><path style="opacity:0.994" fill="#edd5d7" d="M 22.5,56.5 C 23.1667,56.8333 23.8333,57.1667 24.5,57.5C 24.2155,59.4147 24.5489,61.0813 25.5,62.5C 26.8367,65.6874 25.8367,66.354 22.5,64.5C 22.5,63.8333 22.1667,63.5 21.5,63.5C 21.5,62.5 21.5,61.5 21.5,60.5C 22.4345,59.4324 22.7678,58.099 22.5,56.5 Z"/></g>
<g><path style="opacity:0.996" fill="#f73c1f" d="M 33.5,55.5 C 33.9382,55.4346 34.2716,55.6012 34.5,56C 32.8807,56.2355 31.8807,57.0689 31.5,58.5C 30.3951,59.6005 29.0618,60.2671 27.5,60.5C 27.4399,56.5149 29.4399,54.8482 33.5,55.5 Z"/></g>
<g><path style="opacity:0.996" fill="#f7cdcd" d="M 56.5,51.5 C 57.3382,51.8417 57.6716,52.5084 57.5,53.5C 55.8333,54.5 54.5,55.8333 53.5,57.5C 52.5,57.5 51.5,57.5 50.5,57.5C 48.2646,57.7947 46.2646,57.4614 44.5,56.5C 47.2788,56.7214 49.9455,56.388 52.5,55.5C 54.1942,54.4726 55.5275,53.1392 56.5,51.5 Z"/></g>
<g><path style="opacity:0.996" fill="#e7c7cc" d="M 57.5,53.5 C 58.1667,53.5 58.8333,53.5 59.5,53.5C 59.5,53.8333 59.5,54.1667 59.5,54.5C 58.6618,54.8417 58.3284,55.5084 58.5,56.5C 56.9991,57.7515 55.3325,58.7515 53.5,59.5C 53.5,58.8333 53.5,58.1667 53.5,57.5C 54.5,55.8333 55.8333,54.5 57.5,53.5 Z"/></g>
<g><path style="opacity:0.996" fill="#eac5c5" d="M 50.5,57.5 C 51.5,57.5 52.5,57.5 53.5,57.5C 53.5,58.1667 53.5,58.8333 53.5,59.5C 52.8333,59.5 52.5,59.8333 52.5,60.5C 49.5701,61.299 46.5701,61.6323 43.5,61.5C 43.5,61.1667 43.5,60.8333 43.5,60.5C 45.8876,59.6515 48.2209,58.6515 50.5,57.5 Z"/></g>
<g><path style="opacity:0.998" fill="#fe3726" d="M 20.5,52.5 C 20.5,55.5 20.5,58.5 20.5,61.5C 19.5768,60.6971 18.5768,60.5304 17.5,61C 15.5626,63.0856 13.896,65.2522 12.5,67.5C 12.1667,67.5 11.8333,67.5 11.5,67.5C 11.5,66.5 11.5,65.5 11.5,64.5C 14.5483,62.1185 17.2149,59.4518 19.5,56.5C 19.5,55.8333 19.5,55.1667 19.5,54.5C 19.3284,53.5084 19.6618,52.8417 20.5,52.5 Z"/></g>
<g><path style="opacity:0.998" fill="#f95424" d="M 31.5,58.5 C 33.698,58.1201 35.3646,58.7868 36.5,60.5C 34.4727,60.3379 32.4727,60.5045 30.5,61C 29.0267,61.7096 28.3601,62.8762 28.5,64.5C 27.0937,64.0269 26.427,63.0269 26.5,61.5C 27.1667,61.5 27.5,61.1667 27.5,60.5C 29.0618,60.2671 30.3951,59.6005 31.5,58.5 Z"/></g>
<g><path style="opacity:0.996" fill="#f14625" d="M 33.5,51.5 C 34.1667,51.5 34.5,51.8333 34.5,52.5C 34.427,54.0269 35.0937,55.0269 36.5,55.5C 37.9923,58.3231 40.3257,59.9898 43.5,60.5C 43.5,60.8333 43.5,61.1667 43.5,61.5C 43.5,61.8333 43.5,62.1667 43.5,62.5C 43.1667,62.5 42.8333,62.5 42.5,62.5C 40.8984,60.9261 38.8984,60.2594 36.5,60.5C 35.3646,58.7868 33.698,58.1201 31.5,58.5C 31.8807,57.0689 32.8807,56.2355 34.5,56C 34.2716,55.6012 33.9382,55.4346 33.5,55.5C 33.5,54.1667 33.5,52.8333 33.5,51.5 Z"/></g>
<g><path style="opacity:0.998" fill="#ee2e2d" d="M 59.5,54.5 C 59.8333,54.5 60.1667,54.5 60.5,54.5C 62.3719,57.5819 64.7052,60.2486 67.5,62.5C 67.573,64.0269 66.9063,65.0269 65.5,65.5C 63.4083,62.319 61.075,59.319 58.5,56.5C 58.3284,55.5084 58.6618,54.8417 59.5,54.5 Z"/></g>
<g><path style="opacity:0.998" fill="#ee2c24" d="M 58.5,56.5 C 61.075,59.319 63.4083,62.319 65.5,65.5C 65.5,66.1667 65.1667,66.5 64.5,66.5C 62.0284,64.4999 59.8617,62.1666 58,59.5C 56.6062,61.4019 54.7729,61.7353 52.5,60.5C 52.5,59.8333 52.8333,59.5 53.5,59.5C 55.3325,58.7515 56.9991,57.7515 58.5,56.5 Z"/></g>
<g><path style="opacity:0.994" fill="#fd382e" d="M 19.5,56.5 C 17.2149,59.4518 14.5483,62.1185 11.5,64.5C 11.5,63.5 11.5,62.5 11.5,61.5C 14.1841,59.8067 16.8508,58.14 19.5,56.5 Z"/></g>
<g><path style="opacity:0.998" fill="#fd4024" d="M 20.5,61.5 C 18.1939,63.1394 16.1939,65.1394 14.5,67.5C 13.2276,74.0212 12.5609,74.0212 12.5,67.5C 13.896,65.2522 15.5626,63.0856 17.5,61C 18.5768,60.5304 19.5768,60.6971 20.5,61.5 Z"/></g>
<g><path style="opacity:0.998" fill="#f35920" d="M 36.5,60.5 C 38.8984,60.2594 40.8984,60.9261 42.5,62.5C 42.5,62.8333 42.5,63.1667 42.5,63.5C 39.5647,63.2833 36.7313,62.6166 34,61.5C 31.3844,61.6171 29.8844,62.9504 29.5,65.5C 29.1667,65.5 28.8333,65.5 28.5,65.5C 28.5,65.1667 28.5,64.8333 28.5,64.5C 28.3601,62.8762 29.0267,61.7096 30.5,61C 32.4727,60.5045 34.4727,60.3379 36.5,60.5 Z"/></g>
<g><path style="opacity:0.998" fill="#f12d1c" d="M 64.5,66.5 C 63.609,67.1098 62.609,67.4431 61.5,67.5C 59.8212,67.7148 58.8212,67.0481 58.5,65.5C 56.9408,63.3757 54.9408,61.709 52.5,60.5C 54.7729,61.7353 56.6062,61.4019 58,59.5C 59.8617,62.1666 62.0284,64.4999 64.5,66.5 Z"/></g>
<g><path style="opacity:0.008" fill="#e94265" d="M 8.5,24.5 C 9.66108,39.3277 9.82774,54.3277 9,69.5C 8.50008,54.5037 8.33342,39.5037 8.5,24.5 Z"/></g>
<g><path style="opacity:0.996" fill="#ec4f1f" d="M 42.5,63.5 C 42.5,63.1667 42.5,62.8333 42.5,62.5C 42.8333,62.5 43.1667,62.5 43.5,62.5C 44.8333,62.5 46.1667,62.5 47.5,62.5C 48.842,63.793 50.5087,64.6264 52.5,65C 53.2524,65.6708 53.5858,66.5041 53.5,67.5C 50.1621,65.3341 46.4954,64.0007 42.5,63.5 Z"/></g>
<g><path style="opacity:0.996" fill="#f97426" d="M 42.5,63.5 C 42.5,64.1667 42.5,64.8333 42.5,65.5C 39.6781,65.3219 37.0115,64.6552 34.5,63.5C 32.0182,63.1104 30.6848,64.1104 30.5,66.5C 29.8333,66.5 29.5,66.1667 29.5,65.5C 29.8844,62.9504 31.3844,61.6171 34,61.5C 36.7313,62.6166 39.5647,63.2833 42.5,63.5 Z"/></g>
<g><path style="opacity:0.997" fill="#f04724" d="M 47.5,62.5 C 49.5273,62.3379 51.5273,62.5045 53.5,63C 54.9101,64.3717 56.5767,65.205 58.5,65.5C 58.8212,67.0481 59.8212,67.7148 61.5,67.5C 61.5,67.8333 61.5,68.1667 61.5,68.5C 58.8333,68.5 56.1667,68.5 53.5,68.5C 53.5,68.1667 53.5,67.8333 53.5,67.5C 53.5858,66.5041 53.2524,65.6708 52.5,65C 50.5087,64.6264 48.842,63.793 47.5,62.5 Z"/></g>
<g><path style="opacity:0.996" fill="#ec371b" d="M 52.5,60.5 C 54.9408,61.709 56.9408,63.3757 58.5,65.5C 56.5767,65.205 54.9101,64.3717 53.5,63C 51.5273,62.5045 49.5273,62.3379 47.5,62.5C 46.1667,62.5 44.8333,62.5 43.5,62.5C 43.5,62.1667 43.5,61.8333 43.5,61.5C 46.5701,61.6323 49.5701,61.299 52.5,60.5 Z"/></g>
<g><path style="opacity:0.996" fill="#e62645" d="M 73.5,55.5 C 74.4511,56.9187 74.7845,58.5853 74.5,60.5C 74.6287,62.2161 74.962,63.8828 75.5,65.5C 74.8333,65.1667 74.1667,64.8333 73.5,64.5C 73.1667,64.5 72.8333,64.5 72.5,64.5C 72.5,63.8333 72.5,63.1667 72.5,62.5C 72.5,62.1667 72.5,61.8333 72.5,61.5C 73.4614,59.7354 73.7947,57.7354 73.5,55.5 Z"/></g>
<g><path style="opacity:0.996" fill="#fc5436" d="M 20.5,52.5 C 20.8333,52.5 21.1667,52.5 21.5,52.5C 21.5,55.1667 21.5,57.8333 21.5,60.5C 21.5,61.5 21.5,62.5 21.5,63.5C 19.2512,64.0798 17.5846,65.4131 16.5,67.5C 15.8333,67.5 15.1667,67.5 14.5,67.5C 16.1939,65.1394 18.1939,63.1394 20.5,61.5C 20.5,58.5 20.5,55.5 20.5,52.5 Z"/></g>
<g><path style="opacity:0.997" fill="#fd5725" d="M 21.5,63.5 C 19.8905,65.7918 18.2238,68.1251 16.5,70.5C 16.1667,70.5 15.8333,70.5 15.5,70.5C 15.5569,69.391 15.8902,68.391 16.5,67.5C 17.5846,65.4131 19.2512,64.0798 21.5,63.5 Z"/></g>
<g><path style="opacity:0.996" fill="#fa892c" d="M 42.5,65.5 C 43.1667,66.5 43.8333,67.5 44.5,68.5C 42.8333,68.5 41.1667,68.5 39.5,68.5C 39.4226,67.2502 38.756,66.4169 37.5,66C 35.0709,65.2967 32.7375,65.4634 30.5,66.5C 30.6848,64.1104 32.0182,63.1104 34.5,63.5C 37.0115,64.6552 39.6781,65.3219 42.5,65.5 Z"/></g>
<g><path style="opacity:1" fill="#f16224" d="M 42.5,63.5 C 46.4954,64.0007 50.1621,65.3341 53.5,67.5C 53.5,67.8333 53.5,68.1667 53.5,68.5C 52.1667,68.5 50.8333,68.5 49.5,68.5C 47.7713,66.2733 45.438,65.2733 42.5,65.5C 42.5,64.8333 42.5,64.1667 42.5,63.5 Z"/></g>
<g><path style="opacity:0.997" fill="#e82b42" d="M 73.5,64.5 C 74.1667,64.8333 74.8333,65.1667 75.5,65.5C 76.9514,69.3685 78.2848,73.3685 79.5,77.5C 79.5,77.8333 79.5,78.1667 79.5,78.5C 78.8333,78.5 78.5,78.8333 78.5,79.5C 77.8333,79.5 77.5,79.8333 77.5,80.5C 77.1667,80.5 76.8333,80.5 76.5,80.5C 75.962,78.8828 75.6287,77.2161 75.5,75.5C 75.586,71.6814 74.9193,68.0148 73.5,64.5 Z"/></g>
<g><path style="opacity:0.996" fill="#fda137" d="M 39.5,68.5 C 37.1667,68.5 34.8333,68.5 32.5,68.5C 31.8333,67.8333 31.1667,67.1667 30.5,66.5C 32.7375,65.4634 35.0709,65.2967 37.5,66C 38.756,66.4169 39.4226,67.2502 39.5,68.5 Z"/></g>
<g><path style="opacity:0.995" fill="#e6c9ce" d="M 71.5,62.5 C 71.8333,62.5 72.1667,62.5 72.5,62.5C 72.5,63.1667 72.5,63.8333 72.5,64.5C 71.5116,65.795 70.5116,67.1283 69.5,68.5C 69.1583,69.3382 68.4916,69.6716 67.5,69.5C 67.5858,68.5041 67.2524,67.6708 66.5,67C 67.6508,64.7997 69.3175,63.2997 71.5,62.5 Z"/></g>
<g><path style="opacity:0.995" fill="#e62a51" d="M 74.5,60.5 C 75.1667,60.8333 75.8333,61.1667 76.5,61.5C 77.9063,61.9731 78.573,62.9731 78.5,64.5C 80.0507,67.619 81.0507,70.9524 81.5,74.5C 81.5,75.1667 81.5,75.8333 81.5,76.5C 80.8333,76.5 80.5,76.8333 80.5,77.5C 80.1667,77.5 79.8333,77.5 79.5,77.5C 78.2848,73.3685 76.9514,69.3685 75.5,65.5C 74.962,63.8828 74.6287,62.2161 74.5,60.5 Z"/></g>
<g><path style="opacity:0.996" fill="#ebd1ce" d="M 25.5,60.5 C 25.8333,60.5 26.1667,60.5 26.5,60.5C 26.5,60.8333 26.5,61.1667 26.5,61.5C 26.427,63.0269 27.0937,64.0269 28.5,64.5C 28.5,64.8333 28.5,65.1667 28.5,65.5C 27.9859,66.6246 27.6526,67.7913 27.5,69C 28.3805,69.7083 29.0472,70.5416 29.5,71.5C 29.1667,71.5 28.8333,71.5 28.5,71.5C 27.8333,71.1667 27.1667,70.8333 26.5,70.5C 25.1363,68.8089 23.803,67.1423 22.5,65.5C 22.5,65.1667 22.5,64.8333 22.5,64.5C 25.8367,66.354 26.8367,65.6874 25.5,62.5C 25.5,61.8333 25.5,61.1667 25.5,60.5 Z"/></g>
<g><path style="opacity:0.996" fill="#f37627" d="M 42.5,65.5 C 45.438,65.2733 47.7713,66.2733 49.5,68.5C 47.8333,68.5 46.1667,68.5 44.5,68.5C 43.8333,67.5 43.1667,66.5 42.5,65.5 Z"/></g>
<g><path style="opacity:0.999" fill="#e92c3b" d="M 72.5,64.5 C 72.8333,64.5 73.1667,64.5 73.5,64.5C 74.9193,68.0148 75.586,71.6814 75.5,75.5C 74.753,72.8503 73.753,70.1836 72.5,67.5C 71.8933,67.6236 71.56,67.9569 71.5,68.5C 71.1667,68.5 70.8333,68.5 70.5,68.5C 70.1667,68.5 69.8333,68.5 69.5,68.5C 70.5116,67.1283 71.5116,65.795 72.5,64.5 Z"/></g>
<g><path style="opacity:1" fill="#e2325e" d="M 78.5,64.5 C 79.1667,65.1667 79.8333,65.8333 80.5,66.5C 80.8333,67.5 81.5,68.1667 82.5,68.5C 82.5,69.1667 82.8333,69.5 83.5,69.5C 83.5,70.5 83.5,71.5 83.5,72.5C 82.6618,72.8417 82.3284,73.5084 82.5,74.5C 82.1667,74.5 81.8333,74.5 81.5,74.5C 81.0507,70.9524 80.0507,67.619 78.5,64.5 Z"/></g>
<g><path style="opacity:0.998" fill="#e92d36" d="M 71.5,68.5 C 71.56,67.9569 71.8933,67.6236 72.5,67.5C 73.753,70.1836 74.753,72.8503 75.5,75.5C 75.6287,77.2161 75.962,78.8828 76.5,80.5C 76.5,80.8333 76.5,81.1667 76.5,81.5C 75.8333,81.5 75.1667,81.5 74.5,81.5C 73.4009,77.0695 72.4009,72.7362 71.5,68.5 Z"/></g>
<g><path style="opacity:0.994" fill="#efdbd8" d="M 28.5,65.5 C 28.8333,65.5 29.1667,65.5 29.5,65.5C 29.5,66.1667 29.8333,66.5 30.5,66.5C 31.1667,67.1667 31.8333,67.8333 32.5,68.5C 31.8333,68.5 31.5,68.8333 31.5,69.5C 32.1667,70.1667 32.8333,70.8333 33.5,71.5C 33.5,71.8333 33.5,72.1667 33.5,72.5C 32.8333,72.5 32.1667,72.5 31.5,72.5C 30.5084,72.6716 29.8417,72.3382 29.5,71.5C 29.0472,70.5416 28.3805,69.7083 27.5,69C 27.6526,67.7913 27.9859,66.6246 28.5,65.5 Z"/></g>
<g><path style="opacity:0.986" fill="#f84c28" d="M 11.5,67.5 C 11.8333,67.5 12.1667,67.5 12.5,67.5C 12.5609,74.0212 13.2276,74.0212 14.5,67.5C 15.1667,67.5 15.8333,67.5 16.5,67.5C 15.8902,68.391 15.5569,69.391 15.5,70.5C 14.9779,72.2191 13.9779,73.5525 12.5,74.5C 12.5,73.8333 12.1667,73.5 11.5,73.5C 11.5,72.5 11.5,71.5 11.5,70.5C 11.5,69.5 11.5,68.5 11.5,67.5 Z"/></g>
<g><path style="opacity:1" fill="#fc6528" d="M 21.5,63.5 C 22.1667,63.5 22.5,63.8333 22.5,64.5C 22.5,64.8333 22.5,65.1667 22.5,65.5C 20.8385,68.1587 18.8385,70.492 16.5,72.5C 16.5,71.8333 16.5,71.1667 16.5,70.5C 18.2238,68.1251 19.8905,65.7918 21.5,63.5 Z"/></g>
<g><path style="opacity:0.995" fill="#eededa" d="M 31.5,69.5 C 37.4549,70.3635 43.4549,70.6968 49.5,70.5C 44.3595,71.4881 39.0262,71.8214 33.5,71.5C 32.8333,70.8333 32.1667,70.1667 31.5,69.5 Z"/></g>
<g><path style="opacity:0.996" fill="#f0e2e3" d="M 31.5,69.5 C 31.5,68.8333 31.8333,68.5 32.5,68.5C 34.8333,68.5 37.1667,68.5 39.5,68.5C 41.1667,68.5 42.8333,68.5 44.5,68.5C 46.1667,68.5 47.8333,68.5 49.5,68.5C 50.8333,68.5 52.1667,68.5 53.5,68.5C 56.1667,68.5 58.8333,68.5 61.5,68.5C 62.4916,68.3284 63.1583,68.6618 63.5,69.5C 58.8696,70.2295 54.2029,70.5628 49.5,70.5C 43.4549,70.6968 37.4549,70.3635 31.5,69.5 Z"/></g>
<g><path style="opacity:0.998" fill="#ea2b28" d="M 69.5,68.5 C 69.8333,68.5 70.1667,68.5 70.5,68.5C 71.2186,70.7638 71.552,73.0971 71.5,75.5C 70.8333,75.5 70.1667,75.5 69.5,75.5C 69.6602,73.8008 69.4935,72.1341 69,70.5C 68.3292,71.2524 67.4959,71.5858 66.5,71.5C 66.5,71.1667 66.5,70.8333 66.5,70.5C 67.1667,70.5 67.5,70.1667 67.5,69.5C 68.4916,69.6716 69.1583,69.3382 69.5,68.5 Z"/></g>
<g><path style="opacity:0.996" fill="#ead6d8" d="M 63.5,69.5 C 64.791,69.2627 65.791,69.596 66.5,70.5C 66.5,70.8333 66.5,71.1667 66.5,71.5C 64.8828,72.038 63.2161,72.3713 61.5,72.5C 52.1667,72.5 42.8333,72.5 33.5,72.5C 33.5,72.1667 33.5,71.8333 33.5,71.5C 39.0262,71.8214 44.3595,71.4881 49.5,70.5C 54.2029,70.5628 58.8696,70.2295 63.5,69.5 Z"/></g>
<g><path style="opacity:0.998" fill="#f97229" d="M 22.5,65.5 C 23.803,67.1423 25.1363,68.8089 26.5,70.5C 21.1192,69.8742 18.4525,72.5409 18.5,78.5C 17.8333,78.1667 17.1667,77.8333 16.5,77.5C 15.2801,75.7163 15.2801,74.0496 16.5,72.5C 18.8385,70.492 20.8385,68.1587 22.5,65.5 Z"/></g>
<g><path style="opacity:0.008" fill="#ec4529" d="M 10.5,73.5 C 9.47498,73.1034 9.30831,72.4368 10,71.5C 10.4643,72.0944 10.631,72.7611 10.5,73.5 Z"/></g>
<g><path style="opacity:0.976" fill="#f05b2d" d="M 15.5,70.5 C 15.8333,70.5 16.1667,70.5 16.5,70.5C 16.5,71.1667 16.5,71.8333 16.5,72.5C 15.2801,74.0496 15.2801,75.7163 16.5,77.5C 15.8333,77.5 15.1667,77.5 14.5,77.5C 13.8333,76.8333 13.1667,76.1667 12.5,75.5C 12.5,75.1667 12.5,74.8333 12.5,74.5C 13.9779,73.5525 14.9779,72.2191 15.5,70.5 Z"/></g>
<g><path style="opacity:0.998" fill="#f88227" d="M 26.5,70.5 C 27.1667,70.8333 27.8333,71.1667 28.5,71.5C 27.7095,72.4013 26.7095,73.0679 25.5,73.5C 20.8394,72.8321 18.8394,74.8321 19.5,79.5C 18.8333,79.5 18.5,79.1667 18.5,78.5C 18.4525,72.5409 21.1192,69.8742 26.5,70.5 Z"/></g>
<g><path style="opacity:0.998" fill="#e93321" d="M 66.5,71.5 C 67.562,73.2341 67.562,74.9008 66.5,76.5C 65.5,75.8333 64.5,75.1667 63.5,74.5C 63.1583,73.6618 62.4916,73.3284 61.5,73.5C 61.5,73.1667 61.5,72.8333 61.5,72.5C 63.2161,72.3713 64.8828,72.038 66.5,71.5 Z"/></g>
<g><path style="opacity:0.008" fill="#d64157" d="M 83.5,72.5 C 83.8333,72.5 84.1667,72.5 84.5,72.5C 84.6716,73.4916 84.3382,74.1583 83.5,74.5C 83.5,73.8333 83.5,73.1667 83.5,72.5 Z"/></g>
<g><path style="opacity:0.012" fill="#e74428" d="M 10.5,73.5 C 10.8333,73.5 11.1667,73.5 11.5,73.5C 11.5,74.1667 11.5,74.8333 11.5,75.5C 10.6618,75.1583 10.3284,74.4916 10.5,73.5 Z"/></g>
<g><path style="opacity:0.998" fill="#ec8c22" d="M 28.5,71.5 C 28.8333,71.5 29.1667,71.5 29.5,71.5C 29.8417,72.3382 30.5084,72.6716 31.5,72.5C 32.209,73.404 33.209,73.7373 34.5,73.5C 34.5,73.8333 34.5,74.1667 34.5,74.5C 33.1667,74.5 31.8333,74.5 30.5,74.5C 28.901,74.2322 27.5676,74.5655 26.5,75.5C 24.3023,75.5912 23.9689,74.9245 25.5,73.5C 26.7095,73.0679 27.7095,72.4013 28.5,71.5 Z"/></g>
<g><path style="opacity:0.996" fill="#eaa424" d="M 30.5,74.5 C 31.8333,74.5 33.1667,74.5 34.5,74.5C 37.1873,74.3359 39.854,74.5026 42.5,75C 43.056,75.3826 43.3893,75.8826 43.5,76.5C 42.5,76.5 41.5,76.5 40.5,76.5C 36.4894,75.1627 32.4894,75.4961 28.5,77.5C 28.1667,77.5 27.8333,77.5 27.5,77.5C 28.3065,76.2719 29.3065,75.2719 30.5,74.5 Z"/></g>
<g><path style="opacity:0.996" fill="#e8961e" d="M 34.5,74.5 C 34.5,74.1667 34.5,73.8333 34.5,73.5C 37.5,73.5 40.5,73.5 43.5,73.5C 45.751,74.8175 47.751,76.4842 49.5,78.5C 47.6854,77.3702 45.6854,76.7036 43.5,76.5C 43.3893,75.8826 43.056,75.3826 42.5,75C 39.854,74.5026 37.1873,74.3359 34.5,74.5 Z"/></g>
<g><path style="opacity:0.998" fill="#eb3c1c" d="M 58.5,73.5 C 59.5,73.5 60.5,73.5 61.5,73.5C 62.4916,73.3284 63.1583,73.6618 63.5,74.5C 64.2318,77.2658 64.2318,79.9325 63.5,82.5C 62.8333,82.5 62.1667,82.5 61.5,82.5C 63.0467,78.6942 62.0467,75.6942 58.5,73.5 Z"/></g>
<g><path style="opacity:0.016" fill="#d63b50" d="M 82.5,74.5 C 82.8333,74.5 83.1667,74.5 83.5,74.5C 83.3147,75.1701 82.9813,75.1701 82.5,74.5 Z"/></g>
<g><path style="opacity:0.016" fill="#e13f1e" d="M 11.5,75.5 C 11.8333,75.5 12.1667,75.5 12.5,75.5C 12.3147,76.1701 11.9813,76.1701 11.5,75.5 Z"/></g>
<g><path style="opacity:0.997" fill="#f9932a" d="M 25.5,73.5 C 23.9689,74.9245 24.3023,75.5912 26.5,75.5C 25.1225,76.2344 23.6225,76.9011 22,77.5C 21.5304,78.5768 21.6971,79.5768 22.5,80.5C 21.391,80.4431 20.391,80.1098 19.5,79.5C 18.8394,74.8321 20.8394,72.8321 25.5,73.5 Z"/></g>
<g><path style="opacity:1" fill="#ec641f" d="M 54.5,73.5 C 57.1666,75.1734 59.1666,77.5067 60.5,80.5C 60.1373,81.1835 59.8039,81.8501 59.5,82.5C 58.1667,82.5 56.8333,82.5 55.5,82.5C 55.8742,78.776 54.2075,75.9427 50.5,74C 51.7932,73.51 53.1266,73.3433 54.5,73.5 Z"/></g>
<g><path style="opacity:0.996" fill="#ed2c20" d="M 69.5,75.5 C 69.5,77.8333 69.5,80.1667 69.5,82.5C 68.1667,82.5 66.8333,82.5 65.5,82.5C 66.2625,81.7321 67.2625,81.2321 68.5,81C 67.4178,79.6703 66.7512,78.1703 66.5,76.5C 67.562,74.9008 67.562,73.2341 66.5,71.5C 67.4959,71.5858 68.3292,71.2524 69,70.5C 69.4935,72.1341 69.6602,73.8008 69.5,75.5 Z"/></g>
<g><path style="opacity:0.996" fill="#ed2c26" d="M 69.5,75.5 C 70.1667,75.5 70.8333,75.5 71.5,75.5C 71.3253,77.6208 71.6586,79.6208 72.5,81.5C 71.609,82.1098 70.609,82.4431 69.5,82.5C 69.5,80.1667 69.5,77.8333 69.5,75.5 Z"/></g>
<g><path style="opacity:0.996" fill="#eb2a2e" d="M 70.5,68.5 C 70.8333,68.5 71.1667,68.5 71.5,68.5C 72.4009,72.7362 73.4009,77.0695 74.5,81.5C 73.8333,81.5 73.1667,81.5 72.5,81.5C 71.6586,79.6208 71.3253,77.6208 71.5,75.5C 71.552,73.0971 71.2186,70.7638 70.5,68.5 Z"/></g>
<g><path style="opacity:0.999" fill="#ee9a2a" d="M 30.5,74.5 C 29.3065,75.2719 28.3065,76.2719 27.5,77.5C 26.7326,78.172 26.0659,79.0053 25.5,80C 26.7305,81.4048 28.0639,82.5714 29.5,83.5C 27.8333,83.5 26.1667,83.5 24.5,83.5C 23.8333,82.5 23.1667,81.5 22.5,80.5C 21.6971,79.5768 21.5304,78.5768 22,77.5C 23.6225,76.9011 25.1225,76.2344 26.5,75.5C 27.5676,74.5655 28.901,74.2322 30.5,74.5 Z"/></g>
<g><path style="opacity:0.996" fill="#ec4d1e" d="M 54.5,73.5 C 55.8333,73.5 57.1667,73.5 58.5,73.5C 62.0467,75.6942 63.0467,78.6942 61.5,82.5C 60.8333,82.5 60.1667,82.5 59.5,82.5C 59.8039,81.8501 60.1373,81.1835 60.5,80.5C 59.1666,77.5067 57.1666,75.1734 54.5,73.5 Z"/></g>
<g><path style="opacity:0.008" fill="#d52d3f" d="M 81.5,76.5 C 82.8333,77.1667 82.8333,77.1667 81.5,76.5 Z"/></g>
<g><path style="opacity:0.996" fill="#f0b528" d="M 40.5,76.5 C 37.9407,76.1984 35.6074,76.5318 33.5,77.5C 30.5,77.1667 29.1667,78.5 29.5,81.5C 28.5655,80.4324 28.2322,79.099 28.5,77.5C 32.4894,75.4961 36.4894,75.1627 40.5,76.5 Z"/></g>
<g><path style="opacity:0.016" fill="#d62c3a" d="M 80.5,77.5 C 80.8333,77.5 81.1667,77.5 81.5,77.5C 81.3147,78.1701 80.9813,78.1701 80.5,77.5 Z"/></g>
<g><path style="opacity:0.998" fill="#e6aa2b" d="M 27.5,77.5 C 27.8333,77.5 28.1667,77.5 28.5,77.5C 28.2322,79.099 28.5655,80.4324 29.5,81.5C 30.1667,81.5 30.8333,81.5 31.5,81.5C 35.0641,82.4227 38.7307,82.756 42.5,82.5C 43.8333,82.5 45.1667,82.5 46.5,82.5C 46.5,82.8333 46.5,83.1667 46.5,83.5C 40.8333,83.5 35.1667,83.5 29.5,83.5C 28.0639,82.5714 26.7305,81.4048 25.5,80C 26.0659,79.0053 26.7326,78.172 27.5,77.5 Z"/></g>
<g><path style="opacity:0.998" fill="#f2c32c" d="M 33.5,77.5 C 36.0593,77.1984 38.3926,77.5318 40.5,78.5C 37.8127,78.3359 35.146,78.5026 32.5,79C 31.7476,79.6708 31.4142,80.5041 31.5,81.5C 30.8333,81.5 30.1667,81.5 29.5,81.5C 29.1667,78.5 30.5,77.1667 33.5,77.5 Z"/></g>
<g><path style="opacity:0.996" fill="#f1cc2d" d="M 40.5,78.5 C 45.3554,79.1997 46.0221,80.5331 42.5,82.5C 38.7307,82.756 35.0641,82.4227 31.5,81.5C 31.4142,80.5041 31.7476,79.6708 32.5,79C 35.146,78.5026 37.8127,78.3359 40.5,78.5 Z"/></g>
<g><path style="opacity:0.996" fill="#eeb828" d="M 33.5,77.5 C 35.6074,76.5318 37.9407,76.1984 40.5,76.5C 41.5,76.5 42.5,76.5 43.5,76.5C 44.9335,77.8333 46.2668,79.3333 47.5,81C 46.944,81.3826 46.6107,81.8826 46.5,82.5C 45.1667,82.5 43.8333,82.5 42.5,82.5C 46.0221,80.5331 45.3554,79.1997 40.5,78.5C 38.3926,77.5318 36.0593,77.1984 33.5,77.5 Z"/></g>
<g><path style="opacity:0.995" fill="#efaa27" d="M 43.5,76.5 C 45.6854,76.7036 47.6854,77.3702 49.5,78.5C 50.0967,78.7352 50.4301,79.2352 50.5,80C 49.9444,81.0111 49.2778,81.8444 48.5,82.5C 47.8333,82.5 47.1667,82.5 46.5,82.5C 46.6107,81.8826 46.944,81.3826 47.5,81C 46.2668,79.3333 44.9335,77.8333 43.5,76.5 Z"/></g>
<g><path style="opacity:0.994" fill="#ef381e" d="M 63.5,74.5 C 64.5,75.1667 65.5,75.8333 66.5,76.5C 66.7512,78.1703 67.4178,79.6703 68.5,81C 67.2625,81.2321 66.2625,81.7321 65.5,82.5C 64.8333,82.5 64.1667,82.5 63.5,82.5C 64.2318,79.9325 64.2318,77.2658 63.5,74.5 Z"/></g>
<g><path style="opacity:0.016" fill="#d81e2f" d="M 79.5,78.5 C 79.8333,78.5 80.1667,78.5 80.5,78.5C 80.3147,79.1701 79.9813,79.1701 79.5,78.5 Z"/></g>
<g><path style="opacity:0.99" fill="#ec8f23" d="M 43.5,73.5 C 47.736,73.7679 50.9027,75.7679 53,79.5C 52.6834,81.7734 51.1834,82.7734 48.5,82.5C 49.2778,81.8444 49.9444,81.0111 50.5,80C 50.4301,79.2352 50.0967,78.7352 49.5,78.5C 47.751,76.4842 45.751,74.8175 43.5,73.5 Z"/></g>
<g><path style="opacity:0.016" fill="#d71e2c" d="M 78.5,79.5 C 78.8333,79.5 79.1667,79.5 79.5,79.5C 79.3147,80.1701 78.9813,80.1701 78.5,79.5 Z"/></g>
<g><path style="opacity:0.98" fill="#e7843f" d="M 31.5,72.5 C 32.1667,72.5 32.8333,72.5 33.5,72.5C 42.8333,72.5 52.1667,72.5 61.5,72.5C 61.5,72.8333 61.5,73.1667 61.5,73.5C 60.5,73.5 59.5,73.5 58.5,73.5C 57.1667,73.5 55.8333,73.5 54.5,73.5C 53.1266,73.3433 51.7932,73.51 50.5,74C 54.2075,75.9427 55.8742,78.776 55.5,82.5C 54.8333,82.5 54.5,82.8333 54.5,83.5C 51.8333,83.5 49.1667,83.5 46.5,83.5C 46.5,83.1667 46.5,82.8333 46.5,82.5C 47.1667,82.5 47.8333,82.5 48.5,82.5C 51.1834,82.7734 52.6834,81.7734 53,79.5C 50.9027,75.7679 47.736,73.7679 43.5,73.5C 40.5,73.5 37.5,73.5 34.5,73.5C 33.209,73.7373 32.209,73.404 31.5,72.5 Z"/></g>
<g><path style="opacity:0.016" fill="#d52b34" d="M 77.5,80.5 C 77.8333,80.5 78.1667,80.5 78.5,80.5C 78.3147,81.1701 77.9813,81.1701 77.5,80.5 Z"/></g>
<g><path style="opacity:0.851" fill="#d66330" d="M 14.5,77.5 C 15.1667,77.5 15.8333,77.5 16.5,77.5C 17.1667,77.8333 17.8333,78.1667 18.5,78.5C 18.5,79.1667 18.8333,79.5 19.5,79.5C 20.391,80.1098 21.391,80.4431 22.5,80.5C 23.1667,81.5 23.8333,82.5 24.5,83.5C 23.8333,83.5 23.1667,83.5 22.5,83.5C 21.8333,82.1667 21.1667,82.1667 20.5,83.5C 18.6214,83.6068 18.2881,83.1068 19.5,82C 17.3825,80.9509 15.7158,79.4509 14.5,77.5 Z"/></g>
<g><path style="opacity:0.008" fill="#d52d33" d="M 76.5,81.5 C 76.8333,81.5 77.1667,81.5 77.5,81.5C 77.3147,82.1701 76.9813,82.1701 76.5,81.5 Z"/></g>
<g><path style="opacity:0.502" fill="#d4492e" d="M 72.5,81.5 C 73.1667,81.5 73.8333,81.5 74.5,81.5C 74.5,81.8333 74.5,82.1667 74.5,82.5C 73.5084,82.3284 72.8417,82.6618 72.5,83.5C 66.5,83.5 60.5,83.5 54.5,83.5C 54.5,82.8333 54.8333,82.5 55.5,82.5C 56.8333,82.5 58.1667,82.5 59.5,82.5C 60.1667,82.5 60.8333,82.5 61.5,82.5C 62.1667,82.5 62.8333,82.5 63.5,82.5C 64.1667,82.5 64.8333,82.5 65.5,82.5C 66.8333,82.5 68.1667,82.5 69.5,82.5C 70.609,82.4431 71.609,82.1098 72.5,81.5 Z"/></g>
<g><path style="opacity:0.012" fill="#d13836" d="M 74.5,82.5 C 75.8333,83.1667 75.8333,83.1667 74.5,82.5 Z"/></g>
<g><path style="opacity:0.008" fill="#e25711" d="M 20.5,83.5 C 21.1667,83.5 21.8333,83.5 22.5,83.5C 22.5,83.8333 22.5,84.1667 22.5,84.5C 21.5084,84.6716 20.8417,84.3382 20.5,83.5 Z"/></g>
<g><path style="opacity:0.008" fill="#d23d37" d="M 72.5,83.5 C 73.1667,83.5 73.8333,83.5 74.5,83.5C 73.8333,84.8333 73.1667,84.8333 72.5,83.5 Z"/></g>
<g><path style="opacity:0.008" fill="#e77114" d="M 22.5,84.5 C 38.8367,84.3334 55.1701,84.5001 71.5,85C 54.9948,85.8282 38.6615,85.6615 22.5,84.5 Z"/></g>
</svg>
