<?xml version="1.0" encoding="UTF-8"?>
<!DOCTYPE svg PUBLIC "-//W3C//DTD SVG 1.1//EN" "http://www.w3.org/Graphics/SVG/1.1/DTD/svg11.dtd">
<svg xmlns="http://www.w3.org/2000/svg" version="1.1" width="120px" height="120px" style="shape-rendering:geometricPrecision; text-rendering:geometricPrecision; image-rendering:optimizeQuality; fill-rule:evenodd; clip-rule:evenodd" xmlns:xlink="http://www.w3.org/1999/xlink">
<g><path style="opacity:0.012" fill="#ecbefe" d="M 30.5,12.5 C 49.6623,11.3377 68.9956,11.171 88.5,12C 69.1695,12.5 49.8362,12.6666 30.5,12.5 Z"/></g>
<g><path style="opacity:0.004" fill="#90c8fe" d="M 29.5,13.5 C 28.7611,13.631 28.0944,13.4643 27.5,13C 28.4368,12.3083 29.1034,12.475 29.5,13.5 Z"/></g>
<g><path style="opacity:0.004" fill="#f89afc" d="M 89.5,13.5 C 89.8966,12.475 90.5632,12.3083 91.5,13C 90.9056,13.4643 90.2389,13.631 89.5,13.5 Z"/></g>
<g><path style="opacity:0.004" fill="#dbecfc" d="M 25.5,14.5 C 24.8333,13.1667 24.8333,13.1667 25.5,14.5 Z"/></g>
<g><path style="opacity:0.004" fill="#f58afa" d="M 92.5,13.5 C 93.8333,14.1667 93.8333,14.1667 92.5,13.5 Z"/></g>
<g><path style="opacity:0.004" fill="#ebf4fc" d="M 22.5,14.5 C 23.8333,15.1667 23.8333,15.1667 22.5,14.5 Z"/></g>
<g><path style="opacity:0.008" fill="#f073f7" d="M 94.5,14.5 C 95.8333,15.1667 95.8333,15.1667 94.5,14.5 Z"/></g>
<g><path style="opacity:0.008" fill="#ccdbfc" d="M 22.5,15.5 C 22.5,15.8333 22.5,16.1667 22.5,16.5C 21.8299,16.0187 21.8299,15.6853 22.5,15.5 Z"/></g>
<g><path style="opacity:0.992" fill="#b8a3fd" d="M 52.5,14.5 C 51.4489,15.2223 50.7822,16.2223 50.5,17.5C 48.8333,17.5 47.1667,17.5 45.5,17.5C 44.5,17.5 43.5,17.5 42.5,17.5C 42.1667,17.5 41.8333,17.5 41.5,17.5C 40.3984,15.9081 41.065,15.0748 43.5,15C 46.4816,14.502 49.4816,14.3354 52.5,14.5 Z"/></g>
<g><path style="opacity:0.992" fill="#cd91fe" d="M 52.5,14.5 C 55.5,14.5 58.5,14.5 61.5,14.5C 60.6935,15.7281 59.6935,16.7281 58.5,17.5C 56.1667,17.5 53.8333,17.5 51.5,17.5C 51.1667,17.5 50.8333,17.5 50.5,17.5C 50.7822,16.2223 51.4489,15.2223 52.5,14.5 Z"/></g>
<g><path style="opacity:0.992" fill="#df75fd" d="M 61.5,14.5 C 67.5,14.5 73.5,14.5 79.5,14.5C 77.9275,15.6873 76.2608,16.6873 74.5,17.5C 72.5,17.5 70.5,17.5 68.5,17.5C 66.5,17.5 64.5,17.5 62.5,17.5C 61.1667,17.5 59.8333,17.5 58.5,17.5C 59.6935,16.7281 60.6935,15.7281 61.5,14.5 Z"/></g>
<g><path style="opacity:0.004" fill="#f7e1fc" d="M 97.5,16.5 C 96.8333,15.1667 96.8333,15.1667 97.5,16.5 Z"/></g>
<g><path style="opacity:0.008" fill="#fafdfc" d="M 19.5,16.5 C 20.8333,17.1667 20.8333,17.1667 19.5,16.5 Z"/></g>
<g><path style="opacity:0.99" fill="#ed68f6" d="M 79.5,14.5 C 82.5,14.5 85.5,14.5 88.5,14.5C 89.8333,14.5 91.1667,14.5 92.5,14.5C 92.8417,15.3382 93.5084,15.6716 94.5,15.5C 95.1667,16.5 95.8333,17.5 96.5,18.5C 94.6656,17.506 92.9989,17.506 91.5,18.5C 88.8728,17.9084 86.2062,17.5751 83.5,17.5C 80.5,17.5 77.5,17.5 74.5,17.5C 76.2608,16.6873 77.9275,15.6873 79.5,14.5 Z"/></g>
<g><path style="opacity:0.016" fill="#f0a7f6" d="M 97.5,16.5 C 98.8333,17.1667 98.8333,17.1667 97.5,16.5 Z"/></g>
<g><path style="opacity:0.012" fill="#f5f8fc" d="M 19.5,17.5 C 18.8333,18.1667 18.8333,18.1667 19.5,17.5 Z"/></g>
<g><path style="opacity:0.988" fill="#b5bdfe" d="M 29.5,13.5 C 49.3404,13.1696 69.0071,13.5029 88.5,14.5C 85.5,14.5 82.5,14.5 79.5,14.5C 73.5,14.5 67.5,14.5 61.5,14.5C 58.5,14.5 55.5,14.5 52.5,14.5C 49.4816,14.3354 46.4816,14.502 43.5,15C 41.065,15.0748 40.3984,15.9081 41.5,17.5C 41.1667,17.5 40.8333,17.5 40.5,17.5C 33.2349,16.2736 26.9016,17.9403 21.5,22.5C 20.8333,22.5 20.5,22.8333 20.5,23.5C 19.8333,23.5 19.5,23.8333 19.5,24.5C 19.1667,24.5 18.8333,24.5 18.5,24.5C 20.9225,19.7417 24.5892,16.4084 29.5,14.5C 29.5,14.1667 29.5,13.8333 29.5,13.5 Z"/></g>
<g><path style="opacity:0.999" fill="#cb51f4" d="M 62.5,17.5 C 64.5,17.5 66.5,17.5 68.5,17.5C 67.9609,20.743 66.2943,23.243 63.5,25C 65.4727,25.4955 67.4727,25.6621 69.5,25.5C 71.7354,25.2053 73.7354,25.5386 75.5,26.5C 70.8333,26.5 66.1667,26.5 61.5,26.5C 60.7375,25.7321 59.7375,25.2321 58.5,25C 61.2172,24.9566 61.8839,23.9566 60.5,22C 61.4138,20.5936 62.0805,19.0936 62.5,17.5 Z"/></g>
<g><path style="opacity:0.999" fill="#d937eb" d="M 74.5,17.5 C 77.5,17.5 80.5,17.5 83.5,17.5C 83.6107,18.1174 83.944,18.6174 84.5,19C 81.6981,21.1052 80.3648,23.9386 80.5,27.5C 80.1667,27.5 79.8333,27.5 79.5,27.5C 78.1667,27.1667 76.8333,26.8333 75.5,26.5C 73.7354,25.5386 71.7354,25.2053 69.5,25.5C 70.2625,24.7321 71.2625,24.2321 72.5,24C 71.8333,23.6667 71.1667,23.3333 70.5,23C 73.5117,21.8988 74.845,20.0655 74.5,17.5 Z"/></g>
<g><path style="opacity:0.012" fill="#f4f7fc" d="M 18.5,18.5 C 17.8333,19.1667 17.8333,19.1667 18.5,18.5 Z"/></g>
<g><path style="opacity:0.999" fill="#807cfd" d="M 40.5,17.5 C 40.8333,17.5 41.1667,17.5 41.5,17.5C 41.8333,17.5 42.1667,17.5 42.5,17.5C 41.6072,20.4608 39.6072,22.2941 36.5,23C 31.0426,24.0444 25.7093,24.2111 20.5,23.5C 20.5,22.8333 20.8333,22.5 21.5,22.5C 26.4682,21.8357 31.4682,21.3357 36.5,21C 38.0931,20.0513 39.4264,18.8846 40.5,17.5 Z"/></g>
<g><path style="opacity:0.998" fill="#ad69fb" d="M 51.5,17.5 C 53.8333,17.5 56.1667,17.5 58.5,17.5C 57.3472,21.498 55.0139,24.498 51.5,26.5C 46.9677,26.1818 42.6344,26.5151 38.5,27.5C 37.8333,27.5 37.1667,27.5 36.5,27.5C 36.6107,26.8826 36.944,26.3826 37.5,26C 40.5589,25.3554 43.5589,24.522 46.5,23.5C 48.1897,21.4807 49.8564,19.4807 51.5,17.5 Z"/></g>
<g><path style="opacity:0.999" fill="#de2ae2" d="M 83.5,17.5 C 86.2062,17.5751 88.8728,17.9084 91.5,18.5C 91.5086,20.3084 91.0086,21.9751 90,23.5C 87.0013,25.5 84.5013,27.1667 82.5,28.5C 81.8333,28.1667 81.1667,27.8333 80.5,27.5C 80.3648,23.9386 81.6981,21.1052 84.5,19C 83.944,18.6174 83.6107,18.1174 83.5,17.5 Z"/></g>
<g><path style="opacity:0.004" fill="#f8fcfc" d="M 17.5,19.5 C 16.8333,20.1667 16.8333,20.1667 17.5,19.5 Z"/></g>
<g><path style="opacity:1" fill="#e4e7fd" d="M 25.5,14.5 C 26.8333,14.5 28.1667,14.5 29.5,14.5C 24.5892,16.4084 20.9225,19.7417 18.5,24.5C 17.5,24.8333 16.8333,25.5 16.5,26.5C 16.1667,26.5 15.8333,26.5 15.5,26.5C 15.8333,25.1667 16.1667,23.8333 16.5,22.5C 18.8333,20.8333 20.8333,18.8333 22.5,16.5C 24.0269,16.573 25.0269,15.9063 25.5,14.5 Z"/></g>
<g><path style="opacity:0.999" fill="#d146f2" d="M 68.5,17.5 C 70.5,17.5 72.5,17.5 74.5,17.5C 74.845,20.0655 73.5117,21.8988 70.5,23C 71.1667,23.3333 71.8333,23.6667 72.5,24C 71.2625,24.2321 70.2625,24.7321 69.5,25.5C 67.4727,25.6621 65.4727,25.4955 63.5,25C 66.2943,23.243 67.9609,20.743 68.5,17.5 Z"/></g>
<g><path style="opacity:0.998" fill="#e42fde" d="M 96.5,18.5 C 96.8333,18.5 97.1667,18.5 97.5,18.5C 97.5544,20.632 98.5544,21.9653 100.5,22.5C 100.557,23.609 100.89,24.609 101.5,25.5C 101.5,26.8333 101.5,28.1667 101.5,29.5C 100.662,29.1583 100.328,28.4916 100.5,27.5C 99.5213,25.8546 98.188,24.5213 96.5,23.5C 92.1447,25.1886 89.1447,28.1886 87.5,32.5C 85.8089,31.1363 84.1423,29.803 82.5,28.5C 84.5013,27.1667 87.0013,25.5 90,23.5C 91.0086,21.9751 91.5086,20.3084 91.5,18.5C 92.9989,17.506 94.6656,17.506 96.5,18.5 Z"/></g>
<g><path style="opacity:0.016" fill="#ea99ef" d="M 101.5,20.5 C 100.833,19.1667 100.833,19.1667 101.5,20.5 Z"/></g>
<g><path style="opacity:0.999" fill="#7182fd" d="M 40.5,17.5 C 39.4264,18.8846 38.0931,20.0513 36.5,21C 31.4682,21.3357 26.4682,21.8357 21.5,22.5C 26.9016,17.9403 33.2349,16.2736 40.5,17.5 Z"/></g>
<g><path style="opacity:0.008" fill="#f0caf5" d="M 101.5,20.5 C 102.833,21.1667 102.833,21.1667 101.5,20.5 Z"/></g>
<g><path style="opacity:0.008" fill="#d5d0fe" d="M 16.5,22.5 C 15.8333,21.1667 15.8333,21.1667 16.5,22.5 Z"/></g>
<g><path style="opacity:0.999" fill="#c15cf7" d="M 58.5,17.5 C 59.8333,17.5 61.1667,17.5 62.5,17.5C 62.0805,19.0936 61.4138,20.5936 60.5,22C 61.8839,23.9566 61.2172,24.9566 58.5,25C 59.7375,25.2321 60.7375,25.7321 61.5,26.5C 58.1667,26.5 54.8333,26.5 51.5,26.5C 55.0139,24.498 57.3472,21.498 58.5,17.5 Z"/></g>
<g><path style="opacity:1" fill="#f094f0" d="M 97.5,18.5 C 98.5,19.1667 99.5,19.8333 100.5,20.5C 100.5,21.1667 100.5,21.8333 100.5,22.5C 98.5544,21.9653 97.5544,20.632 97.5,18.5 Z"/></g>
<g><path style="opacity:0.004" fill="#edeefd" d="M 15.5,22.5 C 14.8333,23.1667 14.8333,23.1667 15.5,22.5 Z"/></g>
<g><path style="opacity:0.012" fill="#e265e4" d="M 102.5,22.5 C 103.833,23.1667 103.833,23.1667 102.5,22.5 Z"/></g>
<g><path style="opacity:0.998" fill="#8a76fc" d="M 42.5,17.5 C 43.5,17.5 44.5,17.5 45.5,17.5C 44.4821,21.0204 42.1487,23.1871 38.5,24C 32.0461,25.611 25.7127,25.7777 19.5,24.5C 19.5,23.8333 19.8333,23.5 20.5,23.5C 25.7093,24.2111 31.0426,24.0444 36.5,23C 39.6072,22.2941 41.6072,20.4608 42.5,17.5 Z"/></g>
<g><path style="opacity:0.996" fill="#9a73fc" d="M 45.5,17.5 C 47.1667,17.5 48.8333,17.5 50.5,17.5C 50.8333,17.5 51.1667,17.5 51.5,17.5C 49.8564,19.4807 48.1897,21.4807 46.5,23.5C 43.5589,24.522 40.5589,25.3554 37.5,26C 36.944,26.3826 36.6107,26.8826 36.5,27.5C 36.5,28.1667 36.1667,28.5 35.5,28.5C 30.632,27.7875 25.632,27.1208 20.5,26.5C 19.2724,28.1759 17.9391,28.5092 16.5,27.5C 16.5,27.1667 16.5,26.8333 16.5,26.5C 16.8333,25.5 17.5,24.8333 18.5,24.5C 18.8333,24.5 19.1667,24.5 19.5,24.5C 25.7127,25.7777 32.0461,25.611 38.5,24C 42.1487,23.1871 44.4821,21.0204 45.5,17.5 Z"/></g>
<g><path style="opacity:0.999" fill="#e621d7" d="M 100.5,27.5 C 99.2058,28.2899 98.0391,29.2899 97,30.5C 96.6667,30.1667 96.3333,29.8333 96,29.5C 94.8873,30.305 93.7206,30.9717 92.5,31.5C 90.847,31.6596 89.5137,32.3263 88.5,33.5C 87.8333,33.5 87.5,33.1667 87.5,32.5C 89.1447,28.1886 92.1447,25.1886 96.5,23.5C 98.188,24.5213 99.5213,25.8546 100.5,27.5 Z"/></g>
<g><path style="opacity:0.349" fill="#eaabeb" d="M 100.5,22.5 C 101.167,22.8333 101.833,23.1667 102.5,23.5C 102.5,24.1667 102.5,24.8333 102.5,25.5C 102.167,25.5 101.833,25.5 101.5,25.5C 100.89,24.609 100.557,23.609 100.5,22.5 Z"/></g>
<g><path style="opacity:0.004" fill="#dd42dc" d="M 103.5,24.5 C 104.833,25.1667 104.833,25.1667 103.5,24.5 Z"/></g>
<g><path style="opacity:0.004" fill="#bf98ff" d="M 14.5,26.5 C 13.475,26.1034 13.3083,25.4368 14,24.5C 14.4643,25.0944 14.631,25.7611 14.5,26.5 Z"/></g>
<g><path style="opacity:0.004" fill="#df6bde" d="M 104.5,26.5 C 105.833,27.1667 105.833,27.1667 104.5,26.5 Z"/></g>
<g><path style="opacity:0.996" fill="#f3edf7" d="M 51.5,26.5 C 54.8333,26.5 58.1667,26.5 61.5,26.5C 66.1667,26.5 70.8333,26.5 75.5,26.5C 76.8333,26.8333 78.1667,27.1667 79.5,27.5C 77.0521,28.4731 74.3854,28.8064 71.5,28.5C 60.3206,28.8279 49.3206,28.4946 38.5,27.5C 42.6344,26.5151 46.9677,26.1818 51.5,26.5 Z"/></g>
<g><path style="opacity:0.999" fill="#ea1cd1" d="M 100.5,27.5 C 100.328,28.4916 100.662,29.1583 101.5,29.5C 101.167,31.5 100.833,33.5 100.5,35.5C 97.5131,35.0022 94.5131,34.5022 91.5,34C 92.2524,33.3292 92.5858,32.4959 92.5,31.5C 93.7206,30.9717 94.8873,30.305 96,29.5C 96.3333,29.8333 96.6667,30.1667 97,30.5C 98.0391,29.2899 99.2058,28.2899 100.5,27.5 Z"/></g>
<g><path style="opacity:0.004" fill="#cca0fc" d="M 13.5,29.5 C 12.475,29.1034 12.3083,28.4368 13,27.5C 13.4643,28.0944 13.631,28.7611 13.5,29.5 Z"/></g>
<g><path style="opacity:0.994" fill="#ede8f4" d="M 36.5,27.5 C 37.1667,27.5 37.8333,27.5 38.5,27.5C 49.3206,28.4946 60.3206,28.8279 71.5,28.5C 72.9516,29.3019 74.6183,29.8019 76.5,30C 64.6595,30.1693 52.9928,30.6693 41.5,31.5C 41.5,31.8333 41.5,32.1667 41.5,32.5C 40.8333,32.5 40.1667,32.5 39.5,32.5C 37.4884,31.9862 35.4884,31.8195 33.5,32C 31.4497,33.9651 29.783,36.1318 28.5,38.5C 28.5,37.8333 28.5,37.1667 28.5,36.5C 29.1098,35.609 29.4431,34.609 29.5,33.5C 31.5,31.8333 33.5,30.1667 35.5,28.5C 36.1667,28.5 36.5,28.1667 36.5,27.5 Z"/></g>
<g><path style="opacity:0.994" fill="#e7ddeb" d="M 79.5,27.5 C 79.8333,27.5 80.1667,27.5 80.5,27.5C 81.1667,27.8333 81.8333,28.1667 82.5,28.5C 84.1423,29.803 85.8089,31.1363 87.5,32.5C 87.5,33.1667 87.8333,33.5 88.5,33.5C 88.5,34.1667 88.5,34.8333 88.5,35.5C 85.5555,35.0614 82.5555,33.8948 79.5,32C 66.8377,31.5001 54.1711,31.3334 41.5,31.5C 52.9928,30.6693 64.6595,30.1693 76.5,30C 74.6183,29.8019 72.9516,29.3019 71.5,28.5C 74.3854,28.8064 77.0521,28.4731 79.5,27.5 Z"/></g>
<g><path style="opacity:0.997" fill="#a967f6" d="M 35.5,28.5 C 33.5,30.1667 31.5,31.8333 29.5,33.5C 24.9275,32.5069 20.2608,31.5069 15.5,30.5C 15.5569,29.391 15.8902,28.391 16.5,27.5C 17.9391,28.5092 19.2724,28.1759 20.5,26.5C 25.632,27.1208 30.632,27.7875 35.5,28.5 Z"/></g>
<g><path style="opacity:0.922" fill="#d0a7f8" d="M 14.5,26.5 C 14.8333,26.5 15.1667,26.5 15.5,26.5C 15.8333,26.5 16.1667,26.5 16.5,26.5C 16.5,26.8333 16.5,27.1667 16.5,27.5C 15.8902,28.391 15.5569,29.391 15.5,30.5C 15.1583,31.3382 14.4916,31.6716 13.5,31.5C 13.5,30.8333 13.5,30.1667 13.5,29.5C 14.404,28.791 14.7373,27.791 14.5,26.5 Z"/></g>
<g><path style="opacity:0.995" fill="#e3dbea" d="M 39.5,32.5 C 39.1667,33.1667 38.8333,33.8333 38.5,34.5C 35.856,35.1439 34.1894,36.8106 33.5,39.5C 32.596,40.209 32.2627,41.209 32.5,42.5C 32.1667,42.5 31.8333,42.5 31.5,42.5C 30.2273,42.0685 29.2273,40.7352 28.5,38.5C 29.783,36.1318 31.4497,33.9651 33.5,32C 35.4884,31.8195 37.4884,31.9862 39.5,32.5 Z"/></g>
<g><path style="opacity:0.996" fill="#7929a1" d="M 39.5,32.5 C 40.1667,32.5 40.8333,32.5 41.5,32.5C 46.1667,32.5 50.8333,32.5 55.5,32.5C 50.9981,34.3818 46.1648,35.7151 41,36.5C 39.6244,36.3158 38.7911,35.6491 38.5,34.5C 38.8333,33.8333 39.1667,33.1667 39.5,32.5 Z"/></g>
<g><path style="opacity:0.999" fill="#b955eb" d="M 15.5,30.5 C 20.2608,31.5069 24.9275,32.5069 29.5,33.5C 29.4431,34.609 29.1098,35.609 28.5,36.5C 28.1667,36.5 27.8333,36.5 27.5,36.5C 23.5633,36.7935 19.73,36.4601 16,35.5C 14.7308,36.9047 14.2308,38.5714 14.5,40.5C 14.1667,40.5 13.8333,40.5 13.5,40.5C 13.5,37.5 13.5,34.5 13.5,31.5C 14.4916,31.6716 15.1583,31.3382 15.5,30.5 Z"/></g>
<g><path style="opacity:0.994" fill="#d8c0d8" d="M 41.5,32.5 C 41.5,32.1667 41.5,31.8333 41.5,31.5C 54.1711,31.3334 66.8377,31.5001 79.5,32C 82.5555,33.8948 85.5555,35.0614 88.5,35.5C 89.5,35.8333 90.1667,36.5 90.5,37.5C 90.5,37.8333 90.5,38.1667 90.5,38.5C 89.71,39.6085 89.21,40.9419 89,42.5C 88.7645,40.8807 87.9311,39.8807 86.5,39.5C 86.1667,38.1667 85.8333,38.1667 85.5,39.5C 83.7122,36.3851 81.0455,34.3851 77.5,33.5C 74.0381,32.5184 70.3714,32.185 66.5,32.5C 65.1667,32.5 63.8333,32.5 62.5,32.5C 60.1667,32.5 57.8333,32.5 55.5,32.5C 50.8333,32.5 46.1667,32.5 41.5,32.5 Z"/></g>
<g><path style="opacity:0.999" fill="#e923cc" d="M 101.5,25.5 C 101.833,25.5 102.167,25.5 102.5,25.5C 102.5,26.8333 102.5,28.1667 102.5,29.5C 102.5,31.5 102.5,33.5 102.5,35.5C 101.696,37.1887 100.696,38.8554 99.5,40.5C 96.7659,38.6294 93.7659,37.6294 90.5,37.5C 90.1667,36.5 89.5,35.8333 88.5,35.5C 88.5,34.8333 88.5,34.1667 88.5,33.5C 89.5137,32.3263 90.847,31.6596 92.5,31.5C 92.5858,32.4959 92.2524,33.3292 91.5,34C 94.5131,34.5022 97.5131,35.0022 100.5,35.5C 100.833,33.5 101.167,31.5 101.5,29.5C 101.5,28.1667 101.5,26.8333 101.5,25.5 Z"/></g>
<g><path style="opacity:0.999" fill="#862aa1" d="M 55.5,32.5 C 57.8333,32.5 60.1667,32.5 62.5,32.5C 60.0466,33.2172 57.7133,34.3838 55.5,36C 47.9056,36.3684 40.5722,37.8684 33.5,40.5C 33.5,40.1667 33.5,39.8333 33.5,39.5C 34.1894,36.8106 35.856,35.1439 38.5,34.5C 38.7911,35.6491 39.6244,36.3158 41,36.5C 46.1648,35.7151 50.9981,34.3818 55.5,32.5 Z"/></g>
<g><path style="opacity:0.997" fill="#ad2493" d="M 66.5,32.5 C 70.3714,32.185 74.0381,32.5184 77.5,33.5C 75.0882,33.6941 74.0882,35.0274 74.5,37.5C 69.8919,37.3115 65.8919,38.6448 62.5,41.5C 57.4361,40.9092 52.7695,41.9092 48.5,44.5C 43.1951,45.1942 37.8617,45.5276 32.5,45.5C 32.5,45.1667 32.5,44.8333 32.5,44.5C 35.8499,44.665 39.1832,44.4983 42.5,44C 48.6253,41.7763 54.9587,40.443 61.5,40C 62.3279,39.0853 63.3279,38.4186 64.5,38C 63.9056,37.5357 63.2389,37.369 62.5,37.5C 64.2065,36.1274 65.5398,34.4607 66.5,32.5 Z"/></g>
<g><path style="opacity:0.996" fill="#e1cedc" d="M 81.5,41.5 C 80.2196,42.9313 78.5529,43.5979 76.5,43.5C 75.3995,42.3951 74.7329,41.0618 74.5,39.5C 75.7058,36.8609 77.7058,36.0276 80.5,37C 81.3802,38.3561 81.7135,39.8561 81.5,41.5 Z"/></g>
<g><path style="opacity:0.998" fill="#e81cc1" d="M 102.5,35.5 C 102.475,38.9604 101.808,42.2937 100.5,45.5C 97.4893,43.8044 94.8227,41.8044 92.5,39.5C 92.1667,39.5 91.8333,39.5 91.5,39.5C 91.5,38.8333 91.1667,38.5 90.5,38.5C 90.5,38.1667 90.5,37.8333 90.5,37.5C 93.7659,37.6294 96.7659,38.6294 99.5,40.5C 100.696,38.8554 101.696,37.1887 102.5,35.5 Z"/></g>
<g><path style="opacity:0.998" fill="#b5258e" d="M 77.5,33.5 C 81.0455,34.3851 83.7122,36.3851 85.5,39.5C 85.5,40.1667 85.5,40.8333 85.5,41.5C 84.1667,40.1667 82.8333,40.1667 81.5,41.5C 81.7135,39.8561 81.3802,38.3561 80.5,37C 77.7058,36.0276 75.7058,36.8609 74.5,39.5C 71.0836,39.5275 68.0836,40.5275 65.5,42.5C 64.391,42.4431 63.391,42.1098 62.5,41.5C 65.8919,38.6448 69.8919,37.3115 74.5,37.5C 74.0882,35.0274 75.0882,33.6941 77.5,33.5 Z"/></g>
<g><path style="opacity:0.998" fill="#9a269e" d="M 62.5,32.5 C 63.8333,32.5 65.1667,32.5 66.5,32.5C 65.5398,34.4607 64.2065,36.1274 62.5,37.5C 52.9818,39.2042 43.4818,40.8708 34,42.5C 33.5357,41.9056 33.369,41.2389 33.5,40.5C 40.5722,37.8684 47.9056,36.3684 55.5,36C 57.7133,34.3838 60.0466,33.2172 62.5,32.5 Z"/></g>
<g><path style="opacity:0.998" fill="#cc48e0" d="M 27.5,36.5 C 27.5,37.5 27.5,38.5 27.5,39.5C 26.6618,39.8417 26.3284,40.5084 26.5,41.5C 22.5191,42.0209 18.5191,42.3542 14.5,42.5C 14.5,41.8333 14.5,41.1667 14.5,40.5C 14.2308,38.5714 14.7308,36.9047 16,35.5C 19.73,36.4601 23.5633,36.7935 27.5,36.5 Z"/></g>
<g><path style="opacity:0.996" fill="#e2d1dd" d="M 90.5,38.5 C 90.6663,45.8409 90.4997,53.1742 90,60.5C 89.8923,56.5349 89.059,52.8683 87.5,49.5C 87.7471,46.0613 87.4137,42.728 86.5,39.5C 87.9311,39.8807 88.7645,40.8807 89,42.5C 89.21,40.9419 89.71,39.6085 90.5,38.5 Z"/></g>
<g><path style="opacity:1" fill="#df1bb1" d="M 102.5,29.5 C 103.95,36.1193 103.617,42.7859 101.5,49.5C 97.7433,46.7488 94.7433,43.4154 92.5,39.5C 94.8227,41.8044 97.4893,43.8044 100.5,45.5C 101.808,42.2937 102.475,38.9604 102.5,35.5C 102.5,33.5 102.5,31.5 102.5,29.5 Z"/></g>
<g><path style="opacity:1" fill="#c82788" d="M 74.5,39.5 C 74.7329,41.0618 75.3995,42.3951 76.5,43.5C 75.7784,43.9175 75.2784,44.5842 75,45.5C 73.692,44.8487 72.8586,45.5154 72.5,47.5C 71.8333,47.1667 71.1667,46.8333 70.5,46.5C 69.4206,44.457 67.754,43.1237 65.5,42.5C 68.0836,40.5275 71.0836,39.5275 74.5,39.5 Z"/></g>
<g><path style="opacity:1" fill="#b02ba0" d="M 62.5,37.5 C 63.2389,37.369 63.9056,37.5357 64.5,38C 63.3279,38.4186 62.3279,39.0853 61.5,40C 54.9587,40.443 48.6253,41.7763 42.5,44C 39.1832,44.4983 35.8499,44.665 32.5,44.5C 32.5,43.8333 32.5,43.1667 32.5,42.5C 32.2627,41.209 32.596,40.209 33.5,39.5C 33.5,39.8333 33.5,40.1667 33.5,40.5C 33.369,41.2389 33.5357,41.9056 34,42.5C 43.4818,40.8708 52.9818,39.2042 62.5,37.5 Z"/></g>
<g><path style="opacity:0.994" fill="#e9dde5" d="M 62.5,41.5 C 63.391,42.1098 64.391,42.4431 65.5,42.5C 67.754,43.1237 69.4206,44.457 70.5,46.5C 67.9223,47.2541 65.2556,47.2541 62.5,46.5C 62.1667,46.5 61.8333,46.5 61.5,46.5C 57.3414,45.4954 53.3414,45.4954 49.5,46.5C 47.8513,47.6477 46.3513,48.981 45,50.5C 44.6012,50.2716 44.4346,49.9382 44.5,49.5C 44.5,49.1667 44.5,48.8333 44.5,48.5C 46.1667,47.5 47.5,46.1667 48.5,44.5C 52.7695,41.9092 57.4361,40.9092 62.5,41.5 Z"/></g>
<g><path style="opacity:0.998" fill="#da40cf" d="M 26.5,41.5 C 26.5,43.5 26.5,45.5 26.5,47.5C 22.8936,47.2108 19.3936,47.5442 16,48.5C 14.6814,46.7505 14.1814,44.7505 14.5,42.5C 18.5191,42.3542 22.5191,42.0209 26.5,41.5 Z"/></g>
<g><path style="opacity:0.998" fill="#c52f90" d="M 48.5,44.5 C 47.5,46.1667 46.1667,47.5 44.5,48.5C 40.5191,49.0209 36.5191,49.3542 32.5,49.5C 32.5,48.1667 32.5,46.8333 32.5,45.5C 37.8617,45.5276 43.1951,45.1942 48.5,44.5 Z"/></g>
<g><path style="opacity:0.998" fill="#e33ab8" d="M 13.5,40.5 C 13.8333,40.5 14.1667,40.5 14.5,40.5C 14.5,41.1667 14.5,41.8333 14.5,42.5C 14.1814,44.7505 14.6814,46.7505 16,48.5C 19.3936,47.5442 22.8936,47.2108 26.5,47.5C 26.5,48.8333 26.5,50.1667 26.5,51.5C 22.7846,51.1961 19.2846,51.8627 16,53.5C 15.0147,51.8251 14.1814,50.1585 13.5,48.5C 13.5,45.8333 13.5,43.1667 13.5,40.5 Z"/></g>
<g><path style="opacity:0.997" fill="#bb2148" d="M 61.5,46.5 C 61.8333,46.5 62.1667,46.5 62.5,46.5C 64.0764,47.1429 65.4097,48.1429 66.5,49.5C 60.6051,50.9345 54.6051,51.9345 48.5,52.5C 51.4031,47.5501 55.7364,45.5501 61.5,46.5 Z"/></g>
<g><path style="opacity:0.998" fill="#e51f65" d="M 84.5,51.5 C 84.6621,53.5273 84.4955,55.5273 84,57.5C 83.586,57.9574 83.086,58.2907 82.5,58.5C 79.8849,56.6755 77.8849,55.0088 76.5,53.5C 75.6618,53.1583 75.3284,52.4916 75.5,51.5C 75.4701,50.5028 75.9701,49.8361 77,49.5C 79.4993,50.0831 81.4993,51.4164 83,53.5C 83.2784,52.5842 83.7784,51.9175 84.5,51.5 Z"/></g>
<g><path style="opacity:0.997" fill="#d21a65" d="M 85.5,41.5 C 85.5,44.8333 85.5,48.1667 85.5,51.5C 85.1667,51.5 84.8333,51.5 84.5,51.5C 83.7784,51.9175 83.2784,52.5842 83,53.5C 81.4993,51.4164 79.4993,50.0831 77,49.5C 75.9701,49.8361 75.4701,50.5028 75.5,51.5C 74.5116,50.205 73.5116,48.8717 72.5,47.5C 72.8586,45.5154 73.692,44.8487 75,45.5C 75.2784,44.5842 75.7784,43.9175 76.5,43.5C 78.5529,43.5979 80.2196,42.9313 81.5,41.5C 82.8333,40.1667 84.1667,40.1667 85.5,41.5 Z"/></g>
<g><path style="opacity:0.999" fill="#d422a1" d="M 102.5,25.5 C 102.833,25.5 103.167,25.5 103.5,25.5C 103.328,26.4916 103.662,27.1583 104.5,27.5C 104.5,34.1667 104.5,40.8333 104.5,47.5C 103.736,49.7397 102.902,52.0731 102,54.5C 100.335,52.1945 98.6686,49.8612 97,47.5C 95.549,45.5359 93.7157,44.2026 91.5,43.5C 91.5,42.1667 91.5,40.8333 91.5,39.5C 91.8333,39.5 92.1667,39.5 92.5,39.5C 94.7433,43.4154 97.7433,46.7488 101.5,49.5C 103.617,42.7859 103.95,36.1193 102.5,29.5C 102.5,28.1667 102.5,26.8333 102.5,25.5 Z"/></g>
<g><path style="opacity:0.997" fill="#d02a7a" d="M 44.5,48.5 C 44.5,48.8333 44.5,49.1667 44.5,49.5C 43.8333,50.1667 43.1667,50.8333 42.5,51.5C 39.1667,51.5 35.8333,51.5 32.5,51.5C 32.5,50.8333 32.5,50.1667 32.5,49.5C 36.5191,49.3542 40.5191,49.0209 44.5,48.5 Z"/></g>
<g><path style="opacity:0.995" fill="#e3d1da" d="M 61.5,46.5 C 55.7364,45.5501 51.4031,47.5501 48.5,52.5C 47.3263,53.5137 46.6596,54.847 46.5,56.5C 45.6981,57.9516 45.1981,59.6183 45,61.5C 44.6667,60.1667 44.3333,58.8333 44,57.5C 43.6667,59.5 43.3333,61.5 43,63.5C 42.5017,60.1832 42.335,56.8499 42.5,53.5C 42.5,52.8333 42.5,52.1667 42.5,51.5C 43.1667,50.8333 43.8333,50.1667 44.5,49.5C 44.4346,49.9382 44.6012,50.2716 45,50.5C 46.3513,48.981 47.8513,47.6477 49.5,46.5C 53.3414,45.4954 57.3414,45.4954 61.5,46.5 Z"/></g>
<g><path style="opacity:0.995" fill="#e2ccd6" d="M 62.5,46.5 C 65.2556,47.2541 67.9223,47.2541 70.5,46.5C 71.1667,46.8333 71.8333,47.1667 72.5,47.5C 73.5116,48.8717 74.5116,50.205 75.5,51.5C 75.3284,52.4916 75.6618,53.1583 76.5,53.5C 76.5,56.1667 76.5,58.8333 76.5,61.5C 76.5,62.1667 76.5,62.8333 76.5,63.5C 75.6618,63.8417 75.3284,64.5084 75.5,65.5C 74.5284,63.5069 73.1951,63.1736 71.5,64.5C 71.5,63.8333 71.5,63.1667 71.5,62.5C 71.8064,59.6146 71.4731,56.9479 70.5,54.5C 70.6716,53.5084 70.3382,52.8417 69.5,52.5C 68.8333,51.1667 67.8333,50.1667 66.5,49.5C 65.4097,48.1429 64.0764,47.1429 62.5,46.5 Z"/></g>
<g><path style="opacity:0.994" fill="#e8dce4" d="M 27.5,36.5 C 27.8333,36.5 28.1667,36.5 28.5,36.5C 28.5,37.1667 28.5,37.8333 28.5,38.5C 29.2273,40.7352 30.2273,42.0685 31.5,42.5C 31.6663,49.175 31.4996,55.8417 31,62.5C 30.8142,60.0995 30.3142,57.7662 29.5,55.5C 28.6687,62.8108 28.1687,70.1441 28,77.5C 27.5001,64.8377 27.3334,52.1711 27.5,39.5C 27.5,38.5 27.5,37.5 27.5,36.5 Z"/></g>
<g><path style="opacity:0.999" fill="#cf2241" d="M 66.5,49.5 C 67.8333,50.1667 68.8333,51.1667 69.5,52.5C 63.5167,53.8283 57.1834,54.6616 50.5,55C 49.9558,55.7172 49.2891,56.2172 48.5,56.5C 47.4929,56.4524 47.1596,57.4524 47.5,59.5C 47.5,60.5 47.5,61.5 47.5,62.5C 46.5386,60.7354 46.2053,58.7354 46.5,56.5C 46.6596,54.847 47.3263,53.5137 48.5,52.5C 54.6051,51.9345 60.6051,50.9345 66.5,49.5 Z"/></g>
<g><path style="opacity:0.995" fill="#d71c8c" d="M 91.5,43.5 C 93.7157,44.2026 95.549,45.5359 97,47.5C 98.6686,49.8612 100.335,52.1945 102,54.5C 102.902,52.0731 103.736,49.7397 104.5,47.5C 104.5,51.8333 104.5,56.1667 104.5,60.5C 103.778,60.9175 103.278,61.5842 103,62.5C 99.4246,59.0474 96.0913,55.3807 93,51.5C 92.6174,52.056 92.1174,52.3893 91.5,52.5C 91.5,49.5 91.5,46.5 91.5,43.5 Z"/></g>
<g><path style="opacity:0.999" fill="#ef3698" d="M 13.5,48.5 C 14.1814,50.1585 15.0147,51.8251 16,53.5C 19.2846,51.8627 22.7846,51.1961 26.5,51.5C 26.5,53.1667 26.5,54.8333 26.5,56.5C 22.9042,56.1533 19.5709,56.82 16.5,58.5C 15.2613,58.0576 14.2613,57.3909 13.5,56.5C 13.5,53.8333 13.5,51.1667 13.5,48.5 Z"/></g>
<g><path style="opacity:0.998" fill="#db2861" d="M 32.5,51.5 C 35.8333,51.5 39.1667,51.5 42.5,51.5C 42.5,52.1667 42.5,52.8333 42.5,53.5C 42.1667,53.5 41.8333,53.5 41.5,53.5C 38.8555,55.2419 35.8555,55.9086 32.5,55.5C 32.5,54.1667 32.5,52.8333 32.5,51.5 Z"/></g>
<g><path style="opacity:1" fill="#da1f3a" d="M 69.5,52.5 C 70.3382,52.8417 70.6716,53.5084 70.5,54.5C 69.7784,54.9175 69.2784,55.5842 69,56.5C 68.6121,55.572 67.9454,54.9054 67,54.5C 61.9157,54.9445 57.0823,55.9445 52.5,57.5C 50.901,57.7678 49.5676,57.4345 48.5,56.5C 49.2891,56.2172 49.9558,55.7172 50.5,55C 57.1834,54.6616 63.5167,53.8283 69.5,52.5 Z"/></g>
<g><path style="opacity:0.992" fill="#e9ccd7" d="M 86.5,39.5 C 87.4137,42.728 87.7471,46.0613 87.5,49.5C 87.8269,59.015 87.4936,68.3483 86.5,77.5C 86.1667,77.5 85.8333,77.5 85.5,77.5C 85.5,74.8333 85.5,72.1667 85.5,69.5C 85.5,67.5 85.5,65.5 85.5,63.5C 85.5,59.5 85.5,55.5 85.5,51.5C 85.5,48.1667 85.5,44.8333 85.5,41.5C 85.5,40.8333 85.5,40.1667 85.5,39.5C 85.8333,38.1667 86.1667,38.1667 86.5,39.5 Z"/></g>
<g><path style="opacity:0.998" fill="#e22136" d="M 70.5,54.5 C 71.4731,56.9479 71.8064,59.6146 71.5,62.5C 71.1667,62.5 70.8333,62.5 70.5,62.5C 70.5654,62.0618 70.3988,61.7284 70,61.5C 69.6667,62.1667 69.3333,62.8333 69,63.5C 68.2217,61.416 67.055,59.5827 65.5,58C 60.9661,57.6661 56.6328,57.4994 52.5,57.5C 57.0823,55.9445 61.9157,54.9445 67,54.5C 67.9454,54.9054 68.6121,55.572 69,56.5C 69.2784,55.5842 69.7784,54.9175 70.5,54.5 Z"/></g>
<g><path style="opacity:0.998" fill="#e42a4c" d="M 41.5,53.5 C 41.5,55.8333 41.5,58.1667 41.5,60.5C 40.7321,59.7375 40.2321,58.7375 40,57.5C 37.5092,58.2202 35.0092,58.8869 32.5,59.5C 32.5,58.1667 32.5,56.8333 32.5,55.5C 35.8555,55.9086 38.8555,55.2419 41.5,53.5 Z"/></g>
<g><path style="opacity:0.998" fill="#d92278" d="M 104.5,60.5 C 104.5,67.1667 104.5,73.8333 104.5,80.5C 104.167,80.5 103.833,80.5 103.5,80.5C 102.933,74.1318 100.933,68.1318 97.5,62.5C 95.3776,60.5487 93.8776,58.2154 93,55.5C 92.8019,57.3817 92.3019,59.0484 91.5,60.5C 91.5,57.8333 91.5,55.1667 91.5,52.5C 92.1174,52.3893 92.6174,52.056 93,51.5C 96.0913,55.3807 99.4246,59.0474 103,62.5C 103.278,61.5842 103.778,60.9175 104.5,60.5 Z"/></g>
<g><path style="opacity:0.997" fill="#e9235c" d="M 84.5,51.5 C 84.8333,51.5 85.1667,51.5 85.5,51.5C 85.5,55.5 85.5,59.5 85.5,63.5C 84.8826,63.6107 84.3826,63.944 84,64.5C 81.2015,62.3767 79.2015,59.7101 78,56.5C 77.8019,58.3817 77.3019,60.0484 76.5,61.5C 76.5,58.8333 76.5,56.1667 76.5,53.5C 77.8849,55.0088 79.8849,56.6755 82.5,58.5C 83.086,58.2907 83.586,57.9574 84,57.5C 84.4955,55.5273 84.6621,53.5273 84.5,51.5 Z"/></g>
<g><path style="opacity:0.999" fill="#f63475" d="M 13.5,56.5 C 14.2613,57.3909 15.2613,58.0576 16.5,58.5C 19.5709,56.82 22.9042,56.1533 26.5,56.5C 26.5,57.5 26.5,58.5 26.5,59.5C 23.5123,60.1611 20.5123,60.8278 17.5,61.5C 16.0755,61.3767 14.7421,61.0434 13.5,60.5C 13.5,59.1667 13.5,57.8333 13.5,56.5 Z"/></g>
<g><path style="opacity:0.999" fill="#ea2531" d="M 48.5,56.5 C 49.5676,57.4345 50.901,57.7678 52.5,57.5C 56.6328,57.4994 60.9661,57.6661 65.5,58C 67.055,59.5827 68.2217,61.416 69,63.5C 69.3333,62.8333 69.6667,62.1667 70,61.5C 70.3988,61.7284 70.5654,62.0618 70.5,62.5C 70.7709,64.3797 70.1042,65.713 68.5,66.5C 68.1667,65.8333 67.8333,65.1667 67.5,64.5C 67.2435,62.2239 65.9102,61.0572 63.5,61C 60.6337,59.7241 57.8003,59.5574 55,60.5C 52.7769,59.2168 50.6103,58.8834 48.5,59.5C 48.1667,59.5 47.8333,59.5 47.5,59.5C 47.1596,57.4524 47.4929,56.4524 48.5,56.5 Z"/></g>
<g><path style="opacity:0.999" fill="#ef262a" d="M 67.5,64.5 C 63.6414,63.5709 59.8081,63.5709 56,64.5C 53.5941,64.2971 51.5941,63.2971 50,61.5C 49.6667,62.1667 49.3333,62.8333 49,63.5C 48.51,62.2068 48.3433,60.8734 48.5,59.5C 50.6103,58.8834 52.7769,59.2168 55,60.5C 57.8003,59.5574 60.6337,59.7241 63.5,61C 65.9102,61.0572 67.2435,62.2239 67.5,64.5 Z"/></g>
<g><path style="opacity:0.995" fill="#dfc5d0" d="M 90.5,38.5 C 91.1667,38.5 91.5,38.8333 91.5,39.5C 91.5,40.8333 91.5,42.1667 91.5,43.5C 91.5,46.5 91.5,49.5 91.5,52.5C 91.5,55.1667 91.5,57.8333 91.5,60.5C 91.5,62.1667 91.5,63.8333 91.5,65.5C 91.5,68.8333 91.5,72.1667 91.5,75.5C 90.962,77.1172 90.6287,78.7839 90.5,80.5C 90.1667,81.1667 89.8333,81.8333 89.5,82.5C 89.5,83.1667 89.1667,83.5 88.5,83.5C 88.3964,81.2972 87.7298,79.2972 86.5,77.5C 87.4936,68.3483 87.8269,59.015 87.5,49.5C 89.059,52.8683 89.8923,56.5349 90,60.5C 90.4997,53.1742 90.6663,45.8409 90.5,38.5 Z"/></g>
<g><path style="opacity:0.998" fill="#fa3552" d="M 26.5,59.5 C 26.5,60.5 26.5,61.5 26.5,62.5C 22.8598,65.0575 18.8598,67.0575 14.5,68.5C 14.5,69.8333 14.5,71.1667 14.5,72.5C 14.1667,72.5 13.8333,72.5 13.5,72.5C 13.5,68.5 13.5,64.5 13.5,60.5C 14.7421,61.0434 16.0755,61.3767 17.5,61.5C 20.5123,60.8278 23.5123,60.1611 26.5,59.5 Z"/></g>
<g><path style="opacity:0.997" fill="#eb2144" d="M 85.5,63.5 C 85.5,65.5 85.5,67.5 85.5,69.5C 82.5178,67.5258 79.5178,65.5258 76.5,63.5C 76.5,62.8333 76.5,62.1667 76.5,61.5C 77.3019,60.0484 77.8019,58.3817 78,56.5C 79.2015,59.7101 81.2015,62.3767 84,64.5C 84.3826,63.944 84.8826,63.6107 85.5,63.5 Z"/></g>
<g><path style="opacity:0.995" fill="#ebcbd1" d="M 41.5,53.5 C 41.8333,53.5 42.1667,53.5 42.5,53.5C 42.335,56.8499 42.5017,60.1832 43,63.5C 43.3333,61.5 43.6667,59.5 44,57.5C 44.3333,58.8333 44.6667,60.1667 45,61.5C 45.1981,59.6183 45.6981,57.9516 46.5,56.5C 46.2053,58.7354 46.5386,60.7354 47.5,62.5C 47.9752,64.7837 48.9752,66.7837 50.5,68.5C 48.1667,67.8333 45.8333,67.1667 43.5,66.5C 43.1667,66.5 42.8333,66.5 42.5,66.5C 41.8505,64.5648 41.5172,62.5648 41.5,60.5C 41.5,58.1667 41.5,55.8333 41.5,53.5 Z"/></g>
<g><path style="opacity:0.997" fill="#f32929" d="M 41.5,60.5 C 41.5172,62.5648 41.8505,64.5648 42.5,66.5C 40.2309,66.696 37.7309,67.3626 35,68.5C 34.6667,67.5 34.3333,66.5 34,65.5C 33.7216,66.4158 33.2216,67.0825 32.5,67.5C 32.5,64.8333 32.5,62.1667 32.5,59.5C 35.0092,58.8869 37.5092,58.2202 40,57.5C 40.2321,58.7375 40.7321,59.7375 41.5,60.5 Z"/></g>
<g><path style="opacity:0.998" fill="#f73225" d="M 65.5,69.5 C 61.1667,72.1667 56.8333,72.1667 52.5,69.5C 53.7914,68.5272 53.7914,67.5272 52.5,66.5C 56.122,65.3414 59.7887,65.1747 63.5,66C 62.9515,67.5961 63.6182,68.7627 65.5,69.5 Z"/></g>
<g><path style="opacity:0.998" fill="#f22b28" d="M 47.5,59.5 C 47.8333,59.5 48.1667,59.5 48.5,59.5C 48.3433,60.8734 48.51,62.2068 49,63.5C 49.3333,62.8333 49.6667,62.1667 50,61.5C 51.5941,63.2971 53.5941,64.2971 56,64.5C 59.8081,63.5709 63.6414,63.5709 67.5,64.5C 67.8333,65.1667 68.1667,65.8333 68.5,66.5C 67.8333,67.8333 66.8333,68.8333 65.5,69.5C 63.6182,68.7627 62.9515,67.5961 63.5,66C 59.7887,65.1747 56.122,65.3414 52.5,66.5C 53.7914,67.5272 53.7914,68.5272 52.5,69.5C 51.8333,69.1667 51.1667,68.8333 50.5,68.5C 48.9752,66.7837 47.9752,64.7837 47.5,62.5C 47.5,61.5 47.5,60.5 47.5,59.5 Z"/></g>
<g><path style="opacity:0.997" fill="#ea2638" d="M 76.5,63.5 C 79.5178,65.5258 82.5178,67.5258 85.5,69.5C 85.5,72.1667 85.5,74.8333 85.5,77.5C 85.1667,77.5 84.8333,77.5 84.5,77.5C 82.6155,72.9462 79.6155,69.2795 75.5,66.5C 75.5,66.1667 75.5,65.8333 75.5,65.5C 75.3284,64.5084 75.6618,63.8417 76.5,63.5 Z"/></g>
<g><path style="opacity:0.998" fill="#df1f6e" d="M 103.5,80.5 C 103.631,81.2389 103.464,81.9056 103,82.5C 100.768,76.6073 98.2677,70.9406 95.5,65.5C 94.0337,64.653 93.2004,63.3197 93,61.5C 92.79,63.0581 92.29,64.3915 91.5,65.5C 91.5,63.8333 91.5,62.1667 91.5,60.5C 92.3019,59.0484 92.8019,57.3817 93,55.5C 93.8776,58.2154 95.3776,60.5487 97.5,62.5C 100.933,68.1318 102.933,74.1318 103.5,80.5 Z"/></g>
<g><path style="opacity:0.998" fill="#fd353d" d="M 26.5,62.5 C 26.5,64.5 26.5,66.5 26.5,68.5C 25.1266,68.3433 23.7932,68.51 22.5,69C 19.9783,71.0902 17.3116,72.9235 14.5,74.5C 14.5,73.8333 14.5,73.1667 14.5,72.5C 14.5,71.1667 14.5,69.8333 14.5,68.5C 18.8598,67.0575 22.8598,65.0575 26.5,62.5 Z"/></g>
<g><path style="opacity:1" fill="#f4341f" d="M 42.5,66.5 C 42.8333,66.5 43.1667,66.5 43.5,66.5C 44.075,68.4113 45.075,70.078 46.5,71.5C 45.7784,71.9175 45.2784,72.5842 45,73.5C 39.6193,71.7323 35.786,73.3989 33.5,78.5C 32.6561,74.9009 32.3227,71.2343 32.5,67.5C 33.2216,67.0825 33.7216,66.4158 34,65.5C 34.3333,66.5 34.6667,67.5 35,68.5C 37.7309,67.3626 40.2309,66.696 42.5,66.5 Z"/></g>
<g><path style="opacity:0.998" fill="#e5235d" d="M 95.5,65.5 C 96.2092,70.9172 98.0425,75.9172 101,80.5C 101.826,83.7928 102.326,87.1262 102.5,90.5C 101.25,90.4226 100.417,89.756 100,88.5C 97.6614,81.4843 95.3281,74.4843 93,67.5C 92.8171,70.3647 92.3171,73.0314 91.5,75.5C 91.5,72.1667 91.5,68.8333 91.5,65.5C 92.29,64.3915 92.79,63.0581 93,61.5C 93.2004,63.3197 94.0337,64.653 95.5,65.5 Z"/></g>
<g><path style="opacity:0.994" fill="#e12f67" d="M 95.5,65.5 C 98.2677,70.9406 100.768,76.6073 103,82.5C 103.464,81.9056 103.631,81.2389 103.5,80.5C 103.833,80.5 104.167,80.5 104.5,80.5C 104.5,83.8333 104.5,87.1667 104.5,90.5C 103.662,90.8417 103.328,91.5084 103.5,92.5C 103.167,92.5 102.833,92.5 102.5,92.5C 102.5,91.8333 102.5,91.1667 102.5,90.5C 102.326,87.1262 101.826,83.7928 101,80.5C 98.0425,75.9172 96.2092,70.9172 95.5,65.5 Z"/></g>
<g><path style="opacity:0.993" fill="#ebcace" d="M 27.5,39.5 C 27.3334,52.1711 27.5001,64.8377 28,77.5C 28.1687,70.1441 28.6687,62.8108 29.5,55.5C 30.3142,57.7662 30.8142,60.0995 31,62.5C 31.4996,55.8417 31.6663,49.175 31.5,42.5C 31.8333,42.5 32.1667,42.5 32.5,42.5C 32.5,43.1667 32.5,43.8333 32.5,44.5C 32.5,44.8333 32.5,45.1667 32.5,45.5C 32.5,46.8333 32.5,48.1667 32.5,49.5C 32.5,50.1667 32.5,50.8333 32.5,51.5C 32.5,52.8333 32.5,54.1667 32.5,55.5C 32.5,56.8333 32.5,58.1667 32.5,59.5C 32.5,62.1667 32.5,64.8333 32.5,67.5C 32.3227,71.2343 32.6561,74.9009 33.5,78.5C 33.8333,79.5 34.5,80.1667 35.5,80.5C 35.8333,81.5 36.5,82.1667 37.5,82.5C 37.5,82.8333 37.5,83.1667 37.5,83.5C 35.8333,83.5 34.1667,83.5 32.5,83.5C 32.5,84.5 32.5,85.5 32.5,86.5C 32.1667,86.5 31.8333,86.5 31.5,86.5C 29.8193,83.7972 28.1526,81.1305 26.5,78.5C 26.5,77.1667 26.5,75.8333 26.5,74.5C 26.5,72.5 26.5,70.5 26.5,68.5C 26.5,66.5 26.5,64.5 26.5,62.5C 26.5,61.5 26.5,60.5 26.5,59.5C 26.5,58.5 26.5,57.5 26.5,56.5C 26.5,54.8333 26.5,53.1667 26.5,51.5C 26.5,50.1667 26.5,48.8333 26.5,47.5C 26.5,45.5 26.5,43.5 26.5,41.5C 26.3284,40.5084 26.6618,39.8417 27.5,39.5 Z"/></g>
<g><path style="opacity:0.996" fill="#e8ccd0" d="M 75.5,65.5 C 75.5,65.8333 75.5,66.1667 75.5,66.5C 74.5116,67.795 73.5116,69.1283 72.5,70.5C 70.5,72.1667 68.5,73.8333 66.5,75.5C 65.8333,75.5 65.1667,75.5 64.5,75.5C 64.5858,74.5041 64.2524,73.6708 63.5,73C 67.0705,70.9322 69.7371,68.0988 71.5,64.5C 73.1951,63.1736 74.5284,63.5069 75.5,65.5 Z"/></g>
<g><path style="opacity:0.999" fill="#fd382f" d="M 26.5,68.5 C 26.5,70.5 26.5,72.5 26.5,74.5C 25.8485,73.9094 25.1818,73.2427 24.5,72.5C 21.4362,75.5703 18.1029,78.2369 14.5,80.5C 14.5,78.5 14.5,76.5 14.5,74.5C 17.3116,72.9235 19.9783,71.0902 22.5,69C 23.7932,68.51 25.1266,68.3433 26.5,68.5 Z"/></g>
<g><path style="opacity:0.995" fill="#ecd4d7" d="M 70.5,62.5 C 70.8333,62.5 71.1667,62.5 71.5,62.5C 71.5,63.1667 71.5,63.8333 71.5,64.5C 69.7371,68.0988 67.0705,70.9322 63.5,73C 64.2524,73.6708 64.5858,74.5041 64.5,75.5C 57.6841,77.6884 51.6841,76.3551 46.5,71.5C 45.075,70.078 44.075,68.4113 43.5,66.5C 45.8333,67.1667 48.1667,67.8333 50.5,68.5C 51.1667,68.8333 51.8333,69.1667 52.5,69.5C 56.8333,72.1667 61.1667,72.1667 65.5,69.5C 66.8333,68.8333 67.8333,67.8333 68.5,66.5C 70.1042,65.713 70.7709,64.3797 70.5,62.5 Z"/></g>
<g><path style="opacity:0.997" fill="#ed292b" d="M 75.5,66.5 C 79.6155,69.2795 82.6155,72.9462 84.5,77.5C 84.5,78.1667 84.5,78.8333 84.5,79.5C 83.5275,81.1392 82.1942,82.4726 80.5,83.5C 79.8333,82.8333 79.1667,82.1667 78.5,81.5C 79.2891,81.2172 79.9558,80.7172 80.5,80C 78.2728,77.4359 76.4394,74.6026 75,71.5C 74.3292,70.7476 73.4959,70.4142 72.5,70.5C 73.5116,69.1283 74.5116,67.795 75.5,66.5 Z"/></g>
<g><path style="opacity:0.998" fill="#ee2821" d="M 72.5,70.5 C 73.4959,70.4142 74.3292,70.7476 75,71.5C 76.4394,74.6026 78.2728,77.4359 80.5,80C 79.9558,80.7172 79.2891,81.2172 78.5,81.5C 76.2043,79.5994 74.371,77.2661 73,74.5C 71.1921,76.5582 69.0254,76.8916 66.5,75.5C 68.5,73.8333 70.5,72.1667 72.5,70.5 Z"/></g>
<g><path style="opacity:0.008" fill="#d42877" d="M 105.5,30.5 C 106.662,49.6623 106.829,68.9956 106,88.5C 105.5,69.1695 105.333,49.8362 105.5,30.5 Z"/></g>
<g><path style="opacity:0.998" fill="#ed501e" d="M 45.5,75.5 C 52.3795,77.4045 59.3795,78.9045 66.5,80C 67.4061,81.6995 67.7394,83.5328 67.5,85.5C 66.5,85.5 65.5,85.5 64.5,85.5C 64.5,84.5 64.5,83.5 64.5,82.5C 59.4928,81.4438 54.4928,80.2772 49.5,79C 47.4556,78.5017 46.1223,77.335 45.5,75.5 Z"/></g>
<g><path style="opacity:0.998" fill="#ef441f" d="M 46.5,71.5 C 51.6841,76.3551 57.6841,77.6884 64.5,75.5C 65.1667,75.5 65.8333,75.5 66.5,75.5C 67.0577,76.7899 68.0577,77.6232 69.5,78C 68.8333,78.3333 68.1667,78.6667 67.5,79C 71.4093,79.7919 72.4093,81.9586 70.5,85.5C 69.5,85.5 68.5,85.5 67.5,85.5C 67.7394,83.5328 67.4061,81.6995 66.5,80C 59.3795,78.9045 52.3795,77.4045 45.5,75.5C 42.2761,75.2035 39.2761,75.8702 36.5,77.5C 35.6143,78.325 35.281,79.325 35.5,80.5C 34.5,80.1667 33.8333,79.5 33.5,78.5C 35.786,73.3989 39.6193,71.7323 45,73.5C 45.2784,72.5842 45.7784,71.9175 46.5,71.5 Z"/></g>
<g><path style="opacity:0.998" fill="#f1301e" d="M 78.5,81.5 C 79.1667,82.1667 79.8333,82.8333 80.5,83.5C 79.2905,83.9321 78.2905,84.5987 77.5,85.5C 75.1667,85.5 72.8333,85.5 70.5,85.5C 72.4093,81.9586 71.4093,79.7919 67.5,79C 68.1667,78.6667 68.8333,78.3333 69.5,78C 68.0577,77.6232 67.0577,76.7899 66.5,75.5C 69.0254,76.8916 71.1921,76.5582 73,74.5C 74.371,77.2661 76.2043,79.5994 78.5,81.5 Z"/></g>
<g><path style="opacity:0.247" fill="#ef5946" d="M 13.5,72.5 C 13.8333,72.5 14.1667,72.5 14.5,72.5C 14.5,73.1667 14.5,73.8333 14.5,74.5C 14.5,76.5 14.5,78.5 14.5,80.5C 14.7038,83.5176 15.0371,86.5176 15.5,89.5C 16.3007,91.0418 16.634,92.7085 16.5,94.5C 15.2028,92.6287 14.2028,90.6287 13.5,88.5C 13.5,83.1667 13.5,77.8333 13.5,72.5 Z"/></g>
<g><path style="opacity:0.998" fill="#fe3c24" d="M 26.5,74.5 C 26.5,75.8333 26.5,77.1667 26.5,78.5C 26.5,79.1667 26.1667,79.5 25.5,79.5C 25.719,78.325 25.3857,77.325 24.5,76.5C 20.9824,80.6483 17.9824,84.9816 15.5,89.5C 15.0371,86.5176 14.7038,83.5176 14.5,80.5C 18.1029,78.2369 21.4362,75.5703 24.5,72.5C 25.1818,73.2427 25.8485,73.9094 26.5,74.5 Z"/></g>
<g><path style="opacity:0.996" fill="#f76c24" d="M 45.5,75.5 C 46.1223,77.335 47.4556,78.5017 49.5,79C 54.4928,80.2772 59.4928,81.4438 64.5,82.5C 64.5,83.5 64.5,84.5 64.5,85.5C 61.5,85.5 58.5,85.5 55.5,85.5C 55.6107,84.8826 55.944,84.3826 56.5,84C 52.3979,81.2117 47.8979,79.3783 43,78.5C 40.0749,78.5286 38.2415,79.8619 37.5,82.5C 36.5,82.1667 35.8333,81.5 35.5,80.5C 35.281,79.325 35.6143,78.325 36.5,77.5C 39.2761,75.8702 42.2761,75.2035 45.5,75.5 Z"/></g>
<g><path style="opacity:0.008" fill="#ed455a" d="M 11.5,30.5 C 12.6623,49.3289 12.8289,68.3289 12,87.5C 11.5001,68.5029 11.3334,49.5029 11.5,30.5 Z"/></g>
<g><path style="opacity:0.995" fill="#e7cdd3" d="M 84.5,77.5 C 84.8333,77.5 85.1667,77.5 85.5,77.5C 85.8333,77.5 86.1667,77.5 86.5,77.5C 87.7298,79.2972 88.3964,81.2972 88.5,83.5C 87.5,84.8333 86.5,86.1667 85.5,87.5C 84.5,88.1667 83.5,88.8333 82.5,89.5C 80.6951,86.0905 81.5284,83.4238 85,81.5C 85.6917,80.5632 85.525,79.8966 84.5,79.5C 84.5,78.8333 84.5,78.1667 84.5,77.5 Z"/></g>
<g><path style="opacity:0.997" fill="#e62e4f" d="M 102.5,90.5 C 102.5,91.1667 102.5,91.8333 102.5,92.5C 102.5,93.1667 102.5,93.8333 102.5,94.5C 101.094,94.9731 100.427,95.9731 100.5,97.5C 99.8333,97.5 99.5,97.8333 99.5,98.5C 99.1667,98.5 98.8333,98.5 98.5,98.5C 96.7334,92.52 94.9001,86.52 93,80.5C 92.2303,81.5981 91.397,81.5981 90.5,80.5C 90.6287,78.7839 90.962,77.1172 91.5,75.5C 92.3171,73.0314 92.8171,70.3647 93,67.5C 95.3281,74.4843 97.6614,81.4843 100,88.5C 100.417,89.756 101.25,90.4226 102.5,90.5 Z"/></g>
<g><path style="opacity:0.996" fill="#fa8d2b" d="M 55.5,85.5 C 50.5,85.5 45.5,85.5 40.5,85.5C 39.7095,84.5987 38.7095,83.9321 37.5,83.5C 37.5,83.1667 37.5,82.8333 37.5,82.5C 38.2415,79.8619 40.0749,78.5286 43,78.5C 47.8979,79.3783 52.3979,81.2117 56.5,84C 55.944,84.3826 55.6107,84.8826 55.5,85.5 Z"/></g>
<g><path style="opacity:0.999" fill="#e82e3b" d="M 90.5,80.5 C 91.397,81.5981 92.2303,81.5981 93,80.5C 94.9001,86.52 96.7334,92.52 98.5,98.5C 98.5,98.8333 98.5,99.1667 98.5,99.5C 97.8333,99.5 97.5,99.8333 97.5,100.5C 95.9731,100.427 94.9731,101.094 94.5,102.5C 93.5084,102.328 92.8417,102.662 92.5,103.5C 91.5,103.5 90.5,103.5 89.5,103.5C 89.8333,102.5 90.5,101.833 91.5,101.5C 92.3764,101.631 93.0431,101.298 93.5,100.5C 91.0365,97.9262 91.0365,95.2595 93.5,92.5C 93.2732,88.5827 91.9399,85.2494 89.5,82.5C 89.8333,81.8333 90.1667,81.1667 90.5,80.5 Z"/></g>
<g><path style="opacity:0.998" fill="#f75e27" d="M 26.5,78.5 C 28.1526,81.1305 29.8193,83.7972 31.5,86.5C 24.6285,86.8878 21.4618,90.5545 22,97.5C 23.045,98.3734 23.8783,99.3734 24.5,100.5C 24.5,101.167 24.1667,101.5 23.5,101.5C 21.1667,99.5 18.8333,97.5 16.5,95.5C 16.5,95.1667 16.5,94.8333 16.5,94.5C 17.3764,94.6309 18.0431,94.2975 18.5,93.5C 18.0133,92.5539 17.6799,91.5539 17.5,90.5C 19.101,85.9501 21.7677,82.2834 25.5,79.5C 26.1667,79.5 26.5,79.1667 26.5,78.5 Z"/></g>
<g><path style="opacity:0.992" fill="#fb4a25" d="M 25.5,79.5 C 21.7677,82.2834 19.101,85.9501 17.5,90.5C 17.6799,91.5539 18.0133,92.5539 18.5,93.5C 18.0431,94.2975 17.3764,94.6309 16.5,94.5C 16.634,92.7085 16.3007,91.0418 15.5,89.5C 17.9824,84.9816 20.9824,80.6483 24.5,76.5C 25.3857,77.325 25.719,78.325 25.5,79.5 Z"/></g>
<g><path style="opacity:0.992" fill="#f5e4e3" d="M 40.5,85.5 C 45.5,85.5 50.5,85.5 55.5,85.5C 58.5,85.5 61.5,85.5 64.5,85.5C 65.5,85.5 66.5,85.5 67.5,85.5C 68.5,85.5 69.5,85.5 70.5,85.5C 72.8333,85.5 75.1667,85.5 77.5,85.5C 80.0972,85.7208 80.0972,86.2208 77.5,87C 71.5092,87.4995 65.5092,87.6662 59.5,87.5C 53.1579,87.6662 46.8246,87.4995 40.5,87C 37.9028,86.2208 37.9028,85.7208 40.5,85.5 Z"/></g>
<g><path style="opacity:0.993" fill="#ecd8db" d="M 84.5,79.5 C 85.525,79.8966 85.6917,80.5632 85,81.5C 81.5284,83.4238 80.6951,86.0905 82.5,89.5C 81.5084,89.3284 80.8417,89.6618 80.5,90.5C 79.5,90.5 78.5,90.5 77.5,90.5C 73.1539,90.6657 68.8206,90.499 64.5,90C 64.8333,89.6667 65.1667,89.3333 65.5,89C 63.2922,88.8091 61.2922,88.3091 59.5,87.5C 65.5092,87.6662 71.5092,87.4995 77.5,87C 80.0972,86.2208 80.0972,85.7208 77.5,85.5C 78.2905,84.5987 79.2905,83.9321 80.5,83.5C 82.1942,82.4726 83.5275,81.1392 84.5,79.5 Z"/></g>
<g><path style="opacity:0.996" fill="#ead4d0" d="M 37.5,83.5 C 38.7095,83.9321 39.7095,84.5987 40.5,85.5C 37.9028,85.7208 37.9028,86.2208 40.5,87C 46.8246,87.4995 53.1579,87.6662 59.5,87.5C 61.2922,88.3091 63.2922,88.8091 65.5,89C 65.1667,89.3333 64.8333,89.6667 64.5,90C 68.8206,90.499 73.1539,90.6657 77.5,90.5C 75.3926,91.4682 73.0593,91.8016 70.5,91.5C 68.1667,91.5 65.8333,91.5 63.5,91.5C 60.5,91.5 57.5,91.5 54.5,91.5C 50.5,91.5 46.5,91.5 42.5,91.5C 41.8333,91.5 41.1667,91.5 40.5,91.5C 39.391,91.4431 38.391,91.1098 37.5,90.5C 35.6115,89.396 33.9448,88.0627 32.5,86.5C 32.5,85.5 32.5,84.5 32.5,83.5C 34.1667,83.5 35.8333,83.5 37.5,83.5 Z"/></g>
<g><path style="opacity:0.998" fill="#f77d27" d="M 31.5,86.5 C 31.8333,86.5 32.1667,86.5 32.5,86.5C 33.9448,88.0627 35.6115,89.396 37.5,90.5C 33.7682,91.0761 30.1016,92.2428 26.5,94C 25.232,96.1632 25.232,98.3298 26.5,100.5C 25.8333,100.5 25.1667,100.5 24.5,100.5C 23.8783,99.3734 23.045,98.3734 22,97.5C 21.4618,90.5545 24.6285,86.8878 31.5,86.5 Z"/></g>
<g><path style="opacity:0.008" fill="#ef462b" d="M 13.5,88.5 C 13.631,89.2389 13.4643,89.9056 13,90.5C 12.3083,89.5632 12.475,88.8966 13.5,88.5 Z"/></g>
<g><path style="opacity:0.004" fill="#d93053" d="M 104.5,90.5 C 105.833,91.1667 105.833,91.1667 104.5,90.5 Z"/></g>
<g><path style="opacity:0.004" fill="#dd1941" d="M 103.5,92.5 C 104.833,93.1667 104.833,93.1667 103.5,92.5 Z"/></g>
<g><path style="opacity:0.996" fill="#ea9d23" d="M 42.5,91.5 C 46.5,91.5 50.5,91.5 54.5,91.5C 55.9746,93.4095 57.9746,94.5762 60.5,95C 67.9815,101.708 66.6481,104.541 56.5,103.5C 57.9187,102.549 59.5853,102.216 61.5,102.5C 60.2876,99.3663 57.9543,97.3663 54.5,96.5C 54.0825,95.7784 53.4158,95.2784 52.5,95C 47.5111,94.5007 42.5111,94.3341 37.5,94.5C 39.5313,94.0276 41.1979,93.0276 42.5,91.5 Z"/></g>
<g><path style="opacity:0.997" fill="#ea2b25" d="M 91.5,101.5 C 90.5,101.833 89.8333,102.5 89.5,103.5C 86.1667,103.5 82.8333,103.5 79.5,103.5C 79.5,102.833 79.8333,102.5 80.5,102.5C 83.1873,102.664 85.854,102.497 88.5,102C 86.6763,99.8485 86.343,97.3485 87.5,94.5C 86.1266,94.6567 84.7932,94.49 83.5,94C 83.0257,92.2714 82.0257,91.1047 80.5,90.5C 80.8417,89.6618 81.5084,89.3284 82.5,89.5C 83.5,88.8333 84.5,88.1667 85.5,87.5C 86.8471,86.8288 88.0138,86.8288 89,87.5C 88.9782,92.4651 89.8115,97.1318 91.5,101.5 Z"/></g>
<g><path style="opacity:0.998" fill="#eb2a30" d="M 89.5,82.5 C 91.9399,85.2494 93.2732,88.5827 93.5,92.5C 91.0365,95.2595 91.0365,97.9262 93.5,100.5C 93.0431,101.298 92.3764,101.631 91.5,101.5C 89.8115,97.1318 88.9782,92.4651 89,87.5C 88.0138,86.8288 86.8471,86.8288 85.5,87.5C 86.5,86.1667 87.5,84.8333 88.5,83.5C 89.1667,83.5 89.5,83.1667 89.5,82.5 Z"/></g>
<g><path style="opacity:0.997" fill="#f59228" d="M 37.5,90.5 C 38.391,91.1098 39.391,91.4431 40.5,91.5C 35.352,92.459 31.0186,94.959 27.5,99C 28.305,100.113 28.9717,101.279 29.5,102.5C 27.9731,102.573 26.9731,101.906 26.5,100.5C 25.232,98.3298 25.232,96.1632 26.5,94C 30.1016,92.2428 33.7682,91.0761 37.5,90.5 Z"/></g>
<g><path style="opacity:0.008" fill="#d9213d" d="M 102.5,94.5 C 103.833,95.1667 103.833,95.1667 102.5,94.5 Z"/></g>
<g><path style="opacity:0.008" fill="#e52d07" d="M 16.5,95.5 C 15.8333,96.1667 15.8333,96.1667 16.5,95.5 Z"/></g>
<g><path style="opacity:0.996" fill="#efbc29" d="M 54.5,96.5 C 55.1667,97.8333 55.8333,99.1667 56.5,100.5C 51.4573,97.2161 46.124,96.7161 40.5,99C 39.1667,100 39.1667,101 40.5,102C 44.1516,102.499 47.8183,102.665 51.5,102.5C 48.7131,103.477 45.7131,103.81 42.5,103.5C 40.7085,103.634 39.0418,103.301 37.5,102.5C 34.9824,100.643 34.9824,98.8101 37.5,97C 43.1077,95.226 48.7744,95.0593 54.5,96.5 Z"/></g>
<g><path style="opacity:0.999" fill="#ef321f" d="M 80.5,90.5 C 82.0257,91.1047 83.0257,92.2714 83.5,94C 84.7932,94.49 86.1266,94.6567 87.5,94.5C 86.343,97.3485 86.6763,99.8485 88.5,102C 85.854,102.497 83.1873,102.664 80.5,102.5C 80.8732,98.5671 80.8732,94.5671 80.5,90.5 Z"/></g>
<g><path style="opacity:0.008" fill="#cd5658" d="M 101.5,96.5 C 102.833,97.1667 102.833,97.1667 101.5,96.5 Z"/></g>
<g><path style="opacity:0.008" fill="#cf6143" d="M 17.5,98.5 C 16.8333,97.1667 16.8333,97.1667 17.5,98.5 Z"/></g>
<g><path style="opacity:0.996" fill="#eb992a" d="M 40.5,91.5 C 41.1667,91.5 41.8333,91.5 42.5,91.5C 41.1979,93.0276 39.5313,94.0276 37.5,94.5C 34.0414,95.7853 31.708,98.1186 30.5,101.5C 32.8056,101.993 35.139,102.326 37.5,102.5C 39.0418,103.301 40.7085,103.634 42.5,103.5C 42.5,103.833 42.5,104.167 42.5,104.5C 39.1667,104.5 35.8333,104.5 32.5,104.5C 31.5,103.833 30.5,103.167 29.5,102.5C 28.9717,101.279 28.305,100.113 27.5,99C 31.0186,94.959 35.352,92.459 40.5,91.5 Z"/></g>
<g><path style="opacity:0.998" fill="#eb3f1e" d="M 77.5,90.5 C 78.5,90.5 79.5,90.5 80.5,90.5C 80.8732,94.5671 80.8732,98.5671 80.5,102.5C 79.8333,102.5 79.5,102.833 79.5,103.5C 77.8008,103.66 76.1341,103.494 74.5,103C 77.6287,102.883 78.7954,101.383 78,98.5C 75.4858,96.0886 72.9858,93.7552 70.5,91.5C 73.0593,91.8016 75.3926,91.4682 77.5,90.5 Z"/></g>
<g><path style="opacity:0.02" fill="#d13b44" d="M 100.5,97.5 C 100.833,97.5 101.167,97.5 101.5,97.5C 101.315,98.1701 100.981,98.1701 100.5,97.5 Z"/></g>
<g><path style="opacity:0.012" fill="#cf5939" d="M 17.5,98.5 C 18.1667,98.5 18.5,98.8333 18.5,99.5C 18.1667,99.1667 17.8333,98.8333 17.5,98.5 Z"/></g>
<g><path style="opacity:0.998" fill="#f1ad29" d="M 37.5,94.5 C 42.5111,94.3341 47.5111,94.5007 52.5,95C 53.4158,95.2784 54.0825,95.7784 54.5,96.5C 48.7744,95.0593 43.1077,95.226 37.5,97C 34.9824,98.8101 34.9824,100.643 37.5,102.5C 35.139,102.326 32.8056,101.993 30.5,101.5C 31.708,98.1186 34.0414,95.7853 37.5,94.5 Z"/></g>
<g><path style="opacity:0.998" fill="#f2cc2d" d="M 56.5,100.5 C 55.3646,102.213 53.698,102.88 51.5,102.5C 47.8183,102.665 44.1516,102.499 40.5,102C 39.1667,101 39.1667,100 40.5,99C 46.124,96.7161 51.4573,97.2161 56.5,100.5 Z"/></g>
<g><path style="opacity:0.996" fill="#e77e25" d="M 54.5,91.5 C 57.5,91.5 60.5,91.5 63.5,91.5C 65.1271,93.6298 66.9604,95.6298 69,97.5C 69.815,100.198 69.315,102.532 67.5,104.5C 63.5,104.5 59.5,104.5 55.5,104.5C 55.5,103.833 55.8333,103.5 56.5,103.5C 66.6481,104.541 67.9815,101.708 60.5,95C 57.9746,94.5762 55.9746,93.4095 54.5,91.5 Z"/></g>
<g><path style="opacity:0.02" fill="#d32a36" d="M 99.5,98.5 C 99.8333,98.5 100.167,98.5 100.5,98.5C 100.315,99.1701 99.9813,99.1701 99.5,98.5 Z"/></g>
<g><path style="opacity:0.016" fill="#cd5939" d="M 18.5,99.5 C 19.1667,99.5 19.5,99.8333 19.5,100.5C 19.1667,100.167 18.8333,99.8333 18.5,99.5 Z"/></g>
<g><path style="opacity:0.998" fill="#e85a24" d="M 63.5,91.5 C 65.8333,91.5 68.1667,91.5 70.5,91.5C 72.9858,93.7552 75.4858,96.0886 78,98.5C 78.7954,101.383 77.6287,102.883 74.5,103C 76.1341,103.494 77.8008,103.66 79.5,103.5C 82.8333,103.5 86.1667,103.5 89.5,103.5C 89.5,103.833 89.5,104.167 89.5,104.5C 82.1667,104.5 74.8333,104.5 67.5,104.5C 69.315,102.532 69.815,100.198 69,97.5C 66.9604,95.6298 65.1271,93.6298 63.5,91.5 Z"/></g>
<g><path style="opacity:0.02" fill="#d32b34" d="M 98.5,99.5 C 98.8333,99.5 99.1667,99.5 99.5,99.5C 99.3147,100.17 98.9813,100.17 98.5,99.5 Z"/></g>
<g><path style="opacity:0.012" fill="#c96142" d="M 19.5,100.5 C 20.8333,101.167 20.8333,101.167 19.5,100.5 Z"/></g>
<g><path style="opacity:0.02" fill="#d03a3e" d="M 97.5,100.5 C 97.8333,100.5 98.1667,100.5 98.5,100.5C 98.3147,101.17 97.9813,101.17 97.5,100.5 Z"/></g>
<g><path style="opacity:0.98" fill="#e7b12c" d="M 54.5,96.5 C 57.9543,97.3663 60.2876,99.3663 61.5,102.5C 59.5853,102.216 57.9187,102.549 56.5,103.5C 55.8333,103.5 55.5,103.833 55.5,104.5C 51.1667,104.5 46.8333,104.5 42.5,104.5C 42.5,104.167 42.5,103.833 42.5,103.5C 45.7131,103.81 48.7131,103.477 51.5,102.5C 53.698,102.88 55.3646,102.213 56.5,100.5C 55.8333,99.1667 55.1667,97.8333 54.5,96.5 Z"/></g>
<g><path style="opacity:0.008" fill="#ca544f" d="M 97.5,101.5 C 96.8333,102.167 96.8333,102.167 97.5,101.5 Z"/></g>
<g><path style="opacity:0.008" fill="#cf5125" d="M 23.5,102.5 C 22.8333,103.167 22.8333,103.167 23.5,102.5 Z"/></g>
<g><path style="opacity:0.698" fill="#ca6736" d="M 24.5,100.5 C 25.1667,100.5 25.8333,100.5 26.5,100.5C 26.9731,101.906 27.9731,102.573 29.5,102.5C 30.5,103.167 31.5,103.833 32.5,104.5C 31.1667,104.5 29.8333,104.5 28.5,104.5C 27.791,103.596 26.791,103.263 25.5,103.5C 25.1583,102.662 24.4916,102.328 23.5,102.5C 23.5,102.167 23.5,101.833 23.5,101.5C 24.1667,101.5 24.5,101.167 24.5,100.5 Z"/></g>
<g><path style="opacity:0.008" fill="#d62428" d="M 94.5,102.5 C 95.8333,103.167 95.8333,103.167 94.5,102.5 Z"/></g>
<g><path style="opacity:0.004" fill="#d45621" d="M 25.5,103.5 C 24.8333,104.167 24.8333,104.167 25.5,103.5 Z"/></g>
<g><path style="opacity:0.004" fill="#d92427" d="M 92.5,103.5 C 93.8333,104.167 93.8333,104.167 92.5,103.5 Z"/></g>
<g><path style="opacity:0.004" fill="#d96016" d="M 28.5,104.5 C 27.8333,105.167 27.8333,105.167 28.5,104.5 Z"/></g>
<g><path style="opacity:0.004" fill="#da2a24" d="M 89.5,104.5 C 90.2389,104.369 90.9056,104.536 91.5,105C 90.5632,105.692 89.8966,105.525 89.5,104.5 Z"/></g>
<g><path style="opacity:0.008" fill="#d96927" d="M 30.5,106.5 C 49.6623,105.338 68.9956,105.171 88.5,106C 69.1695,106.5 49.8362,106.667 30.5,106.5 Z"/></g>
</svg>
