<?xml version="1.0" encoding="UTF-8"?>
<!DOCTYPE svg PUBLIC "-//W3C//DTD SVG 1.1//EN" "http://www.w3.org/Graphics/SVG/1.1/DTD/svg11.dtd">
<svg xmlns="http://www.w3.org/2000/svg" version="1.1" width="32px" height="32px" style="shape-rendering:geometricPrecision; text-rendering:geometricPrecision; image-rendering:optimizeQuality; fill-rule:evenodd; clip-rule:evenodd" xmlns:xlink="http://www.w3.org/1999/xlink">
<g><path style="opacity:0.004" fill="#e6a0fd" d="M 7.5,1.5 C 12.6503,0.349256 17.9836,0.18259 23.5,1C 18.1771,1.49935 12.8437,1.66602 7.5,1.5 Z"/></g>
<g><path style="opacity:0.012" fill="#abcafe" d="M 5.5,1.5 C 6.83333,2.16667 6.83333,2.16667 5.5,1.5 Z"/></g>
<g><path style="opacity:0.004" fill="#4d5ffe" d="M 5.5,2.5 C 5.5,2.83333 5.5,3.16667 5.5,3.5C 4.82986,3.01865 4.82986,2.68532 5.5,2.5 Z"/></g>
<g><path style="opacity:0.004" fill="#6057fe" d="M 3.5,5.5 C 2.83333,4.16667 2.83333,4.16667 3.5,5.5 Z"/></g>
<g><path style="opacity:1" fill="#c9b8fe" d="M 23.5,3.5 C 21.5,3.5 19.5,3.5 17.5,3.5C 15.7085,3.36596 14.0418,3.69929 12.5,4.5C 9.05806,3.82827 6.3914,4.82827 4.5,7.5C 4.16667,7.5 3.83333,7.5 3.5,7.5C 3.5,6.83333 3.5,6.16667 3.5,5.5C 4.5,5.16667 5.16667,4.5 5.5,3.5C 11.6298,2.23381 17.6298,2.23381 23.5,3.5 Z"/></g>
<g><path style="opacity:0.012" fill="#c4b1ff" d="M 2.5,5.5 C 1.83333,6.16667 1.83333,6.16667 2.5,5.5 Z"/></g>
<g><path style="opacity:0.984" fill="#8f76fb" d="M 12.5,4.5 C 12.1667,5.16667 11.8333,5.83333 11.5,6.5C 9.93819,6.73286 8.60486,7.39952 7.5,8.5C 6.79105,7.59603 5.79105,7.26269 4.5,7.5C 6.3914,4.82827 9.05806,3.82827 12.5,4.5 Z"/></g>
<g><path style="opacity:0.992" fill="#b96ffb" d="M 17.5,3.5 C 17.5,3.83333 17.5,4.16667 17.5,4.5C 15.6203,4.22911 14.287,4.89578 13.5,6.5C 12.8333,6.5 12.1667,6.5 11.5,6.5C 11.8333,5.83333 12.1667,5.16667 12.5,4.5C 14.0418,3.69929 15.7085,3.36596 17.5,3.5 Z"/></g>
<g><path style="opacity:0.992" fill="#c751f5" d="M 17.5,4.5 C 17.8333,4.5 18.1667,4.5 18.5,4.5C 18.1667,5.16667 17.8333,5.83333 17.5,6.5C 16.1667,6.5 14.8333,6.5 13.5,6.5C 14.287,4.89578 15.6203,4.22911 17.5,4.5 Z"/></g>
<g><path style="opacity:0.996" fill="#d932e8" d="M 18.5,4.5 C 19.9778,4.23798 21.3112,4.57131 22.5,5.5C 22.3764,6.10667 22.0431,6.44001 21.5,6.5C 20.1667,6.5 18.8333,6.5 17.5,6.5C 17.8333,5.83333 18.1667,5.16667 18.5,4.5 Z"/></g>
<g><path style="opacity:0.996" fill="#e53ee5" d="M 17.5,4.5 C 17.5,4.16667 17.5,3.83333 17.5,3.5C 19.5,3.5 21.5,3.5 23.5,3.5C 25.0269,3.42702 26.0269,4.09368 26.5,5.5C 26.5,6.16667 26.5,6.83333 26.5,7.5C 25.209,7.26269 24.209,7.59603 23.5,8.5C 22.8333,8.16667 22.1667,7.83333 21.5,7.5C 21.5,7.16667 21.5,6.83333 21.5,6.5C 22.0431,6.44001 22.3764,6.10667 22.5,5.5C 21.3112,4.57131 19.9778,4.23798 18.5,4.5C 18.1667,4.5 17.8333,4.5 17.5,4.5 Z"/></g>
<g><path style="opacity:0.996" fill="#e2c9ed" d="M 11.5,6.5 C 12.1667,6.5 12.8333,6.5 13.5,6.5C 14.8333,6.5 16.1667,6.5 17.5,6.5C 18.8333,6.5 20.1667,6.5 21.5,6.5C 21.5,6.83333 21.5,7.16667 21.5,7.5C 20.8333,7.5 20.5,7.83333 20.5,8.5C 19.5,8.5 18.5,8.5 17.5,8.5C 14.8127,8.33591 12.146,8.50258 9.5,9C 8.94404,9.38258 8.61071,9.88258 8.5,10.5C 7.83333,10.5 7.5,10.1667 7.5,9.5C 7.5,9.16667 7.5,8.83333 7.5,8.5C 8.60486,7.39952 9.93819,6.73286 11.5,6.5 Z"/></g>
<g><path style="opacity:0.012" fill="#e63edb" d="M 28.5,7.5 C 28.369,6.76109 28.5357,6.09442 29,5.5C 29.6917,6.43677 29.525,7.10343 28.5,7.5 Z"/></g>
<g><path style="opacity:1" fill="#ea1dcf" d="M 26.5,7.5 C 26.7148,9.17876 26.0481,10.1788 24.5,10.5C 24.5,9.83333 24.1667,9.5 23.5,9.5C 23.5,9.16667 23.5,8.83333 23.5,8.5C 24.209,7.59603 25.209,7.26269 26.5,7.5 Z"/></g>
<g><path style="opacity:1" fill="#bc53e6" d="M 3.5,7.5 C 3.83333,7.5 4.16667,7.5 4.5,7.5C 5.79105,7.26269 6.79105,7.59603 7.5,8.5C 7.5,8.83333 7.5,9.16667 7.5,9.5C 6.83333,9.5 6.5,9.83333 6.5,10.5C 5.16667,10.5 3.83333,10.5 2.5,10.5C 2.26269,9.20895 2.59603,8.20895 3.5,7.5 Z"/></g>
<g><path style="opacity:1" fill="#8d269e" d="M 17.5,8.5 C 17.5,9.16667 17.1667,9.5 16.5,9.5C 13.8333,9.83333 11.1667,10.1667 8.5,10.5C 8.61071,9.88258 8.94404,9.38258 9.5,9C 12.146,8.50258 14.8127,8.33591 17.5,8.5 Z"/></g>
<g><path style="opacity:1" fill="#b8288e" d="M 17.5,8.5 C 18.5,8.5 19.5,8.5 20.5,8.5C 21.1667,8.5 21.5,8.83333 21.5,9.5C 20.1667,9.5 19.5,10.1667 19.5,11.5C 19.5,11.8333 19.5,12.1667 19.5,12.5C 18.5,11.8333 17.5,11.1667 16.5,10.5C 16.5,10.1667 16.5,9.83333 16.5,9.5C 17.1667,9.5 17.5,9.16667 17.5,8.5 Z"/></g>
<g><path style="opacity:1" fill="#b02d9f" d="M 16.5,9.5 C 16.5,9.83333 16.5,10.1667 16.5,10.5C 15.209,10.2627 14.209,10.596 13.5,11.5C 13.1667,11.5 12.8333,11.5 12.5,11.5C 11.1667,11.5 9.83333,11.5 8.5,11.5C 8.5,11.1667 8.5,10.8333 8.5,10.5C 11.1667,10.1667 13.8333,9.83333 16.5,9.5 Z"/></g>
<g><path style="opacity:0.992" fill="#d83ecb" d="M 2.5,10.5 C 3.83333,10.5 5.16667,10.5 6.5,10.5C 6.5,11.1667 6.5,11.8333 6.5,12.5C 5.16667,12.5 3.83333,12.5 2.5,12.5C 2.5,11.8333 2.5,11.1667 2.5,10.5 Z"/></g>
<g><path style="opacity:1" fill="#c93990" d="M 8.5,11.5 C 9.83333,11.5 11.1667,11.5 12.5,11.5C 12.1667,12.5 11.5,13.1667 10.5,13.5C 9.83333,13.5 9.16667,13.5 8.5,13.5C 8.5,12.8333 8.5,12.1667 8.5,11.5 Z"/></g>
<g><path style="opacity:0.992" fill="#e4d5e2" d="M 20.5,8.5 C 20.5,7.83333 20.8333,7.5 21.5,7.5C 22.1667,7.83333 22.8333,8.16667 23.5,8.5C 23.5,8.83333 23.5,9.16667 23.5,9.5C 23.5,10.8333 23.5,12.1667 23.5,13.5C 23.1667,13.5 22.8333,13.5 22.5,13.5C 22.7678,11.901 22.4345,10.5676 21.5,9.5C 21.5,8.83333 21.1667,8.5 20.5,8.5 Z"/></g>
<g><path style="opacity:0.824" fill="#dd25b7" d="M 26.5,5.5 C 27.3382,5.84171 27.6716,6.50838 27.5,7.5C 27.5,9.16667 27.5,10.8333 27.5,12.5C 26.391,12.4431 25.391,12.1098 24.5,11.5C 24.5,11.1667 24.5,10.8333 24.5,10.5C 26.0481,10.1788 26.7148,9.17876 26.5,7.5C 26.5,6.83333 26.5,6.16667 26.5,5.5 Z"/></g>
<g><path style="opacity:0.996" fill="#e3bfce" d="M 13.5,11.5 C 14.209,10.596 15.209,10.2627 16.5,10.5C 17.5,11.1667 18.5,11.8333 19.5,12.5C 19.5,14.1667 19.5,15.8333 19.5,17.5C 19.1667,18.1667 18.8333,18.8333 18.5,19.5C 18.1667,19.5 17.8333,19.5 17.5,19.5C 17.5,19.1667 17.5,18.8333 17.5,18.5C 17.5,18.1667 17.5,17.8333 17.5,17.5C 18.8333,16.1667 18.8333,14.8333 17.5,13.5C 17.5,12.8333 17.1667,12.5 16.5,12.5C 15.791,11.596 14.791,11.2627 13.5,11.5 Z"/></g>
<g><path style="opacity:0.996" fill="#d25186" d="M 21.5,9.5 C 22.4345,10.5676 22.7678,11.901 22.5,13.5C 21.7777,12.4489 20.7777,11.7822 19.5,11.5C 19.5,10.1667 20.1667,9.5 21.5,9.5 Z"/></g>
<g><path style="opacity:0.961" fill="#ea37a5" d="M 2.5,12.5 C 3.83333,12.5 5.16667,12.5 6.5,12.5C 6.5,13.1667 6.5,13.8333 6.5,14.5C 5.16667,14.5 3.83333,14.5 2.5,14.5C 2.5,13.8333 2.5,13.1667 2.5,12.5 Z"/></g>
<g><path style="opacity:0.992" fill="#e0b4d1" d="M 7.5,9.5 C 7.5,10.1667 7.83333,10.5 8.5,10.5C 8.5,10.8333 8.5,11.1667 8.5,11.5C 8.5,12.1667 8.5,12.8333 8.5,13.5C 8.5,13.8333 8.5,14.1667 8.5,14.5C 7.83333,14.5 7.16667,14.5 6.5,14.5C 6.5,13.8333 6.5,13.1667 6.5,12.5C 6.5,11.8333 6.5,11.1667 6.5,10.5C 6.5,9.83333 6.83333,9.5 7.5,9.5 Z"/></g>
<g><path style="opacity:0.996" fill="#dfa6b1" d="M 12.5,11.5 C 12.8333,11.5 13.1667,11.5 13.5,11.5C 14.791,11.2627 15.791,11.596 16.5,12.5C 14.6203,12.2291 13.287,12.8958 12.5,14.5C 12.5,14.8333 12.5,15.1667 12.5,15.5C 12.5,15.8333 12.5,16.1667 12.5,16.5C 11.8333,16.5 11.5,16.8333 11.5,17.5C 11.1667,17.5 10.8333,17.5 10.5,17.5C 10.5,16.1667 10.5,14.8333 10.5,13.5C 11.5,13.1667 12.1667,12.5 12.5,11.5 Z"/></g>
<g><path style="opacity:1" fill="#ce1c3f" d="M 16.5,12.5 C 17.1667,12.5 17.5,12.8333 17.5,13.5C 15.9582,14.3007 14.2915,14.634 12.5,14.5C 13.287,12.8958 14.6203,12.2291 16.5,12.5 Z"/></g>
<g><path style="opacity:0.992" fill="#e6cbd2" d="M 22.5,13.5 C 22.8333,13.5 23.1667,13.5 23.5,13.5C 23.5,15.8333 23.5,18.1667 23.5,20.5C 23.5,20.8333 23.5,21.1667 23.5,21.5C 23.1667,22.1667 22.8333,22.8333 22.5,23.5C 22.1667,23.5 21.8333,23.5 21.5,23.5C 21.5,23.1667 21.5,22.8333 21.5,22.5C 21.5,22.1667 21.5,21.8333 21.5,21.5C 22.4511,20.0813 22.7845,18.4147 22.5,16.5C 22.5,15.5 22.5,14.5 22.5,13.5 Z"/></g>
<g><path style="opacity:0.996" fill="#e52435" d="M 17.5,13.5 C 18.8333,14.8333 18.8333,16.1667 17.5,17.5C 16.3646,15.7868 14.698,15.1201 12.5,15.5C 12.5,15.1667 12.5,14.8333 12.5,14.5C 14.2915,14.634 15.9582,14.3007 17.5,13.5 Z"/></g>
<g><path style="opacity:0.996" fill="#e43e6d" d="M 19.5,11.5 C 20.7777,11.7822 21.7777,12.4489 22.5,13.5C 22.5,14.5 22.5,15.5 22.5,16.5C 21.8826,16.3893 21.3826,16.056 21,15.5C 20.7216,16.4158 20.2216,17.0825 19.5,17.5C 19.5,15.8333 19.5,14.1667 19.5,12.5C 19.5,12.1667 19.5,11.8333 19.5,11.5 Z"/></g>
<g><path style="opacity:0.004" fill="#ec3b79" d="M 0.5,7.5 C 1.64966,12.3158 1.81632,17.3158 1,22.5C 0.500738,17.5111 0.334072,12.5111 0.5,7.5 Z"/></g>
<g><path style="opacity:0.961" fill="#f83468" d="M 2.5,14.5 C 3.83333,14.5 5.16667,14.5 6.5,14.5C 6.5,14.8333 6.5,15.1667 6.5,15.5C 5.39514,16.6005 4.06181,17.2671 2.5,17.5C 2.5,16.5 2.5,15.5 2.5,14.5 Z"/></g>
<g><path style="opacity:0.996" fill="#edafb0" d="M 6.5,14.5 C 7.16667,14.5 7.83333,14.5 8.5,14.5C 8.5,16.5 8.5,18.5 8.5,20.5C 7.83333,20.5 7.5,20.8333 7.5,21.5C 7.16667,21.5 6.83333,21.5 6.5,21.5C 6.5,20.1667 6.5,18.8333 6.5,17.5C 6.5,16.8333 6.5,16.1667 6.5,15.5C 6.5,15.1667 6.5,14.8333 6.5,14.5 Z"/></g>
<g><path style="opacity:1" fill="#f4302a" d="M 12.5,15.5 C 14.698,15.1201 16.3646,15.7868 17.5,17.5C 17.5,17.8333 17.5,18.1667 17.5,18.5C 15.302,18.8799 13.6354,18.2132 12.5,16.5C 12.5,16.1667 12.5,15.8333 12.5,15.5 Z"/></g>
<g><path style="opacity:0.996" fill="#f0292b" d="M 8.5,13.5 C 9.16667,13.5 9.83333,13.5 10.5,13.5C 10.5,14.8333 10.5,16.1667 10.5,17.5C 9.89022,18.391 9.55688,19.391 9.5,20.5C 9.16667,20.5 8.83333,20.5 8.5,20.5C 8.5,18.5 8.5,16.5 8.5,14.5C 8.5,14.1667 8.5,13.8333 8.5,13.5 Z"/></g>
<g><path style="opacity:1" fill="#c9406f" d="M 27.5,7.5 C 27.8333,7.5 28.1667,7.5 28.5,7.5C 28.7825,12.9265 28.4491,18.2599 27.5,23.5C 26.3995,21.7226 25.5662,19.7226 25,17.5C 24.7679,18.7375 24.2679,19.7375 23.5,20.5C 23.5,18.1667 23.5,15.8333 23.5,13.5C 23.5,12.1667 23.5,10.8333 23.5,9.5C 24.1667,9.5 24.5,9.83333 24.5,10.5C 24.5,10.8333 24.5,11.1667 24.5,11.5C 25.9425,18.3746 26.9425,18.7079 27.5,12.5C 27.5,10.8333 27.5,9.16667 27.5,7.5 Z"/></g>
<g><path style="opacity:0.824" fill="#da1c8c" d="M 24.5,11.5 C 25.391,12.1098 26.391,12.4431 27.5,12.5C 26.9425,18.7079 25.9425,18.3746 24.5,11.5 Z"/></g>
<g><path style="opacity:0.992" fill="#eebab8" d="M 12.5,16.5 C 13.6354,18.2132 15.302,18.8799 17.5,18.5C 17.5,18.8333 17.5,19.1667 17.5,19.5C 16.791,20.404 15.791,20.7373 14.5,20.5C 13.1667,19.8333 12.1667,18.8333 11.5,17.5C 11.5,16.8333 11.8333,16.5 12.5,16.5 Z"/></g>
<g><path style="opacity:1" fill="#ec2d35" d="M 22.5,16.5 C 22.7845,18.4147 22.4511,20.0813 21.5,21.5C 20.7095,20.5987 19.7095,19.9321 18.5,19.5C 18.8333,18.8333 19.1667,18.1667 19.5,17.5C 20.2216,17.0825 20.7216,16.4158 21,15.5C 21.3826,16.056 21.8826,16.3893 22.5,16.5 Z"/></g>
<g><path style="opacity:1" fill="#fb3d28" d="M 6.5,17.5 C 6.5,18.8333 6.5,20.1667 6.5,21.5C 4.89578,22.287 4.22911,23.6203 4.5,25.5C 3.66175,25.1583 3.32842,24.4916 3.5,23.5C 3.02458,20.6874 4.02458,18.6874 6.5,17.5 Z"/></g>
<g><path style="opacity:0.996" fill="#f45a2b" d="M 10.5,17.5 C 10.8333,17.5 11.1667,17.5 11.5,17.5C 12.1667,18.8333 13.1667,19.8333 14.5,20.5C 16.6074,21.4682 18.9407,21.8016 21.5,21.5C 21.5,21.8333 21.5,22.1667 21.5,22.5C 18.8333,22.5 16.1667,22.5 13.5,22.5C 12.713,20.8958 11.3797,20.2291 9.5,20.5C 9.55688,19.391 9.89022,18.391 10.5,17.5 Z"/></g>
<g><path style="opacity:1" fill="#ee3516" d="M 17.5,19.5 C 17.8333,19.5 18.1667,19.5 18.5,19.5C 19.7095,19.9321 20.7095,20.5987 21.5,21.5C 18.9407,21.8016 16.6074,21.4682 14.5,20.5C 15.791,20.7373 16.791,20.404 17.5,19.5 Z"/></g>
<g><path style="opacity:0.11" fill="#f83e3d" d="M 6.5,15.5 C 6.5,16.1667 6.5,16.8333 6.5,17.5C 4.02458,18.6874 3.02458,20.6874 3.5,23.5C 3.16667,23.5 2.83333,23.5 2.5,23.5C 2.5,21.5 2.5,19.5 2.5,17.5C 4.06181,17.2671 5.39514,16.6005 6.5,15.5 Z"/></g>
<g><path style="opacity:0.996" fill="#fc963b" d="M 8.5,20.5 C 8.83333,20.5 9.16667,20.5 9.5,20.5C 11.3797,20.2291 12.713,20.8958 13.5,22.5C 11.302,22.8799 9.63535,22.2132 8.5,20.5 Z"/></g>
<g><path style="opacity:0.996" fill="#e92830" d="M 23.5,21.5 C 24.1667,21.5 24.5,21.8333 24.5,22.5C 24.5,24.1667 24.5,25.8333 24.5,27.5C 24.1667,27.5 23.8333,27.5 23.5,27.5C 23.7678,25.901 23.4345,24.5676 22.5,23.5C 22.8333,22.8333 23.1667,22.1667 23.5,21.5 Z"/></g>
<g><path style="opacity:0.992" fill="#eedfe1" d="M 8.5,20.5 C 9.63535,22.2132 11.302,22.8799 13.5,22.5C 16.1667,22.5 18.8333,22.5 21.5,22.5C 21.5,22.8333 21.5,23.1667 21.5,23.5C 21.1667,23.5 20.8333,23.5 20.5,23.5C 16.0685,23.7693 11.7352,23.436 7.5,22.5C 7.5,22.1667 7.5,21.8333 7.5,21.5C 7.5,20.8333 7.83333,20.5 8.5,20.5 Z"/></g>
<g><path style="opacity:0.982" fill="#e22d3d" d="M 24.5,22.5 C 25.4013,23.2905 26.0679,24.2905 26.5,25.5C 26.5,25.8333 26.5,26.1667 26.5,26.5C 25.8333,26.5 25.5,26.8333 25.5,27.5C 25.1667,27.5 24.8333,27.5 24.5,27.5C 24.5,25.8333 24.5,24.1667 24.5,22.5 Z"/></g>
<g><path style="opacity:1" fill="#f66026" d="M 6.5,21.5 C 6.83333,21.5 7.16667,21.5 7.5,21.5C 7.5,21.8333 7.5,22.1667 7.5,22.5C 6.19376,23.4674 5.52709,24.8007 5.5,26.5C 4.83333,26.5 4.5,26.1667 4.5,25.5C 4.22911,23.6203 4.89578,22.287 6.5,21.5 Z"/></g>
<g><path style="opacity:1" fill="#e42a51" d="M 27.5,23.5 C 27.5,24.1667 27.5,24.8333 27.5,25.5C 27.1667,25.5 26.8333,25.5 26.5,25.5C 26.0679,24.2905 25.4013,23.2905 24.5,22.5C 24.5,21.8333 24.1667,21.5 23.5,21.5C 23.5,21.1667 23.5,20.8333 23.5,20.5C 24.2679,19.7375 24.7679,18.7375 25,17.5C 25.5662,19.7226 26.3995,21.7226 27.5,23.5 Z"/></g>
<g><path style="opacity:0.008" fill="#ee4d1f" d="M 2.5,23.5 C 2.63101,24.2389 2.46434,24.9056 2,25.5C 1.30831,24.5632 1.47498,23.8966 2.5,23.5 Z"/></g>
<g><path style="opacity:1" fill="#ef8d44" d="M 7.5,22.5 C 11.7352,23.436 16.0685,23.7693 20.5,23.5C 20.1583,24.3382 19.4916,24.6716 18.5,24.5C 17.8333,24.5 17.1667,24.5 16.5,24.5C 13.8127,24.3359 11.146,24.5026 8.5,25C 7.74756,25.6708 7.41423,26.5041 7.5,27.5C 6.83333,27.5 6.16667,27.5 5.5,27.5C 5.5,27.1667 5.5,26.8333 5.5,26.5C 5.52709,24.8007 6.19376,23.4674 7.5,22.5 Z"/></g>
<g><path style="opacity:0.988" fill="#eca120" d="M 16.5,24.5 C 17.1098,25.391 17.4431,26.391 17.5,27.5C 16.8333,27.5 16.1667,27.5 15.5,27.5C 15.0296,26.3065 14.0296,25.6399 12.5,25.5C 10.9704,25.6399 9.97041,26.3065 9.5,27.5C 9.16667,27.5 8.83333,27.5 8.5,27.5C 8.16667,27.5 7.83333,27.5 7.5,27.5C 7.41423,26.5041 7.74756,25.6708 8.5,25C 11.146,24.5026 13.8127,24.3359 16.5,24.5 Z"/></g>
<g><path style="opacity:0.994" fill="#b61f24" d="M 20.5,23.5 C 20.8333,23.5 21.1667,23.5 21.5,23.5C 21.8333,23.5 22.1667,23.5 22.5,23.5C 23.4345,24.5676 23.7678,25.901 23.5,27.5C 18.4001,28.7999 13.4001,28.7999 8.5,27.5C 8.83333,27.5 9.16667,27.5 9.5,27.5C 11.5,27.5 13.5,27.5 15.5,27.5C 16.1667,27.5 16.8333,27.5 17.5,27.5C 22.2745,27.3299 22.6078,26.3299 18.5,24.5C 19.4916,24.6716 20.1583,24.3382 20.5,23.5 Z"/></g>
<g><path style="opacity:0.004" fill="#dd314d" d="M 28.5,25.5 C 28.369,24.7611 28.5357,24.0944 29,23.5C 29.6917,24.4368 29.525,25.1034 28.5,25.5 Z"/></g>
<g><path style="opacity:0.008" fill="#dd2d3f" d="M 27.5,25.5 C 27.8333,25.5 28.1667,25.5 28.5,25.5C 28.3147,26.1701 27.9813,26.1701 27.5,25.5 Z"/></g>
<g><path style="opacity:0.8" fill="#ecc22c" d="M 15.5,27.5 C 13.5,27.5 11.5,27.5 9.5,27.5C 9.97041,26.3065 10.9704,25.6399 12.5,25.5C 14.0296,25.6399 15.0296,26.3065 15.5,27.5 Z"/></g>
<g><path style="opacity:0.796" fill="#ec5621" d="M 16.5,24.5 C 17.1667,24.5 17.8333,24.5 18.5,24.5C 22.6078,26.3299 22.2745,27.3299 17.5,27.5C 17.4431,26.391 17.1098,25.391 16.5,24.5 Z"/></g>
<g><path style="opacity:0.008" fill="#df293c" d="M 26.5,26.5 C 26.8333,26.5 27.1667,26.5 27.5,26.5C 27.3147,27.1701 26.9813,27.1701 26.5,26.5 Z"/></g>
<g><path style="opacity:0.008" fill="#e7571e" d="M 5.5,27.5 C 5.5,27.8333 5.5,28.1667 5.5,28.5C 4.82986,28.0187 4.82986,27.6853 5.5,27.5 Z"/></g>
<g><path style="opacity:0.008" fill="#dc2b39" d="M 25.5,27.5 C 25.8333,27.5 26.1667,27.5 26.5,27.5C 26.3147,28.1701 25.9813,28.1701 25.5,27.5 Z"/></g>
<g><path style="opacity:0.012" fill="#e77120" d="M 5.5,28.5 C 6.23891,28.369 6.90558,28.5357 7.5,29C 6.56323,29.6917 5.89657,29.525 5.5,28.5 Z"/></g>
<g><path style="opacity:0.004" fill="#db2f31" d="M 25.5,28.5 C 25.1034,29.525 24.4368,29.6917 23.5,29C 24.0944,28.5357 24.7611,28.369 25.5,28.5 Z"/></g>
</svg>
