<?xml version="1.0" encoding="UTF-8"?>
<!DOCTYPE svg PUBLIC "-//W3C//DTD SVG 1.1//EN" "http://www.w3.org/Graphics/SVG/1.1/DTD/svg11.dtd">
<svg xmlns="http://www.w3.org/2000/svg" version="1.1" width="16px" height="16px" style="shape-rendering:geometricPrecision; text-rendering:geometricPrecision; image-rendering:optimizeQuality; fill-rule:evenodd; clip-rule:evenodd" xmlns:xlink="http://www.w3.org/1999/xlink">
<g><path style="opacity:0.004" fill="#b0b8fe" d="M 1.5,-0.5 C 1.83333,-0.5 2.16667,-0.5 2.5,-0.5C 2.31468,0.170143 1.98135,0.170143 1.5,-0.5 Z"/></g>
<g><path style="opacity:0.004" fill="#ea4ce9" d="M 12.5,-0.5 C 12.8333,-0.5 13.1667,-0.5 13.5,-0.5C 13.3147,0.170143 12.9813,0.170143 12.5,-0.5 Z"/></g>
<g><path style="opacity:0.004" fill="#a2a6fe" d="M 1.5,0.5 C 1.5,0.833333 1.5,1.16667 1.5,1.5C 0.829857,1.01865 0.829857,0.68532 1.5,0.5 Z"/></g>
<g><path style="opacity:0.004" fill="#afb0ff" d="M -0.5,1.5 C -0.166667,1.5 0.166667,1.5 0.5,1.5C 0.31468,2.17014 -0.0186536,2.17014 -0.5,1.5 Z"/></g>
<g><path style="opacity:0.961" fill="#b9b8fe" d="M 11.5,1.5 C 10.1667,1.5 8.83333,1.5 7.5,1.5C 5.5,1.83333 3.5,2.16667 1.5,2.5C 1.5,2.16667 1.5,1.83333 1.5,1.5C 4.96895,0.300023 8.30229,0.300023 11.5,1.5 Z"/></g>
<g><path style="opacity:1" fill="#c389fa" d="M 7.5,1.5 C 8.5,2.16667 9.5,2.83333 10.5,3.5C 10.1667,3.5 9.83333,3.5 9.5,3.5C 8.16667,3.5 6.83333,3.5 5.5,3.5C 4.83333,3.5 4.16667,3.5 3.5,3.5C 2.83333,3.5 2.16667,3.5 1.5,3.5C 1.5,3.16667 1.5,2.83333 1.5,2.5C 3.5,2.16667 5.5,1.83333 7.5,1.5 Z"/></g>
<g><path style="opacity:1" fill="#e13be6" d="M 7.5,1.5 C 8.83333,1.5 10.1667,1.5 11.5,1.5C 12.8333,1.5 13.5,2.16667 13.5,3.5C 12.8333,3.5 12.1667,3.5 11.5,3.5C 11.1667,3.5 10.8333,3.5 10.5,3.5C 9.5,2.83333 8.5,2.16667 7.5,1.5 Z"/></g>
<g><path style="opacity:0.004" fill="#f129e0" d="M 15.5,1.5 C 15.5,2.16667 15.5,2.83333 15.5,3.5C 15.1667,3.5 14.8333,3.5 14.5,3.5C 14.3284,2.50838 14.6618,1.84171 15.5,1.5 Z"/></g>
<g><path style="opacity:0.082" fill="#c057df" d="M 1.5,3.5 C 2.16667,3.5 2.83333,3.5 3.5,3.5C 3.5,3.83333 3.5,4.16667 3.5,4.5C 2.83333,4.5 2.5,4.83333 2.5,5.5C 1.83333,5.5 1.16667,5.5 0.5,5.5C 0.32842,4.50838 0.661754,3.84171 1.5,3.5 Z"/></g>
<g><path style="opacity:0.988" fill="#c499d0" d="M 3.5,3.5 C 4.16667,3.5 4.83333,3.5 5.5,3.5C 5.16667,4.16667 4.83333,4.83333 4.5,5.5C 3.83333,5.5 3.5,5.16667 3.5,4.5C 3.5,4.16667 3.5,3.83333 3.5,3.5 Z"/></g>
<g><path style="opacity:0.996" fill="#b955a8" d="M 5.5,3.5 C 6.83333,3.5 8.16667,3.5 9.5,3.5C 9.83333,4.16667 10.1667,4.83333 10.5,5.5C 10.1667,5.5 9.83333,5.5 9.5,5.5C 7.90097,5.23219 6.56764,5.56552 5.5,6.5C 5.16667,6.5 4.83333,6.5 4.5,6.5C 4.5,6.16667 4.5,5.83333 4.5,5.5C 4.83333,4.83333 5.16667,4.16667 5.5,3.5 Z"/></g>
<g><path style="opacity:0.988" fill="#d79ac4" d="M 9.5,3.5 C 9.83333,3.5 10.1667,3.5 10.5,3.5C 10.8333,3.5 11.1667,3.5 11.5,3.5C 11.5,4.16667 11.5,4.83333 11.5,5.5C 11.1667,5.5 10.8333,5.5 10.5,5.5C 10.1667,4.83333 9.83333,4.16667 9.5,3.5 Z"/></g>
<g><path style="opacity:0.882" fill="#d83eb7" d="M 11.5,3.5 C 12.1667,3.5 12.8333,3.5 13.5,3.5C 13.8333,3.5 14.1667,3.5 14.5,3.5C 14.5,6.16667 14.5,8.83333 14.5,11.5C 14.1667,11.5 13.8333,11.5 13.5,11.5C 13.7947,9.26465 13.4614,7.26465 12.5,5.5C 12.1667,5.5 11.8333,5.5 11.5,5.5C 11.5,4.83333 11.5,4.16667 11.5,3.5 Z"/></g>
<g><path style="opacity:0.992" fill="#dc7abb" d="M 3.5,4.5 C 3.5,5.16667 3.83333,5.5 4.5,5.5C 4.5,5.83333 4.5,6.16667 4.5,6.5C 3.83333,6.5 3.5,6.83333 3.5,7.5C 3.16667,7.5 2.83333,7.5 2.5,7.5C 2.5,6.83333 2.5,6.16667 2.5,5.5C 2.5,4.83333 2.83333,4.5 3.5,4.5 Z"/></g>
<g><path style="opacity:0.082" fill="#e746a9" d="M 0.5,5.5 C 1.16667,5.5 1.83333,5.5 2.5,5.5C 2.5,6.16667 2.5,6.83333 2.5,7.5C 1.83333,7.5 1.16667,7.5 0.5,7.5C 0.5,6.83333 0.5,6.16667 0.5,5.5 Z"/></g>
<g><path style="opacity:0.996" fill="#e06b7b" d="M 3.5,7.5 C 3.5,6.83333 3.83333,6.5 4.5,6.5C 4.83333,6.5 5.16667,6.5 5.5,6.5C 5.83333,6.5 6.16667,6.5 6.5,6.5C 6.5,7.16667 6.5,7.83333 6.5,8.5C 6.16667,8.5 5.83333,8.5 5.5,8.5C 5.15829,7.66175 4.49162,7.32842 3.5,7.5 Z"/></g>
<g><path style="opacity:1" fill="#eb131f" d="M 6.5,6.5 C 9.16667,7.16667 9.16667,7.83333 6.5,8.5C 6.5,7.83333 6.5,7.16667 6.5,6.5 Z"/></g>
<g><path style="opacity:0.988" fill="#e36389" d="M 9.5,5.5 C 9.83333,5.5 10.1667,5.5 10.5,5.5C 10.8333,5.5 11.1667,5.5 11.5,5.5C 11.8333,5.5 12.1667,5.5 12.5,5.5C 12.7678,7.09903 12.4345,8.43236 11.5,9.5C 11.1667,9.5 10.8333,9.5 10.5,9.5C 10.5,8.83333 10.1667,8.5 9.5,8.5C 9.5,7.5 9.5,6.5 9.5,5.5 Z"/></g>
<g><path style="opacity:0.992" fill="#f1726d" d="M 2.5,7.5 C 2.83333,7.5 3.16667,7.5 3.5,7.5C 4.49162,7.32842 5.15829,7.66175 5.5,8.5C 4.83333,8.5 4.5,8.83333 4.5,9.5C 3.83333,9.5 3.5,9.83333 3.5,10.5C 3.16667,10.5 2.83333,10.5 2.5,10.5C 2.5,9.5 2.5,8.5 2.5,7.5 Z"/></g>
<g><path style="opacity:0.996" fill="#e58790" d="M 5.5,6.5 C 6.56764,5.56552 7.90097,5.23219 9.5,5.5C 9.5,6.5 9.5,7.5 9.5,8.5C 9.5,9.16667 9.16667,9.5 8.5,9.5C 7.83333,9.5 7.16667,9.5 6.5,9.5C 5.83333,9.5 5.5,9.16667 5.5,8.5C 5.83333,8.5 6.16667,8.5 6.5,8.5C 9.16667,7.83333 9.16667,7.16667 6.5,6.5C 6.16667,6.5 5.83333,6.5 5.5,6.5 Z"/></g>
<g><path style="opacity:0.949" fill="#f73f35" d="M 0.5,7.5 C 1.16667,7.5 1.83333,7.5 2.5,7.5C 2.5,8.5 2.5,9.5 2.5,10.5C 2.5,11.5 2.5,12.5 2.5,13.5C 1.83333,12.8333 1.16667,12.1667 0.5,11.5C 0.5,10.1667 0.5,8.83333 0.5,7.5 Z"/></g>
<g><path style="opacity:0.996" fill="#f85d16" d="M 5.5,8.5 C 5.5,9.16667 5.83333,9.5 6.5,9.5C 6.5,9.83333 6.5,10.1667 6.5,10.5C 5.50838,10.6716 4.84171,10.3382 4.5,9.5C 4.5,8.83333 4.83333,8.5 5.5,8.5 Z"/></g>
<g><path style="opacity:0.996" fill="#ef1c16" d="M 9.5,8.5 C 10.1667,8.5 10.5,8.83333 10.5,9.5C 10.5,10.1667 10.1667,10.5 9.5,10.5C 8.83333,10.5 8.5,10.1667 8.5,9.5C 9.16667,9.5 9.5,9.16667 9.5,8.5 Z"/></g>
<g><path style="opacity:0.882" fill="#e2256b" d="M 12.5,5.5 C 13.4614,7.26465 13.7947,9.26465 13.5,11.5C 12.8333,11.1667 12.1667,10.8333 11.5,10.5C 11.5,10.1667 11.5,9.83333 11.5,9.5C 12.4345,8.43236 12.7678,7.09903 12.5,5.5 Z"/></g>
<g><path style="opacity:0.988" fill="#f2b996" d="M 4.5,9.5 C 4.84171,10.3382 5.50838,10.6716 6.5,10.5C 7.16667,10.5 7.5,10.8333 7.5,11.5C 5.90097,11.7678 4.56764,11.4345 3.5,10.5C 3.5,9.83333 3.83333,9.5 4.5,9.5 Z"/></g>
<g><path style="opacity:0.988" fill="#ec8565" d="M 6.5,10.5 C 6.5,10.1667 6.5,9.83333 6.5,9.5C 7.16667,9.5 7.83333,9.5 8.5,9.5C 8.5,10.1667 8.83333,10.5 9.5,10.5C 9.5,11.1667 9.83333,11.5 10.5,11.5C 10.1583,12.3382 9.49162,12.6716 8.5,12.5C 7.83333,12.5 7.5,12.1667 7.5,11.5C 7.5,10.8333 7.16667,10.5 6.5,10.5 Z"/></g>
<g><path style="opacity:0.98" fill="#e9979a" d="M 10.5,9.5 C 10.8333,9.5 11.1667,9.5 11.5,9.5C 11.5,9.83333 11.5,10.1667 11.5,10.5C 11.5,10.8333 11.5,11.1667 11.5,11.5C 11.1667,11.5 10.8333,11.5 10.5,11.5C 9.83333,11.5 9.5,11.1667 9.5,10.5C 10.1667,10.5 10.5,10.1667 10.5,9.5 Z"/></g>
<g><path style="opacity:0.004" fill="#f28324" d="M -0.5,11.5 C -0.166667,11.5 0.166667,11.5 0.5,11.5C 0.67158,12.4916 0.338246,13.1583 -0.5,13.5C -0.5,12.8333 -0.5,12.1667 -0.5,11.5 Z"/></g>
<g><path style="opacity:0.871" fill="#e7a43d" d="M 2.5,10.5 C 2.83333,10.5 3.16667,10.5 3.5,10.5C 4.56764,11.4345 5.90097,11.7678 7.5,11.5C 7.5,12.1667 7.83333,12.5 8.5,12.5C 8.5,13.1667 8.5,13.8333 8.5,14.5C 6.83333,14.5 5.16667,14.5 3.5,14.5C 3.5,13.8333 3.16667,13.5 2.5,13.5C 2.5,12.5 2.5,11.5 2.5,10.5 Z"/></g>
<g><path style="opacity:0.867" fill="#e34026" d="M 10.5,11.5 C 10.8333,11.5 11.1667,11.5 11.5,11.5C 11.5,12.1667 11.5,12.8333 11.5,13.5C 11.5,13.8333 11.5,14.1667 11.5,14.5C 10.5,14.5 9.5,14.5 8.5,14.5C 8.5,13.8333 8.5,13.1667 8.5,12.5C 9.49162,12.6716 10.1583,12.3382 10.5,11.5 Z"/></g>
<g><path style="opacity:0.588" fill="#e32b38" d="M 11.5,10.5 C 12.1667,10.8333 12.8333,11.1667 13.5,11.5C 13.5,12.1667 13.5,12.8333 13.5,13.5C 12.8333,13.5 12.1667,13.5 11.5,13.5C 11.5,12.8333 11.5,12.1667 11.5,11.5C 11.5,11.1667 11.5,10.8333 11.5,10.5 Z"/></g>
<g><path style="opacity:0.004" fill="#e6293d" d="M 14.5,11.5 C 14.8333,11.5 15.1667,11.5 15.5,11.5C 15.5,12.1667 15.5,12.8333 15.5,13.5C 15.1667,13.5 14.8333,13.5 14.5,13.5C 14.5,12.8333 14.5,12.1667 14.5,11.5 Z"/></g>
<g><path style="opacity:0.004" fill="#dd2a3d" d="M 13.5,13.5 C 13.8333,13.5 14.1667,13.5 14.5,13.5C 14.3147,14.1701 13.9813,14.1701 13.5,13.5 Z"/></g>
<g><path style="opacity:0.004" fill="#f7932b" d="M 1.5,15.5 C 1.84171,14.6618 2.50838,14.3284 3.5,14.5C 3.5,14.8333 3.5,15.1667 3.5,15.5C 2.83333,15.5 2.16667,15.5 1.5,15.5 Z"/></g>
<g><path style="opacity:0.004" fill="#e62a3d" d="M 11.5,15.5 C 11.5,15.1667 11.5,14.8333 11.5,14.5C 12.1667,14.5 12.8333,14.5 13.5,14.5C 13.5,14.8333 13.5,15.1667 13.5,15.5C 12.8333,15.5 12.1667,15.5 11.5,15.5 Z"/></g>
</svg>
