<?xml version="1.0" encoding="UTF-8"?>
<!DOCTYPE svg PUBLIC "-//W3C//DTD SVG 1.1//EN" "http://www.w3.org/Graphics/SVG/1.1/DTD/svg11.dtd">
<svg xmlns="http://www.w3.org/2000/svg" version="1.1" width="94px" height="94px" style="shape-rendering:geometricPrecision; text-rendering:geometricPrecision; image-rendering:optimizeQuality; fill-rule:evenodd; clip-rule:evenodd" xmlns:xlink="http://www.w3.org/1999/xlink">
<g><path style="opacity:0.008" fill="#ffb0ae" d="M 22.5,14.5 C 27.6503,13.3493 32.9836,13.1826 38.5,14C 33.1771,14.4994 27.8437,14.666 22.5,14.5 Z"/></g>
<g><path style="opacity:0.004" fill="#fe1f26" d="M 39.5,14.5 C 39.8966,13.475 40.5632,13.3083 41.5,14C 40.9056,14.4643 40.2389,14.631 39.5,14.5 Z"/></g>
<g><path style="opacity:0.004" fill="#fe0000" d="M 50.5,14.5 C 50.8966,13.475 51.5632,13.3083 52.5,14C 51.9056,14.4643 51.2389,14.631 50.5,14.5 Z"/></g>
<g><path style="opacity:0.007" fill="#ff8591" d="M 54.5,14.5 C 59.3158,13.3503 64.3158,13.1837 69.5,14C 64.5111,14.4993 59.5111,14.6659 54.5,14.5 Z"/></g>
<g><path style="opacity:0.012" fill="#ff8b9f" d="M 78.5,16.5 C 78.8966,15.475 79.5632,15.3083 80.5,16C 79.9056,16.4643 79.2389,16.631 78.5,16.5 Z"/></g>
<g><path style="opacity:0.627" fill="#ffb7c0" d="M 78.5,16.5 C 80.8102,17.325 82.8102,18.6583 84.5,20.5C 79.8021,18.1193 74.8021,17.1193 69.5,17.5C 61.0161,16.507 52.3494,16.1736 43.5,16.5C 32.7587,16.1859 22.092,16.8526 11.5,18.5C 14.2026,17.037 17.2026,16.2037 20.5,16C 39.8269,14.4956 59.1602,14.6623 78.5,16.5 Z"/></g>
<g><path style="opacity:0.004" fill="#fceeee" d="M 6.5,18.5 C 7.83333,19.1667 7.83333,19.1667 6.5,18.5 Z"/></g>
<g><path style="opacity:0.999" fill="#ff807c" d="M 43.5,16.5 C 42.3947,18.4022 40.3947,20.2355 37.5,22C 27.3464,24.6973 17.0131,26.0307 6.5,26C 5.9558,26.7172 5.28913,27.2172 4.5,27.5C 4.5,26.5 4.5,25.5 4.5,24.5C 6.21351,21.7872 8.54685,19.7872 11.5,18.5C 22.092,16.8526 32.7587,16.1859 43.5,16.5 Z"/></g>
<g><path style="opacity:0.012" fill="#ffbeb8" d="M 4.5,24.5 C 3.47498,24.1034 3.30831,23.4368 4,22.5C 4.46434,23.0944 4.63101,23.7611 4.5,24.5 Z"/></g>
<g><path style="opacity:0.012" fill="#e9586a" d="M 88.5,25.5 C 88.369,24.7611 88.5357,24.0944 89,23.5C 89.6917,24.4368 89.525,25.1034 88.5,25.5 Z"/></g>
<g><path style="opacity:0.012" fill="#fe9487" d="M 2.5,25.5 C 3.57346,26.2506 3.74012,27.2506 3,28.5C 2.51722,27.552 2.35055,26.552 2.5,25.5 Z"/></g>
<g><path style="opacity:1" fill="#fe5a5f" d="M 43.5,16.5 C 52.3494,16.1736 61.0161,16.507 69.5,17.5C 67.1432,17.3367 64.8098,17.5034 62.5,18C 64.1667,18.3333 65.8333,18.6667 67.5,19C 65.8248,20.7094 64.1581,22.3761 62.5,24C 54.096,25.4707 45.7627,27.1374 37.5,29C 38.7375,29.2321 39.7375,29.7321 40.5,30.5C 39.0413,30.4326 37.7079,30.7659 36.5,31.5C 31.1335,31.5782 25.4668,31.4115 19.5,31C 18.1279,30.5983 16.7946,30.0983 15.5,29.5C 11.4038,28.8541 7.40384,29.5208 3.5,31.5C 3.83333,30.1667 4.16667,28.8333 4.5,27.5C 5.28913,27.2172 5.9558,26.7172 6.5,26C 17.0131,26.0307 27.3464,24.6973 37.5,22C 40.3947,20.2355 42.3947,18.4022 43.5,16.5 Z"/></g>
<g><path style="opacity:1" fill="#f83b49" d="M 69.5,17.5 C 74.8021,17.1193 79.8021,18.1193 84.5,20.5C 86.0737,21.9842 87.407,23.6508 88.5,25.5C 88.5,26.5 88.5,27.5 88.5,28.5C 87.0689,28.8807 86.2355,29.8807 86,31.5C 84.8873,30.695 83.7206,30.0283 82.5,29.5C 70.9143,28.1064 59.2476,28.6064 47.5,31C 46.6195,31.7083 45.9528,32.5416 45.5,33.5C 43.9991,32.2485 42.3325,31.2485 40.5,30.5C 39.7375,29.7321 38.7375,29.2321 37.5,29C 45.7627,27.1374 54.096,25.4707 62.5,24C 64.1581,22.3761 65.8248,20.7094 67.5,19C 65.8333,18.6667 64.1667,18.3333 62.5,18C 64.8098,17.5034 67.1432,17.3367 69.5,17.5 Z"/></g>
<g><path style="opacity:0.004" fill="#db292e" d="M 89.5,26.5 C 90.5983,27.6009 90.765,28.9343 90,30.5C 89.51,29.2068 89.3433,27.8734 89.5,26.5 Z"/></g>
<g><path style="opacity:1" fill="#fbf7f8" d="M 40.5,30.5 C 42.3325,31.2485 43.9991,32.2485 45.5,33.5C 51.4753,37.4811 57.1419,41.8144 62.5,46.5C 62.5858,47.4959 62.2524,48.3292 61.5,49C 57.5,51.6667 53.5,54.3333 49.5,57C 46.1403,59.5457 42.4736,61.3791 38.5,62.5C 37.8333,62.1667 37.1667,61.8333 36.5,61.5C 36.5,51.5 36.5,41.5 36.5,31.5C 37.7079,30.7659 39.0413,30.4326 40.5,30.5 Z"/></g>
<g><path style="opacity:0.016" fill="#cf3627" d="M 90.5,31.5 C 91.6583,41.3247 91.8249,51.3247 91,61.5C 90.5002,51.5056 90.3335,41.5056 90.5,31.5 Z"/></g>
<g><path style="opacity:1" fill="#f42427" d="M 82.5,29.5 C 83.7042,34.1561 83.7042,38.8228 82.5,43.5C 80.8333,43.5 79.1667,43.5 77.5,43.5C 77.5,44.5 77.5,45.5 77.5,46.5C 73.102,46.7949 68.7686,47.4615 64.5,48.5C 63.8182,47.7573 63.1515,47.0906 62.5,46.5C 57.1419,41.8144 51.4753,37.4811 45.5,33.5C 45.9528,32.5416 46.6195,31.7083 47.5,31C 59.2476,28.6064 70.9143,28.1064 82.5,29.5 Z"/></g>
<g><path style="opacity:0.016" fill="#c4855c" d="M 3.5,39.5 C 3.5,44.1667 3.5,48.8333 3.5,53.5C 3.16667,53.5 2.83333,53.5 2.5,53.5C 2.5,51.5 2.5,49.5 2.5,47.5C 2.5,46.8333 2.5,46.1667 2.5,45.5C 2.5,44.1667 2.5,42.8333 2.5,41.5C 2.5,40.8333 2.16667,40.5 1.5,40.5C 1.3347,36.8183 1.50137,33.1516 2,29.5C 2.17871,33.0252 2.67871,36.3586 3.5,39.5 Z"/></g>
<g><path style="opacity:0.004" fill="#eb241d" d="M 1.5,40.5 C 2.16667,40.5 2.5,40.8333 2.5,41.5C 2.5,42.8333 2.5,44.1667 2.5,45.5C 1.16667,46.1667 1.16667,46.8333 2.5,47.5C 2.5,49.5 2.5,51.5 2.5,53.5C 2.66501,56.8499 2.49834,60.1832 2,63.5C 1.46994,57.836 0.969937,52.1693 0.5,46.5C 0.504648,44.3035 0.837982,42.3035 1.5,40.5 Z"/></g>
<g><path style="opacity:1" fill="#e42e21" d="M 88.5,28.5 C 88.5,29.5 88.5,30.5 88.5,31.5C 88.824,38.3543 88.4907,45.021 87.5,51.5C 85.9705,50.9332 84.4705,50.2666 83,49.5C 82.6667,50.8333 82.3333,52.1667 82,53.5C 77.2411,52.1388 72.5745,52.4721 68,54.5C 67.6667,53.8333 67.3333,53.1667 67,52.5C 66.7266,54.1012 66.2266,55.6012 65.5,57C 58.5,60 51.5,63 44.5,66C 42.4213,66.8077 40.4213,66.641 38.5,65.5C 37.2086,64.4728 37.2086,63.4728 38.5,62.5C 42.4736,61.3791 46.1403,59.5457 49.5,57C 53.5,54.3333 57.5,51.6667 61.5,49C 62.2524,48.3292 62.5858,47.4959 62.5,46.5C 63.1515,47.0906 63.8182,47.7573 64.5,48.5C 68.7686,47.4615 73.102,46.7949 77.5,46.5C 77.5,45.5 77.5,44.5 77.5,43.5C 79.1667,43.5 80.8333,43.5 82.5,43.5C 83.7042,38.8228 83.7042,34.1561 82.5,29.5C 83.7206,30.0283 84.8873,30.695 86,31.5C 86.2355,29.8807 87.0689,28.8807 88.5,28.5 Z"/></g>
<g><path style="opacity:0.999" fill="#f52321" d="M 36.5,31.5 C 36.5,41.5 36.5,51.5 36.5,61.5C 35.1938,62.4674 34.5271,63.8007 34.5,65.5C 31.6894,66.1192 29.1894,67.4525 27,69.5C 19.387,69.4282 11.887,67.7615 4.5,64.5C 4.16667,64.5 3.83333,64.5 3.5,64.5C 3.5,60.8333 3.5,57.1667 3.5,53.5C 3.5,48.8333 3.5,44.1667 3.5,39.5C 3.5,36.8333 3.5,34.1667 3.5,31.5C 7.40384,29.5208 11.4038,28.8541 15.5,29.5C 16.7946,30.0983 18.1279,30.5983 19.5,31C 25.4668,31.4115 31.1335,31.5782 36.5,31.5 Z"/></g>
<g><path style="opacity:1" fill="#e43923" d="M 87.5,51.5 C 87.6104,54.0588 86.9438,56.3921 85.5,58.5C 83.2619,55.5673 82.2619,55.9007 82.5,59.5C 71.7279,60.7013 61.5613,64.0346 52,69.5C 51.7508,68.376 51.2508,67.376 50.5,66.5C 48.4527,68.0152 46.1193,68.8485 43.5,69C 42.33,70.7547 40.6633,71.7547 38.5,72C 39.3279,72.9147 40.3279,73.5814 41.5,74C 39.5,74.3333 37.5,74.6667 35.5,75C 37.3817,75.1981 39.0484,75.6981 40.5,76.5C 29.6568,77.0923 18.9901,76.0923 8.5,73.5C 7.27187,72.6935 6.27187,71.6935 5.5,70.5C 5.67158,69.5084 5.33825,68.8417 4.5,68.5C 4.5,67.1667 4.5,65.8333 4.5,64.5C 11.887,67.7615 19.387,69.4282 27,69.5C 29.1894,67.4525 31.6894,66.1192 34.5,65.5C 34.5271,63.8007 35.1938,62.4674 36.5,61.5C 37.1667,61.8333 37.8333,62.1667 38.5,62.5C 37.2086,63.4728 37.2086,64.4728 38.5,65.5C 40.4213,66.641 42.4213,66.8077 44.5,66C 51.5,63 58.5,60 65.5,57C 66.2266,55.6012 66.7266,54.1012 67,52.5C 67.3333,53.1667 67.6667,53.8333 68,54.5C 72.5745,52.4721 77.2411,52.1388 82,53.5C 82.3333,52.1667 82.6667,50.8333 83,49.5C 84.4705,50.2666 85.9705,50.9332 87.5,51.5 Z"/></g>
<g><path style="opacity:0.008" fill="#d84d31" d="M 89.5,62.5 C 90.5983,63.6009 90.765,64.9343 90,66.5C 89.51,65.2068 89.3433,63.8734 89.5,62.5 Z"/></g>
<g><path style="opacity:0.004" fill="#dc3c2d" d="M 3.5,64.5 C 3.5,65.8333 3.5,67.1667 3.5,68.5C 2.16667,67.1667 2.16667,65.8333 3.5,64.5 Z"/></g>
<g><path style="opacity:0.016" fill="#d64e2e" d="M 88.5,67.5 C 89.8333,68.5 89.8333,69.5 88.5,70.5C 88.5,69.5 88.5,68.5 88.5,67.5 Z"/></g>
<g><path style="opacity:0.012" fill="#d43020" d="M 3.5,68.5 C 3.83333,68.5 4.16667,68.5 4.5,68.5C 4.5,69.1667 4.5,69.8333 4.5,70.5C 3.66175,70.1583 3.32842,69.4916 3.5,68.5 Z"/></g>
<g><path style="opacity:0.999" fill="#e54728" d="M 88.5,31.5 C 89.4927,39.6499 89.8261,47.9832 89.5,56.5C 88.0519,60.7819 86.2186,65.1152 84,69.5C 79.2809,72.7401 74.2809,74.0734 69,73.5C 68.5,74 68,74.5 67.5,75C 58.5281,76.0399 49.5281,76.5399 40.5,76.5C 39.0484,75.6981 37.3817,75.1981 35.5,75C 37.5,74.6667 39.5,74.3333 41.5,74C 40.3279,73.5814 39.3279,72.9147 38.5,72C 40.6633,71.7547 42.33,70.7547 43.5,69C 46.1193,68.8485 48.4527,68.0152 50.5,66.5C 51.2508,67.376 51.7508,68.376 52,69.5C 61.5613,64.0346 71.7279,60.7013 82.5,59.5C 82.2619,55.9007 83.2619,55.5673 85.5,58.5C 86.9438,56.3921 87.6104,54.0588 87.5,51.5C 88.4907,45.021 88.824,38.3543 88.5,31.5 Z"/></g>
<g><path style="opacity:0.012" fill="#cf5637" d="M 87.5,70.5 C 87.8333,70.5 88.1667,70.5 88.5,70.5C 88.3147,71.1701 87.9813,71.1701 87.5,70.5 Z"/></g>
<g><path style="opacity:0.004" fill="#c84b37" d="M 4.5,70.5 C 4.83333,70.5 5.16667,70.5 5.5,70.5C 5.16667,73.1667 4.83333,73.1667 4.5,70.5 Z"/></g>
<g><path style="opacity:0.004" fill="#ce5637" d="M 86.5,71.5 C 86.8333,71.5 87.1667,71.5 87.5,71.5C 87.6716,72.4916 87.3382,73.1583 86.5,73.5C 86.5,72.8333 86.5,72.1667 86.5,71.5 Z"/></g>
<g><path style="opacity:0.004" fill="#c95234" d="M 86.5,73.5 C 85.8333,74.1667 85.8333,74.1667 86.5,73.5 Z"/></g>
<g><path style="opacity:0.004" fill="#c95b3d" d="M 85.5,74.5 C 84.8333,75.1667 84.8333,75.1667 85.5,74.5 Z"/></g>
<g><path style="opacity:0.008" fill="#cb4729" d="M 82.5,75.5 C 83.8333,76.1667 83.8333,76.1667 82.5,75.5 Z"/></g>
<g><path style="opacity:0.974" fill="#cd462c" d="M 89.5,56.5 C 89.5,58.5 89.5,60.5 89.5,62.5C 88.5489,63.9187 88.2155,65.5853 88.5,67.5C 87.596,68.209 87.2627,69.209 87.5,70.5C 86.8333,70.5 86.5,70.8333 86.5,71.5C 84.8333,72.5 83.5,73.8333 82.5,75.5C 81.209,75.2627 80.209,75.596 79.5,76.5C 77.901,76.2322 76.5676,76.5655 75.5,77.5C 60.179,78.2643 44.8457,78.5977 29.5,78.5C 23.9839,77.5841 18.3173,77.4174 12.5,78C 13.8333,77.6667 15.1667,77.3333 16.5,77C 13.4006,76.6126 10.734,75.4459 8.5,73.5C 18.9901,76.0923 29.6568,77.0923 40.5,76.5C 49.5281,76.5399 58.5281,76.0399 67.5,75C 68,74.5 68.5,74 69,73.5C 74.2809,74.0734 79.2809,72.7401 84,69.5C 86.2186,65.1152 88.0519,60.7819 89.5,56.5 Z"/></g>
<g><path style="opacity:0.016" fill="#cc4124" d="M 79.5,77.5 C 79.5,77.1667 79.5,76.8333 79.5,76.5C 82.1667,76.8333 82.1667,77.1667 79.5,77.5 Z"/></g>
<g><path style="opacity:0.008" fill="#ca4427" d="M 75.5,77.5 C 76.8333,77.5 78.1667,77.5 79.5,77.5C 78.1667,78.8333 76.8333,78.8333 75.5,77.5 Z"/></g>
<g><path style="opacity:0.006" fill="#c53020" d="M 29.5,78.5 C 26.3601,79.6408 23.0267,79.8075 19.5,79C 22.8168,78.5017 26.1501,78.335 29.5,78.5 Z"/></g>
<g><path style="opacity:0.007" fill="#cc4328" d="M 64.5,79.5 C 67.3035,78.3622 70.3035,78.1955 73.5,79C 70.5184,79.498 67.5184,79.6646 64.5,79.5 Z"/></g>
<g><path style="opacity:0.012" fill="#c54932" d="M 30.5,80.5 C 40.992,79.3412 51.6586,79.1745 62.5,80C 51.8385,80.4998 41.1719,80.6665 30.5,80.5 Z"/></g>
</svg>
